<?xml version="1.0" encoding="utf-8"?>
<!-- Generator: Adobe Illustrator 22.1.0, SVG Export Plug-In . SVG Version: 6.00 Build 0)  -->
<svg version="1.1" id="Layer_1" xmlns="http://www.w3.org/2000/svg" xmlns:xlink="http://www.w3.org/1999/xlink" x="0px" y="0px"
	 viewBox="0 0 10 10" style="enable-background:new 0 0 10 10;" xml:space="preserve">
<style type="text/css">
	.st0{fill:#010101;}
</style>
<path d="M20.9,7.9c-0.2,0-0.4-0.2-0.4-0.4V3.3h-2.6c-0.2,0-0.4,0.2-0.4,0.4v5.6c0,0.2,0.1,0.4,0.3,0.4c0,0,0,0,0.1,0h6
	c0.2,0,0.4-0.2,0.4-0.4V3.7c0-0.2-0.2-0.4-0.4-0.4h-2.6v4.2C21.3,7.7,21.2,7.9,20.9,7.9z"/>
<path d="M20.6,0.3l-1.4,1.4c-0.2,0.2-0.2,0.4,0,0.6c0.2,0.2,0.4,0.2,0.6,0l0.7-0.7l0,1.8c0.1,0,0.3,0,0.4,0c0.2,0,0.4,0,0.4,0l0-1.8
	L22,2.3c0.2,0.2,0.4,0.2,0.6,0c0.2-0.2,0.2-0.4,0-0.6l-1.4-1.4C21.1,0.1,20.8,0.1,20.6,0.3L20.6,0.3z"/>
<path class="st0" d="M8.1,3.3H5.5v3.4L6.2,6c0.2-0.2,0.4-0.2,0.6,0C7,6.1,7,6.4,6.8,6.5L5.4,7.9h0C5.2,8.1,5,8.1,4.8,7.9L3.4,6.5
	C3.3,6.4,3.3,6.1,3.4,6C3.6,5.8,3.8,5.8,4,6l0.7,0.7V5.5l0-0.6c0,0,0,0,0,0V3.3l0.8,0l0-2.7c0-0.2-0.1-0.4-0.4-0.4
	c-0.2,0-0.4,0.2-0.4,0.4v2.7H2.1c-0.2,0-0.4,0.2-0.4,0.4v5.6c0,0.2,0.1,0.4,0.3,0.4c0,0,0,0,0.1,0h6c0.2,0,0.4-0.2,0.4-0.4V3.7
	C8.5,3.5,8.3,3.3,8.1,3.3z"/>
</svg>
