<svg id="Layer_1" data-name="Layer 1" xmlns="http://www.w3.org/2000/svg" viewBox="0 0 32 32"><title>m-icon_salesforce</title><path d="M24.8,8.7a5.9539,5.9539,0,0,0-2.7.6,5.3515,5.3515,0,0,0-4.8-2.8,5.22,5.22,0,0,0-3.9,1.7A6.1087,6.1087,0,0,0,8.6,5.8a6.0176,6.0176,0,0,0-6,6,6.4363,6.4363,0,0,0,.5,2.4A5.3405,5.3405,0,0,0,.5,18.7a5.1644,5.1644,0,0,0,5.2,5.2,4.102,4.102,0,0,0,1.1-.1A5.5493,5.5493,0,0,0,12,27.4,5.4839,5.4839,0,0,0,17.1,24a4.99,4.99,0,0,0,2.1.5A4.76,4.76,0,0,0,23.4,22a5.702,5.702,0,0,0,1.3.1,6.7,6.7,0,0,0,6.7-6.7A6.5534,6.5534,0,0,0,24.8,8.7ZM10.2,18.6c-.1-.1-.3-.1-.4-.2,0,0-.1,0,0-.2l.3-.8c0-.1.1-.1.2-.1s.1.1.2.1a3.397,3.397,0,0,0,1.8.5c.6,0,1-.3,1-.8h0c0-.5-.6-.7-1.3-.9h-.1c-.9-.1-1.9-.5-1.9-1.7h0a1.9845,1.9845,0,0,1,2.2-1.9h.1a3.9386,3.9386,0,0,1,2,.5.3491.3491,0,0,1,.1.2c0,.1-.3.7-.3.8s-.2,0-.2,0a3.7426,3.7426,0,0,0-1.8-.5.8079.8079,0,0,0-.9.7h0c0,.5.6.6,1.3.9h.1c.9.3,1.9.7,1.9,1.8h0c0,1.2-.9,1.9-2.3,1.9A3.64,3.64,0,0,1,10.2,18.6Zm9.4-6.9c0,.1,0,.1-.2.1h-.5c-.2,0-.3,0-.4.1-.1,0-.2.1-.3.2a1.38,1.38,0,0,0-.3.4c-.1.4-.2.9-.2.9H19c.1,0,.1,0,.1.1l-.1.8a.0979.0979,0,0,1-.1.1H17.6l-.9,5a13.0437,13.0437,0,0,1-.3,1.3,2.6219,2.6219,0,0,1-.5.9,3.0388,3.0388,0,0,1-.7.5,2.9585,2.9585,0,0,1-1,.2,1.2683,1.2683,0,0,1-.6-.1c-.2,0-.2-.1-.4-.1a.1275.1275,0,0,1-.1-.1215c0-.1.2778-.7857.3-.8785a.1158.1158,0,0,1,.1-.1c.1,0,.11.0556.21.0556s.19.0444.29.0444a.9015.9015,0,0,0,.5-.1,1.38,1.38,0,0,0,.4-.3,1.6281,1.6281,0,0,0,.3-.6,2.5093,2.5093,0,0,0,.2-1l.9-4.9h-.9c-.1,0-.1,0-.1-.1l.1-.8a.0979.0979,0,0,1,.1-.1h.9v-.3a3.02,3.02,0,0,1,.8-1.8,2.3522,2.3522,0,0,1,1.7-.6h.5c.1,0,.3.1.4.1a.0979.0979,0,0,1,.1.1Z"/></svg>