<svg id="Layer_1" data-name="Layer 1" xmlns="http://www.w3.org/2000/svg" viewBox="0 0 10 10"><defs><style>.cls-1{fill:#010101;}</style></defs><title>m-icon_mail-o</title><g id="_730-envelope-toolbar_2x.png" data-name="730-envelope-toolbar@2x.png"><path class="cls-1" d="M9.4,1.5H.6c-.2,0-.5.2-.5.4V8.1a.5357.5357,0,0,0,.5.5H9.5a.5357.5357,0,0,0,.5-.5V1.9A.6752.6752,0,0,0,9.4,1.5ZM9,1.9,5.3,6c-.2.2-.5.2-.6,0L1,1.9ZM.6,2.1l2.7,3L.6,8Zm.4,6L3.5,5.4l.8.9a.9125.9125,0,0,0,1.2,0l.8-.9L9,8.1ZM9.4,8,6.7,5.1l2.7-3Z"/></g></svg>