<svg xmlns="http://www.w3.org/2000/svg" viewBox="0 0 10 10"><title>m-icon_bloomberg-o</title><path d="M1.2529,1.2411v7.4h2.9a2.7873,2.7873,0,0,0,1-.1,2.3332,2.3332,0,0,0,1.9-2,1.841,1.841,0,0,0-.8-1.8,1.88,1.88,0,0,0,.5-1.1,2.28,2.28,0,0,0-.7-1.9,3.1,3.1,0,0,0-1.7-.5Zm4.9,2.3a1.0891,1.0891,0,0,1-.7277,1.0447c-.1.1-.0833.0293-.2723.1552l-.3.1.3.1c.1,0,.2.1.3.1a1.4346,1.4346,0,0,1,1,1.6,1.7138,1.7138,0,0,1-1.4,1.3,2.7683,2.7683,0,0,1-.9.1h-2.2v-6.2h2.4a1.8445,1.8445,0,0,1,1.3.4A1.9019,1.9019,0,0,1,6.153,3.5412Z"/><path d="M3.853,5.2411h-1.1v2.1h1.6A1.0737,1.0737,0,0,0,4.88,7.2785l.0728-.0374a1.0037,1.0037,0,0,0,.6-1c0-.5-.3-.7-.7-.9A3.7481,3.7481,0,0,0,3.853,5.2411Zm.9,1.3a.33.33,0,0,1-.3.1h-.9v-.7h.4a1.71,1.71,0,0,1,.7087.0594c.1126.049.1616.0685.1861.2594A.2906.2906,0,0,1,4.7529,6.5412Z"/><path d="M2.7529,2.6412v1.9h1.4a.9094.9094,0,0,0,.8-.4.7778.7778,0,0,0,.2-.8c0-.3-.3-.5-.6-.6a1.951,1.951,0,0,0-.8-.1Zm1.6836.76a.2066.2066,0,0,1,.1164.14.3094.3094,0,0,1-.1.2.4373.4373,0,0,1-.3.1h-.6v-.5h.3A1.1715,1.1715,0,0,1,4.4365,3.4012Z"/><path d="M5.9023.3008.3677.3323l-.08.006c0,.1088,0,.1143.0121,8.9791v.3H9.7V4.1353ZM9.1006,9.0176H.9C.897,6.7754.8921,2.0771.897.8672L5.65.8994l3.45,3.4829Z"/></svg>