<svg id="Layer_1" data-name="Layer 1" xmlns="http://www.w3.org/2000/svg" viewBox="0 0 10 10"><title>m-icon_line-down</title><path d="M8.9,6.8H8.6L6.9,4.1a1.4213,1.4213,0,0,0,.2-.6.9.9,0,1,0-1.8,0v.2l-1,.4a.7786.7786,0,0,0-.7-.3c-.2,0-.3.1-.5.2L1.7,2.7a.6012.6012,0,0,0,.1-.4.8963.8963,0,0,0-.9-.9.8168.8168,0,0,0-.8.9.8963.8963,0,0,0,.9.9c.2,0,.3-.1.5-.2L2.9,4.2a.5505.5505,0,0,0-.2.5.9.9,0,1,0,1.8,0V4.5L5.6,4a.9078.9078,0,0,0,.7.3h.3L8.3,7a.7549.7549,0,0,0-.4.7.9.9,0,1,0,1.8,0C9.6,7.2,9.3,6.8,8.9,6.8Z"/></svg>