<svg id="Layer_1" data-name="Layer 1" xmlns="http://www.w3.org/2000/svg" viewBox="0 0 10 10"><title>m-icon_alert-alt-o</title><path d="M5,2.1917a.67.67,0,0,0-.6674.64l.0011.026.3053,2.8061.0029.0086.0016.0223a.3257.3257,0,0,0,.3343.317L4.99,6.0111A.3414.3414,0,0,0,5.3318,5.67l-.0012-.0058H5.332l.3355-2.8321A.67.67,0,0,0,5,2.1917Z"/><circle cx="5.0084" cy="7.2024" r="0.6059"/><path d="M5.02.2465A4.7586,4.7586,0,0,0,.2661,5,4.8169,4.8169,0,0,0,5.02,9.7535,4.817,4.817,0,0,0,9.7731,5,4.7586,4.7586,0,0,0,5.02.2465Zm0,8.8693A4.1158,4.1158,0,1,1,9.1354,5,4.12,4.12,0,0,1,5.02,9.1158Z"/></svg>