<svg id="Layer_1" data-name="Layer 1" xmlns="http://www.w3.org/2000/svg" viewBox="0 0 10 10"><defs><style>.cls-1{fill:#010101;}</style></defs><title>m-icon_zoom-in</title><path class="cls-1" d="M9.8,9.3l-3-3A4.0064,4.0064,0,0,0,7.6,4,3.585,3.585,0,0,0,4,.4,3.5482,3.5482,0,0,0,.3,4,3.585,3.585,0,0,0,3.9,7.6a3.7751,3.7751,0,0,0,2.3-.8l3,3a.375.375,0,0,0,.6,0A.4542.4542,0,0,0,9.8,9.3ZM5.4792,4.4092H4.4215V5.4214a.402.402,0,1,1-.8039,0V4.4092H2.56a.402.402,0,1,1,0-.8039H3.6176V2.502a.402.402,0,1,1,.8039,0V3.6053H5.4792a.402.402,0,1,1,0,.8039Z"/></svg>