<svg id="Layer_1" data-name="Layer 1" xmlns="http://www.w3.org/2000/svg" viewBox="0 0 10 10"><title>m-icon_alert</title><path d="M9.6508,8.0022l-3.932-6.87A.8677.8677,0,0,0,4.2218,1.13L.284,7.97a.8278.8278,0,0,0,.7329,1.2341L8.91,9.2346A.8281.8281,0,0,0,9.6508,8.0022Zm-4.6023.2844a.6059.6059,0,1,1,.6059-.6059A.6059.6059,0,0,1,5.0485,8.2866Zm.3237-2.1445H5.3708l.0012.0058a.3415.3415,0,0,1-.3415.3415L5.0179,6.49a.3259.3259,0,0,1-.3344-.317L4.682,6.1507l-.003-.0086L4.3737,3.336l-.001-.026a.668.668,0,0,1,1.3349,0Z"/></svg>