<svg id="Layer_1" data-name="Layer 1" xmlns="http://www.w3.org/2000/svg" viewBox="0 0 10 10"><defs><style>.cls-1{fill:#010101;}</style></defs><title>m-icon_check-alt</title><g id="_1040-checkmark-toolbar-selected_2x.png" data-name="1040-checkmark-toolbar-selected@2x.png"><path class="cls-1" d="M8.8184.7592a.6468.6468,0,0,0-.597.2985L3.371,6.2813,1.7293,4.64h0a.6773.6773,0,0,0-.5224-.2239.8281.8281,0,0,0-.8208.8209,1.0612,1.0612,0,0,0,.1492.4477h0L2.8486,8.9677a.6907.6907,0,0,0,.6716.3731.8652.8652,0,0,0,.6716-.2985l5.3729-6.94A.7555.7555,0,0,0,9.7139,1.58.8469.8469,0,0,0,8.8184.7592Z"/></g></svg>