<svg id="Layer_1" data-name="Layer 1" xmlns="http://www.w3.org/2000/svg" viewBox="0 0 10 10"><defs><style>.cls-1{fill:#010101;}</style></defs><title>m-icon_globe-o</title><g id="_881-globe-toolbar_2x.png" data-name="881-globe-toolbar@2x.png"><path class="cls-1" d="M4.8,4c.7-.3.5-.5.8-.5s.3-.6-.3-.6c-.7,0-.3.8-.8.3s.1-.3.5-.6c.3-.3-.3-.5-.5-.1,0,0-.5-.5-.8.3a2.3761,2.3761,0,0,1-.9-.9,3.24,3.24,0,0,0-.9.8.9137.9137,0,0,1,.5.3c.5.5.1.9,0,1.3-.1.3.5.8.5.8a8.12,8.12,0,0,0,1,.5s.3-.1-.3-.5c0,0-.5-.5.1-.6.5-.1.1.3.5.3C4.5,4.8,4.2,4.3,4.8,4ZM6,5.9c-.2-.1-.1-.2-.6-.4-.7-.3-1.2,0-1.2.4,0,1,.6,1.1.6,1.1-.1.8,0,1.1.1,1.2s.3.4.4.3A6.3837,6.3837,0,0,1,5.9,7,.7154.7154,0,0,0,6,5.9Zm.3-4.5c0,.1,0,.2-.1.2-.1.1-.4.6.2.6,0,0-.3.9.1.9s1-.9,1.4-.4c.5.6-.7.4-.7,1.5,0,.8.9,1.4,1.5,1.7a3.4019,3.4019,0,0,0,.1-1A3.54,3.54,0,0,0,6.3,1.4ZM5,.3A4.7,4.7,0,1,0,9.7,5,4.6946,4.6946,0,0,0,5,.3Zm0,9A4.2682,4.2682,0,0,1,.7,5,4.2682,4.2682,0,0,1,5,.7,4.2682,4.2682,0,0,1,9.3,5,4.2682,4.2682,0,0,1,5,9.3Z"/></g></svg>