<svg xmlns="http://www.w3.org/2000/svg" viewBox="0 0 10 10"><title>m-icon_chat-o</title><path d="M9.7,5.3A2.4666,2.4666,0,0,0,7.1,3H6.6A3.1357,3.1357,0,0,0,3.5,1.1,3.1349,3.1349,0,0,0,.2,4a2.4628,2.4628,0,0,0,.9,1.9,4.8128,4.8128,0,0,0,.2,1.8V8l.1-.3a2.7071,2.7071,0,0,1,1-1.1,3.5949,3.5949,0,0,0,1.1.2,2.7681,2.7681,0,0,0,1.3-.3A2.6557,2.6557,0,0,0,7,7.6h.3A2.05,2.05,0,0,1,8.6,8.8l.2.3.1-.3A6.2719,6.2719,0,0,0,9,7,2.8367,2.8367,0,0,0,9.7,5.3ZM8.2,7v.3a2.092,2.092,0,0,0-.6-.4H7.1a2.136,2.136,0,0,1-1.7-.8A.0979.0979,0,0,0,5.3,6s.0294-.0044,0-.1a2.1317,2.1317,0,0,0-.1-.2.9937.9937,0,0,1-.1-.5A1.8044,1.8044,0,0,1,6.3,3.7c.0971-.0206.1088-.0353.1088-.0353L6.5,3.6559h.6A1.8638,1.8638,0,0,1,9.1,5.4a1.55,1.55,0,0,1-.602,1.1922l-.3411.1686ZM4.6,5.9a3.0789,3.0789,0,0,1-1.9,0H2.4L2.2,6c-.1.1-.3.2-.4.3V5.6l-.2-.2A2.33,2.33,0,0,1,.9,3.9,2.459,2.459,0,0,1,3.5,1.7,2.5452,2.5452,0,0,1,5.9,3.1,2.2678,2.2678,0,0,0,4.4235,5.29,2.2563,2.2563,0,0,0,4.6,5.9Z"/></svg>