<svg id="Layer_1" data-name="Layer 1" xmlns="http://www.w3.org/2000/svg" viewBox="0 0 10 10"><defs><style>.cls-1{fill:#010101;}</style></defs><title>m-icon_copyt-alt</title><path class="cls-1" d="M8.1,1.6H6.8v.9a.43.43,0,0,1-.4.4H3.7a.43.43,0,0,1-.4-.4V1.6H2a.3663.3663,0,0,0-.4.4V9.3a.43.43,0,0,0,.4.4H6L8.5,7.2V2A.3663.3663,0,0,0,8.1,1.6ZM7,7.2H3.1a.2.2,0,1,1,0-.4H7a.2151.2151,0,0,1,.2.2S7.1,7.2,7,7.2ZM2.9,5.7a.2151.2151,0,0,1,.2-.2H5.7a.2.2,0,0,1,0,.4H3.1A.2151.2151,0,0,1,2.9,5.7ZM7,4.6H3.1c-.1,0-.2-.1-.2-.3a.2151.2151,0,0,1,.2-.2H7a.2151.2151,0,0,1,.2.2C7.2,4.5,7.1,4.6,7,4.6Z"/><path class="cls-1" d="M6.3.7h-1V.5A.2151.2151,0,0,0,5.1.3c-.1,0-.3,0-.3.2V.7h-1V2.4H6.4A9.702,9.702,0,0,1,6.3.7Z"/><path class="cls-1" d="M8.1,9.7a.43.43,0,0,0,.4-.4V7.9L6.6,9.7Z"/></svg>