<svg id="Layer_1" data-name="Layer 1" xmlns="http://www.w3.org/2000/svg" viewBox="0 0 10 10"><defs><style>.cls-1{fill:#010101;}</style></defs><title>m-icon_copy-alt-o</title><path class="cls-1" d="M2.6,7.1H4.3a.2.2,0,1,0,0-.4H2.6a.2151.2151,0,0,0-.2.2S2.5,7.1,2.6,7.1Z"/><path class="cls-1" d="M5.2,7.7H2.6a.2.2,0,0,0,0,.4H5.2a.2.2,0,1,0,0-.4Z"/><path class="cls-1" d="M7.1.3H3.7a.43.43,0,0,0-.4.4v.7a.2.2,0,1,0,.4,0V.7h3V2.2a.2151.2151,0,0,0,.2.2H8.4V7.1H7.6a.2.2,0,1,0,0,.4h.7a.43.43,0,0,0,.4-.4V2ZM7.1,2V.9L8.2,2Z"/><path class="cls-1" d="M1.6,2.4a.43.43,0,0,0-.4.4V9.2a.43.43,0,0,0,.4.4H6.3a.43.43,0,0,0,.4-.4V4.1L5,2.4ZM6.3,9.2H1.6V2.8h3V4.3a.2151.2151,0,0,0,.2.2H6.3ZM5,4.1v-1l1,1Z"/><path class="cls-1" d="M2.4,5.8a.2151.2151,0,0,0,.2.2H5.2a.2.2,0,0,0,0-.4H2.6A.2151.2151,0,0,0,2.4,5.8Z"/></svg>