<svg id="Layer_1" data-name="Layer 1" xmlns="http://www.w3.org/2000/svg" viewBox="0 0 10 10"><defs><style>.cls-1{fill:#010101;}</style></defs><title>m-icon_edit</title><g id="_704-compose-toolbar-selected_2x.png" data-name="704-compose-toolbar-selected@2x.png"><path class="cls-1" d="M9.3,1.9h0l-.2.2ZM7.8,4.1c-.1,0-.1,0-.1.1L4.9,6.9l-2.4.6L3,5.1,5.8,2.3l.1-.1c0-.1-.1-.2-.3-.2H.6c-.1,0-.4.2-.4.4V9.3a.43.43,0,0,0,.4.4H7.5A.4575.4575,0,0,0,8,9.3v-5A.2151.2151,0,0,0,7.8,4.1ZM9.6,1,9,.4a.375.375,0,0,0-.6,0L8.1.7,9.3,1.9l.3-.3A.375.375,0,0,0,9.6,1ZM7.7,1,3.4,5.4,3.1,6.9l1.5-.3L9,2.1v.1Z"/></g></svg>