<svg id="Layer_1" data-name="Layer 1" xmlns="http://www.w3.org/2000/svg" viewBox="0 0 10 10"><title>m-icon_box-plus</title><path d="M7.6953.1708H2.3785A2.143,2.143,0,0,0,.2371,2.3123V7.629A2.143,2.143,0,0,0,2.3785,9.77H7.6953A2.1429,2.1429,0,0,0,9.8367,7.629V2.3123A2.1429,2.1429,0,0,0,7.6953.1708ZM7.6,5.1777a.4723.4723,0,0,1-.5.4429H5.6v1.5a.4944.4944,0,0,1,0,.0571.4723.4723,0,0,1-.5.4429.4549.4549,0,0,1-.0572,0,.4723.4723,0,0,1-.4428-.5v-1.5H3.1a.4549.4549,0,0,1-.0572,0,.4723.4723,0,0,1-.4428-.5.491.491,0,0,1,0-.0569.4724.4724,0,0,1,.5-.4431H4.6v-1.5a.491.491,0,0,1,0-.0569.4724.4724,0,0,1,.5-.4431.45.45,0,0,1,.0569,0,.4724.4724,0,0,1,.4431.5v1.5H7.1a.5358.5358,0,0,1,.5.5A.4944.4944,0,0,1,7.6,5.1777Z"/></svg>