<svg id="Layer_1" data-name="Layer 1" xmlns="http://www.w3.org/2000/svg" viewBox="0 0 10 10"><title>m-icon_heart-o</title><path d="M7,.6a2.9731,2.9731,0,0,0-2,.8A2.7921,2.7921,0,0,0,3,.6,2.7951,2.7951,0,0,0,.2,3.4v.1c0,2.3,2.1,3.9,3.5,4.9a4.824,4.824,0,0,1,1.2.8l.1.1.1-.1a6.2927,6.2927,0,0,1,1.1-.8c1.4-1,3.5-2.5,3.5-4.9V3.4A2.7754,2.7754,0,0,0,7,.6ZM1,3.5V3.4a2.0059,2.0059,0,0,1,2-2A1.831,1.831,0,0,1,4.8,2.6l.2.3.1-.3A1.9755,1.9755,0,0,1,6.9,1.4a2.0059,2.0059,0,0,1,2,2v.1c0,2.1-2.2,3.6-3.4,4.4-.2.2-.4.3-.5.4a5.9226,5.9226,0,0,0-.6-.4C3.2,7.1,1,5.6,1,3.5Z"/></svg>