<svg id="Layer_1" data-name="Layer 1" xmlns="http://www.w3.org/2000/svg" viewBox="0 0 10 10"><title>m-icon_line-up</title><path d="M9,3.2H8.7L7,5.9a.7347.7347,0,0,1,.2.6.8963.8963,0,0,1-.9.9.7887.7887,0,0,1-.8-.8V6.4L4.4,5.9a.8418.8418,0,0,1-.7.4c-.2,0-.3-.1-.5-.2L1.9,7.3c0,.2.1.3.1.5a.8963.8963,0,0,1-.9.9.9866.9866,0,0,1-1-.9A.8963.8963,0,0,1,1,6.9c.2,0,.3.1.5.2L2.9,5.9c-.1-.3-.2-.4-.2-.6a.9.9,0,0,1,1.8,0v.2l1,.5a.9078.9078,0,0,1,.7-.3h.3L8.2,3A1.4453,1.4453,0,0,1,8,2.3a.8963.8963,0,0,1,.9-.9.9866.9866,0,0,1,1,.9A.8963.8963,0,0,1,9,3.2Z"/></svg>