<svg id="Layer_1" data-name="Layer 1" xmlns="http://www.w3.org/2000/svg" viewBox="0 0 10 10"><title>m-icon_send-o-01</title><path d="M9.5488.1348a.2412.2412,0,0,0-.17.0464L.3022,4.04A.4344.4344,0,0,0,.1338,4.35a.3472.3472,0,0,0,.2256.3218L3.897,6.1328,5.3594,9.6719a.3223.3223,0,0,0,.29.1963c.0113,0,.0225-.001.0342-.002a.3464.3464,0,0,0,.3208-.2246L9.8193.6211a.2287.2287,0,0,0,.0469-.16A.3266.3266,0,0,0,9.5488.1348ZM8.04,1.4878,4.0522,5.4746,1.3506,4.3467Zm.47.478L5.6548,8.6465,4.5542,5.9478Z"/></svg>