<svg width="10" height="10" viewBox="0 0 12 12" fill="none" xmlns="http://www.w3.org/2000/svg">
<path fill-rule="evenodd" clip-rule="evenodd" d="M0.686795 0.173994C0.757787 0.093622 0.853461 0.039102 0.958795 0.0189944C1.06679 -0.00200555 9.32979 -0.00400555 9.47579 0.0179944C9.6368 0.0409945 9.74679 0.110994 9.8068 0.228994C9.8468 0.306994 9.8538 0.343994 9.8538 0.484994C9.8538 0.606994 9.84579 0.665994 9.82179 0.708994C9.80479 0.740994 9.09379 1.64999 8.24179 2.72999L6.69179 4.69299L6.69052 5.27109C7.06013 5.09956 7.46499 5.00566 7.88 5C8.6406 5.01037 9.36713 5.31713 9.905 5.855C10.4429 6.39287 10.7496 7.1194 10.76 7.88C10.7496 8.6406 10.4429 9.36713 9.905 9.905C9.36713 10.4429 8.6406 10.7496 7.88 10.76C7.1194 10.7496 6.39287 10.4429 5.855 9.905C5.84207 9.89207 5.82928 9.87903 5.81662 9.86589C5.18508 10.208 4.36019 10.6394 4.2798 10.66C4.1198 10.702 4.01479 10.673 3.89479 10.553C3.83079 10.488 3.78779 10.424 3.76079 10.352L3.72179 10.247L3.72079 4.70199L2.16279 2.71299C0.947795 1.16299 0.595795 0.701994 0.565795 0.622994C0.502795 0.455994 0.538795 0.321994 0.686795 0.173994ZM5.707 6.01445C5.26113 6.53223 5.00938 7.19218 5 7.88C5.00554 8.28621 5.09561 8.68269 5.26028 9.04592L5.2228 9.06599C4.9588 9.20699 4.73679 9.32499 4.7288 9.32799C4.7198 9.33199 4.70979 8.25499 4.70679 6.93599C4.70166 4.6739 4.70678 4.47965 4.63071 4.32544C4.61786 4.2994 4.60271 4.27451 4.58479 4.24099C4.55279 4.18199 3.97779 3.43199 3.30679 2.57499L2.07779 1.00399C2.07279 0.995994 3.48079 0.989994 5.20579 0.989994C6.92979 0.989994 8.34179 0.994995 8.34179 1.00099C8.34179 1.00699 7.79479 1.70399 7.12679 2.54999C6.69114 3.09467 6.2631 3.64539 5.84279 4.20199C5.81965 4.2403 5.80054 4.26734 5.78475 4.2962C5.71323 4.42686 5.70971 4.59474 5.707 6.01445ZM6.67122 7.04856C6.68544 7.08998 6.70877 7.12814 6.74 7.16L7.46 7.88L6.74 8.6C6.71196 8.62748 6.68965 8.66024 6.67436 8.69639C6.65906 8.73254 6.65108 8.77137 6.65088 8.81062C6.65068 8.84988 6.65827 8.88878 6.6732 8.92509C6.68813 8.96139 6.71011 8.99438 6.73787 9.02213C6.76563 9.04989 6.79861 9.07187 6.83492 9.0868C6.87122 9.10173 6.91012 9.10932 6.94938 9.10912C6.98863 9.10892 7.02746 9.10094 7.06361 9.08564C7.09976 9.07035 7.13252 9.04804 7.16 9.02L7.88 8.3L8.6 9.02C8.62748 9.04804 8.66024 9.07035 8.69639 9.08564C8.73254 9.10094 8.77137 9.10892 8.81062 9.10912C8.84988 9.10932 8.88878 9.10173 8.92509 9.0868C8.96139 9.07187 8.99438 9.04989 9.02213 9.02213C9.04989 8.99438 9.07187 8.96139 9.0868 8.92509C9.10173 8.88878 9.10932 8.84988 9.10912 8.81062C9.10892 8.77137 9.10094 8.73254 9.08564 8.69639C9.07035 8.66024 9.04804 8.62748 9.02 8.6L8.3 7.88L9.02 7.16C9.04804 7.13252 9.07035 7.09976 9.08564 7.06361C9.10094 7.02746 9.10892 6.98863 9.10912 6.94938C9.10932 6.91012 9.10173 6.87122 9.0868 6.83492C9.07187 6.79861 9.04989 6.76563 9.02213 6.73787C8.99438 6.71011 8.96139 6.68813 8.92509 6.6732C8.88878 6.65827 8.84988 6.65068 8.81062 6.65088C8.77137 6.65108 8.73254 6.65906 8.69639 6.67436C8.66024 6.68965 8.62748 6.71196 8.6 6.74L7.88 7.46L7.16 6.74C7.10411 6.68523 7.02887 6.65473 6.95062 6.65513C6.87237 6.65552 6.79744 6.68678 6.74211 6.74211C6.71967 6.76456 6.70118 6.79023 6.68711 6.81804L6.68679 6.96199L6.67122 7.04856Z" fill="#6F7880"/>
</svg>
