<svg xmlns="http://www.w3.org/2000/svg" viewBox="0 0 10 10"><title>m-icon_box-plus-o</title><path d="M7.7.1206H2.4a2.22,2.22,0,0,0-2.2,2.2v5.3a2.22,2.22,0,0,0,2.2,2.2H7.7a2.22,2.22,0,0,0,2.2-2.2v-5.2A2.2425,2.2425,0,0,0,7.7.1206Zm1.5,7.6a1.538,1.538,0,0,1-1.5,1.5H2.4a1.538,1.538,0,0,1-1.5-1.5v-5.3a1.5379,1.5379,0,0,1,1.5-1.5H7.7a1.4152,1.4152,0,0,1,1.5,1.5Z"/><path d="M7.1,4.6206H5.6v-1.5a.4724.4724,0,0,0-.5-.5.4724.4724,0,0,0-.5.5v1.5H3.1a.4724.4724,0,0,0-.5.5.4723.4723,0,0,0,.5.5H4.6v1.5a.4723.4723,0,0,0,.5.5.4723.4723,0,0,0,.5-.5v-1.5H7.1a.4723.4723,0,0,0,.5-.5A.5357.5357,0,0,0,7.1,4.6206Z"/></svg>