<svg id="Layer_1" data-name="Layer 1" xmlns="http://www.w3.org/2000/svg" viewBox="0 0 10 10"><title>m-icon_move</title><path d="M9.9,4.9h0l-.1-.1L8.5,3.4a.3491.3491,0,0,0-.2-.1.3193.3193,0,0,0-.3.3c0,.1.0113.124.1.2l.8.8H5.3V1l.8.8a.3491.3491,0,0,0,.2.1.2652.2652,0,0,0,.3-.3.1962.1962,0,0,0-.1-.2L5.1.1h0A.1831.1831,0,0,0,4.95.0135c-.1,0-.1053.0316-.25.1865L3.4,1.5a.3491.3491,0,0,0-.1.2.2652.2652,0,0,0,.3.3c.1,0,.2,0,.2-.1l.8-.8V4.7H1l.8-.8a.3491.3491,0,0,0,.1-.2c0-.2-.0242-.2841-.218-.3028A.2888.2888,0,0,0,1.4,3.5L.1656,4.7516l-.0515.0546a.2492.2492,0,0,0-.1006.173c0,.1.0622.1045.1865.2208L1.5,6.5a.3491.3491,0,0,0,.2.1A.3193.3193,0,0,0,2,6.3a.1914.1914,0,0,0-.1-.2l-.8-.8H4.7V8.9l-.8-.8A.3491.3491,0,0,0,3.7,8a.2652.2652,0,0,0-.3.3c0,.1-.0035.0486.1.2L4.8,9.8s.1.1471.2.1471S5.1,9.9,5.2,9.8L6.5,8.5a.3491.3491,0,0,0,.1-.2A.2652.2652,0,0,0,6.3,8c-.1,0-.0519-.008-.2.1l-.8.8V5.3H8.9l-.8.8a.3491.3491,0,0,0-.1.2.2652.2652,0,0,0,.3.3.21.21,0,0,0,.2-.1L9.8,5.2c.1-.1.2-.2.1-.3Z"/></svg>