<svg id="Layer_1" data-name="Layer 1" xmlns="http://www.w3.org/2000/svg" viewBox="0 0 10 10"><defs><style>.cls-1{fill:#010101;}</style></defs><title>m-icon_lock-closed-o</title><g id="_744-locked-toolbar_2x.png" data-name="744-locked-toolbar@2x.png"><path class="cls-1" d="M7.9,3.7H7.5V2.6a2.4505,2.4505,0,0,0-4.9,0V3.7H2.2a.8168.8168,0,0,0-.9.8V8.9a.8963.8963,0,0,0,.9.9H7.9a.8963.8963,0,0,0,.9-.9V4.5A.8168.8168,0,0,0,7.9,3.7ZM3.1,2.6a2,2,0,0,1,4,0h0V3.7h-4ZM8.3,8.9a.5357.5357,0,0,1-.5.5H2.2a.5357.5357,0,0,1-.5-.5V4.5A.5357.5357,0,0,1,2.2,4H7.9a.5357.5357,0,0,1,.5.5V8.9ZM5,5.6a.6835.6835,0,0,0-.7.7.6338.6338,0,0,0,.5.6v.7a.2.2,0,0,0,.4,0V6.9c.2-.1.5-.3.5-.6A.6835.6835,0,0,0,5,5.6Z"/></g></svg>