<svg id="Layer_1" data-name="Layer 1" xmlns="http://www.w3.org/2000/svg" viewBox="0 0 10 10"><title>m-icon_shuffle</title><path d="M8.6919,3.32l-.2979.2979a.3128.3128,0,1,0,.4424.4424l.8323-.8323a.3025.3025,0,0,0,.0828-.2417.3026.3026,0,0,0-.0828-.2418l-.8323-.8323a.3128.3128,0,1,0-.4424.4424l.34.34H6.4755a.2943.2943,0,0,0-.25.1609c-.0065.0069-.0175.0056-.0234.0133L3.38,6.5077H.5173a.3187.3187,0,0,0,0,.6374H3.5364A.3012.3012,0,0,0,3.7828,7c.0036-.0041.01-.0032.0133-.0075L6.644,3.32Z"/><path d="M9.6931,6.6931l-.8323-.8324a.3128.3128,0,1,0-.4424.4424l.2979.2979H6.6684l-1.03-1.3277-.41.4921.998,1.2871c.0059.0077.0169.0064.0234.0134a.2944.2944,0,0,0,.25.1608H8.7581l-.34.34a.3128.3128,0,0,0,.4424.4424l.8323-.8323a.3942.3942,0,0,0,0-.4834Z"/><path d="M.5417,3.413h2.863l.9428,1.2158L4.72,4.0924,3.8205,2.9282c-.0034-.0044-.01-.0035-.0132-.0075a.3012.3012,0,0,0-.2465-.1451H.5417a.3187.3187,0,0,0,0,.6374Z"/></svg>