<svg id="Layer_1" data-name="Layer 1" xmlns="http://www.w3.org/2000/svg" viewBox="0 0 10 10"><defs><style>.cls-1{fill:#010101;}</style></defs><title>m-icon_share-alt</title><path d="M7.9,7a.572.572,0,0,0-.0387-.2782C7.8144,6.5937,7.7,6.6,7.6,6.6a.2652.2652,0,0,0-.3.3V8.2H.9V3.5H2.6c.3,0,.4-.1.4-.3a.2652.2652,0,0,0-.3-.3H.6c-.1,0-.2032.01-.2032.01C.27,2.9752.3,3.1.3,3.2V8.6a.2652.2652,0,0,0,.3.3h7c.2,0,.4-.1.4-.3Z"/><path class="cls-1" d="M9.7726,4.0452c0-.1.0019-.0416-.0726-.1452h0l-3-2.8h0A.3491.3491,0,0,0,6.5,1a.2151.2151,0,0,0-.2.2h0V2.7c-.9.2-4.4.6-4.4,3.8v.6S3,5.1,6.3,5V6.5h0c0,.1.0515.1849.1505.1709.107-.0151.0771-.0129.1495-.0709h0L9.514,4.2688,9.6,4.2C9.8,4.05,9.7726,4.0452,9.7726,4.0452Z"/></svg>