<svg id="Layer_1" data-name="Layer 1" xmlns="http://www.w3.org/2000/svg" viewBox="0 0 10 10"><title>m-icon_resize-shrink</title><path d="M1.5728,5.3043a.3962.3962,0,0,0-.3127.3041.3964.3964,0,0,0,.3041.3127l1.9718.1507L.2846,9.2342a.3752.3752,0,0,0-.0069.4934.3753.3753,0,0,0,.4934.0068L3.96,6.6328,3.8683,8.7905a.2655.2655,0,0,0,.2433.25.3961.3961,0,0,0,.3126-.3041L4.5887,5.778A.3047.3047,0,0,0,4.53,5.5921a.3208.3208,0,0,0-.245-.1268Z"/><path d="M8.2524,4.857a.3962.3962,0,0,0,.3127-.304A.3962.3962,0,0,0,8.261,4.24L6.2892,4.09,9.5406.9272A.3752.3752,0,0,0,9.5475.4338.3752.3752,0,0,0,9.0541.427L5.8652,3.5286l.0916-2.1577a.2653.2653,0,0,0-.2432-.25.3961.3961,0,0,0-.3127.3041L5.2365,4.3834a.3048.3048,0,0,0,.0591.1859.32.32,0,0,0,.245.1267Z"/></svg>