<svg id="Layer_1" data-name="Layer 1" xmlns="http://www.w3.org/2000/svg" viewBox="0 0 10 10"><defs><style>.cls-1{fill:#010101;}</style></defs><title>m-icon_tag</title><g id="_747-tag-toolbar-selected_2x.png" data-name="747-tag-toolbar-selected@2x.png"><path class="cls-1" d="M9.1.2H5.6a.52.52,0,0,0-.4.2L.4,5.1a.5505.5505,0,0,0-.2.5A.52.52,0,0,0,.4,6L3.9,9.5a.7581.7581,0,0,0,.4.2.52.52,0,0,0,.4-.2L9.5,4.7a.7581.7581,0,0,0,.2-.4V.8A.6452.6452,0,0,0,9.1.2ZM7.8,2.6a.43.43,0,0,1-.4-.4.4.4,0,1,1,.8,0A.43.43,0,0,1,7.8,2.6Z"/></g></svg>