<svg id="Layer_1" data-name="Layer 1" xmlns="http://www.w3.org/2000/svg" viewBox="0 0 10 10"><defs><style>.cls-1{fill:#010101;}</style></defs><title>m-icon_settings</title><g id="_740-gear-toolbar-selected_2x.png" data-name="740-gear-toolbar-selected@2x.png"><path class="cls-1" d="M9.7,4.3,8.7,4a3.5521,3.5521,0,0,0-.4-.9l.5-.9a.1875.1875,0,0,0,0-.3l-.6-.7a.1875.1875,0,0,0-.3,0l-1,.5c-.3-.1-.6-.3-.9-.4L5.7.3A.2151.2151,0,0,0,5.5.1H4.6a.2151.2151,0,0,0-.2.2l-.3,1a3.5521,3.5521,0,0,0-.9.4l-1-.5H1.9l-.6.6a.1875.1875,0,0,0,0,.3l.5.9a10.3748,10.3748,0,0,1-.4,1l-1,.3a.2151.2151,0,0,0-.2.2v.9a.2151.2151,0,0,0,.2.2l1,.3a3.5521,3.5521,0,0,0,.4.9l-.5.9a.3042.3042,0,0,0,0,.4l.6.6a.1875.1875,0,0,0,.3,0l.9-.5a3.5521,3.5521,0,0,0,.9.4l.3,1a.2151.2151,0,0,0,.2.2h.9a.2151.2151,0,0,0,.2-.2l.3-1a3.5521,3.5521,0,0,0,.9-.4l.9.5a.1875.1875,0,0,0,.3,0l.6-.6a.1875.1875,0,0,0,0-.3l-.3-1a3.5521,3.5521,0,0,0,.4-.9l1-.3a.2151.2151,0,0,0,.2-.2V4.5A.2151.2151,0,0,0,9.7,4.3ZM5,6.3A1.3237,1.3237,0,0,1,3.7,5,1.4152,1.4152,0,0,1,5,3.6,1.43,1.43,0,0,1,6.4,5,1.2879,1.2879,0,0,1,5,6.3Z"/></g></svg>