<svg id="Layer_1" data-name="Layer 1" xmlns="http://www.w3.org/2000/svg" viewBox="0 0 10 10"><defs><style>.cls-1{fill:#010101;}</style></defs><title>m-icon_list-bullet-alt</title><g id="_1100-list-2-toolbar-selected_2x.png" data-name="1100-list-2-toolbar-selected@2x.png"><path class="cls-1" d="M1,4.1A.9063.9063,0,0,0,1,5.9.9667.9667,0,0,0,1.9,5,.8963.8963,0,0,0,1,4.1ZM1,7.2a.8963.8963,0,0,0-.9.9A.9667.9667,0,0,0,1,9a.9667.9667,0,0,0,.9-.9A.8963.8963,0,0,0,1,7.2ZM3.7,2.8H9a.8963.8963,0,0,0,.9-.9A.9667.9667,0,0,0,9,1H3.7a.9.9,0,0,0,0,1.8ZM1,1a.8816.8816,0,0,0-.8.9.8816.8816,0,0,0,.8.9.9667.9667,0,0,0,.9-.9A.8963.8963,0,0,0,1,1ZM9,4.1H3.7a.9.9,0,1,0,0,1.8H9A.8963.8963,0,0,0,9.9,5,.9667.9667,0,0,0,9,4.1ZM9,7.2H3.7A.9.9,0,1,0,3.7,9H9a.8963.8963,0,0,0,.9-.9A1.0554,1.0554,0,0,0,9,7.2Z"/></g></svg>