<svg xmlns="http://www.w3.org/2000/svg" viewBox="0 0 10 10"><defs><style>.a{fill:#010101;}</style></defs><title>m-icon_alert-alt</title><path class="a" d="M5,.2A4.8668,4.8668,0,0,0,.2,5,4.8668,4.8668,0,0,0,5,9.8,4.8668,4.8668,0,0,0,9.8,5,4.8668,4.8668,0,0,0,5,.2Zm.0466,7.7369a.613.613,0,1,1,.6129-.613A.6129.6129,0,0,1,5.0466,7.9369Zm.3048-2.3157H5.35l.0011.0059a.3415.3415,0,0,1-.3415.3415.3257.3257,0,0,1-.3469-.3164L4.6611,5.63l-.003-.0087L4.3533,2.8148l-.001-.026a.6678.6678,0,0,1,1.3345,0Z"/></svg>