<svg id="Layer_1" data-name="Layer 1" xmlns="http://www.w3.org/2000/svg" viewBox="0 0 10 10"><title>m-icon_line-straight</title><path d="M9.1,4.1a.9605.9605,0,0,0-.9.7H7.3a.8559.8559,0,0,0-.9-.7.8746.8746,0,0,0-.9.6H4.6a.8746.8746,0,0,0-.9-.6,1.0875,1.0875,0,0,0-1,.7H1.8C1.7,4.3,1.4,4,1,4A1.0714,1.0714,0,0,0,0,5a.8963.8963,0,0,0,.9.9.9605.9605,0,0,0,.9-.7h.9a.9605.9605,0,0,0,.9.7.9605.9605,0,0,0,.9-.7h.9a.9286.9286,0,0,0,1.8,0h.9a.9605.9605,0,0,0,.9.7A.8963.8963,0,0,0,9.9,5,.8168.8168,0,0,0,9.1,4.1Z"/></svg>