<svg id="Layer_1" data-name="Layer 1" xmlns="http://www.w3.org/2000/svg" viewBox="0 0 10 10"><title>m-icon_graph-alt</title><path d="M5.2.4a.2.2,0,1,0-.4,0v.7h.4Z"/><path d="M9.3,1.5H.7A.4724.4724,0,0,0,.2,2V7.6A.4575.4575,0,0,0,.7,8H3.8L2.9,9.4v.1a.2151.2151,0,0,0,.2.2c.1,0,.1,0,.2-.1L4.3,8H5.8l1,1.6c0,.1.1.1.2.1a.2151.2151,0,0,0,.2-.2V9.4L6.3,8H9.4a.43.43,0,0,0,.4-.4V2A.4724.4724,0,0,0,9.3,1.5ZM8.4542,4.7006a.2074.2074,0,0,1-.4148,0V3.8879L6.1936,5.6l-.0287.0287a.1657.1657,0,0,1-.2337,0L4.4343,4.1321,1.9052,6.4785a.214.214,0,0,1-.2912-.3138L4.29,3.6823h0l.033-.0331a.1659.1659,0,0,1,.2337,0l1.497,1.497,1.68-1.5588H6.9262a.2074.2074,0,0,1,0-.4147H8.2468a.208.208,0,0,1,.2074.2074Z"/></svg>