<svg id="Layer_1" data-name="Layer 1" xmlns="http://www.w3.org/2000/svg" viewBox="0 0 10 10"><title>m-icon_edit-o</title><polygon points="4.4 6.2 3.8 6.2 3.8 5.6 8.1 1.3 7.8 1 3.4 5.4 3.1 6.9 4.6 6.6 9 2.2 8.7 1.9 4.4 6.2"/><path d="M9.6,1,9,.4a.375.375,0,0,0-.6,0L8.1.7,9.3,1.9l.3-.3A.375.375,0,0,0,9.6,1Z"/><path d="M7.5,4.5a.2652.2652,0,0,0-.3.3V8.9H1.1V2.8H5.2a.2652.2652,0,0,0,.3-.3.4464.4464,0,0,0-.3-.4H1a.6012.6012,0,0,0-.4.1c-.1.2-.2.3-.2.4V9a.5357.5357,0,0,0,.5.5H7.3A.4724.4724,0,0,0,7.8,9l.1-4.2C7.9,4.6,7.7,4.5,7.5,4.5Z"/></svg>