<svg id="Layer_1" data-name="Layer 1" xmlns="http://www.w3.org/2000/svg" viewBox="0 0 10 10"><defs><style>.cls-1{fill:#010101;}</style></defs><title>m-icon_search</title><g id="_708-search-toolbar-selected_2x.png" data-name="708-search-toolbar-selected@2x.png"><path class="cls-1" d="M9.7,9.5l-3-3A4.4735,4.4735,0,0,0,7.6,4,3.63,3.63,0,0,0,3.9.3,3.7,3.7,0,1,0,6.3,6.8l3,3a.2736.2736,0,0,0,.3763.0051A.25.25,0,0,0,9.7,9.5ZM3.9,7.2A3.1591,3.1591,0,0,1,.7,4,3.3293,3.3293,0,0,1,4,.7a3.25,3.25,0,1,1-.1,6.5Zm0-6.1A2.8828,2.8828,0,0,0,1.1,4,2.8,2.8,0,0,0,6.7,4,2.8183,2.8183,0,0,0,3.9,1.1Z"/></g></svg>