<svg xmlns="http://www.w3.org/2000/svg" viewBox="0 0 10 10"><title>m-icon_circle-angle-down-o</title><path d="M5,.3A4.7,4.7,0,1,0,9.7,5,4.6946,4.6946,0,0,0,5,.3ZM5,9A4,4,0,1,1,9,5,4.0118,4.0118,0,0,1,5,9Z"/><path d="M7.9355,4.0435a.4219.4219,0,0,0-.5556.0029L5.168,6.2578l-2.21-2.21A.3452.3452,0,0,0,2.7148,3.94H2.7065a.3441.3441,0,0,0-.24.0967l.0375.0473h0l-.0507-.0346a.4233.4233,0,0,0,0,.5537L4.87,7.0273l.0376.0391a.298.298,0,0,0,.2481.127l.0117-.001a.3456.3456,0,0,0,.2851-.16L7.9414,4.603A.4215.4215,0,0,0,7.9355,4.0435Z"/></svg>