<svg id="Layer_1" data-name="Layer 1" xmlns="http://www.w3.org/2000/svg" viewBox="0 0 10 10"><defs><style>.cls-1{fill:#010101;}</style></defs><title>m-icon_user-o</title><g id="_769-male-toolbar_2x.png" data-name="769-male-toolbar@2x.png"><path class="cls-1" d="M5,.3A4.7,4.7,0,1,0,9.7,5,4.6946,4.6946,0,0,0,5,.3ZM8,8A3.4536,3.4536,0,0,0,6.3,7c-.5-.4-.3-.9,0-1.5a.3674.3674,0,0,0,.1-.3,1.48,1.48,0,0,0,.2-1,2.2353,2.2353,0,0,0-.4-2c-.2-.4-.7-.4-1.3-.3a1.6781,1.6781,0,0,0-1.4.6,2.5378,2.5378,0,0,0-.1,1.9.7749.7749,0,0,0,.2.9c.1.1.8,1.1.2,1.7l-.2.1c-.7.4-1.2.6-1.6.9A4.07,4.07,0,0,1,.8,5,4.2253,4.2253,0,0,1,5,.8,4.2253,4.2253,0,0,1,9.2,5,4.07,4.07,0,0,1,8,8Z"/></g></svg>