<svg id="Layer_1" data-name="Layer 1" xmlns="http://www.w3.org/2000/svg" viewBox="0 0 10 10"><defs><style>.cls-1{fill:#010101;}</style></defs><title>m-icon_list-bullet-alt-o</title><g id="_1100-list-2-toolbar_2x.png" data-name="1100-list-2-toolbar@2x.png"><path class="cls-1" d="M3.7,2.8H9a.8963.8963,0,0,0,.9-.9A.9667.9667,0,0,0,9,1H3.7a.9.9,0,0,0,0,1.8Zm0-1.3H9a.5357.5357,0,0,1,.5.5c0,.3-.3.4-.5.4H3.7a.5357.5357,0,0,1-.5-.5C3.2,1.6,3.4,1.5,3.7,1.5ZM1,7.2a.8963.8963,0,0,0-.9.9A.9667.9667,0,0,0,1,9a.9667.9667,0,0,0,.9-.9A.8963.8963,0,0,0,1,7.2ZM1,8.5a.5.5,0,0,1,0-1,.5.5,0,0,1,0,1ZM1,4.1A.9063.9063,0,0,0,1,5.9.9667.9667,0,0,0,1.9,5,.8963.8963,0,0,0,1,4.1ZM1,5.5C.8,5.5.6,5.2.6,5a.5357.5357,0,0,1,.5-.5c.3,0,.4.3.4.5A.5357.5357,0,0,1,1,5.5ZM9,4.1H3.7a.9.9,0,1,0,0,1.8H9A.8963.8963,0,0,0,9.9,5,.9667.9667,0,0,0,9,4.1ZM9,5.5H3.7A.5357.5357,0,0,1,3.2,5a.5357.5357,0,0,1,.5-.5H9a.5357.5357,0,0,1,.5.5C9.4,5.2,9.2,5.5,9,5.5ZM9,7.2H3.7A.9.9,0,1,0,3.7,9H9a.8963.8963,0,0,0,.9-.9A1.0554,1.0554,0,0,0,9,7.2ZM9,8.5H3.7a.5.5,0,1,1,0-1H9a.5357.5357,0,0,1,.5.5C9.4,8.3,9.2,8.5,9,8.5ZM1,1a.8816.8816,0,0,0-.8.9.8816.8816,0,0,0,.8.9.9667.9667,0,0,0,.9-.9A.8963.8963,0,0,0,1,1ZM1,2.4a.5357.5357,0,0,1-.5-.5c0-.3.3-.4.5-.4a.5357.5357,0,0,1,.5.5C1.5,2.3,1.3,2.4,1,2.4Z"/></g></svg>