<svg id="Layer_1" data-name="Layer 1" xmlns="http://www.w3.org/2000/svg" viewBox="0 0 10 10"><defs><style>.cls-1{fill:#010101;}</style></defs><title>m-icon_bulb</title><path class="cls-1" d="M5.8,8.2H4.1a.3.3,0,0,0,0,.6H5.8a.3.3,0,1,0,0-.6Z"/><path class="cls-1" d="M5.437,9.0314H4.4022a.2806.2806,0,0,0-.2414.3c0,.2.12.3.2414.3H5.437c.1217,0,.2257-.1254.2257-.3254A.2536.2536,0,0,0,5.437,9.0314Z"/><path class="cls-1" d="M4.9.3A3.4826,3.4826,0,0,0,1.5,3.9,3.5435,3.5435,0,0,0,3.4,7.1v.6a.2151.2151,0,0,0,.2.2h1V4.3c-.1,0-.2243-.0992-.2243-.2992A.2837.2837,0,0,1,4.7,3.7h.5c.2,0,.3578.0422.3547.2844-.0038.2912-.13.3187-.2547.3078V7.9h1a.2151.2151,0,0,0,.2-.2V7.1A3.6179,3.6179,0,0,0,4.9.3Z"/></svg>