<svg id="Layer_1" data-name="Layer 1" xmlns="http://www.w3.org/2000/svg" viewBox="0 0 10 10"><defs><style>.cls-1{fill:#010101;}</style></defs><title>m-icon_list-bullet</title><g id="_854-list-toolbar_2x.png" data-name="854-list-toolbar@2x.png"><path class="cls-1" d="M.7,7.9a.5.5,0,0,0,0,1,.5.5,0,0,0,0-1Zm0-4.3A.4575.4575,0,0,0,.2,4a.5357.5357,0,0,0,.5.5A.4724.4724,0,0,0,1.2,4C1.2,3.7,1,3.6.7,3.6Zm0-1.5a.4724.4724,0,0,0,.5-.5c0-.3-.2-.4-.5-.4a.4724.4724,0,0,0-.5.5C.2,2,.4,2.1.7,2.1Zm0,3.6a.5.5,0,0,0,0,1,.5.5,0,1,0,0-1Z"/></g><path d="M9.4,5.8H2.2a.4.4,0,0,0,0,.8H9.3a.43.43,0,0,0,.4-.4C9.7,6,9.6,5.8,9.4,5.8Z"/><path d="M9.4,3.7H2.2c-.2,0-.4.1-.4.3a.43.43,0,0,0,.4.4H9.3A.43.43,0,0,0,9.7,4C9.8,3.8,9.6,3.7,9.4,3.7Z"/><path d="M2.2,2.1H9.3a.43.43,0,0,0,.4-.4c0-.2-.1-.4-.3-.4H2.2a.43.43,0,0,0-.4.4A.43.43,0,0,0,2.2,2.1Z"/><path d="M9.4,7.9H2.2a.4.4,0,1,0,0,.8H9.3a.43.43,0,0,0,.4-.4C9.7,8.1,9.6,7.9,9.4,7.9Z"/></svg>