<svg id="Layer_1" data-name="Layer 1" xmlns="http://www.w3.org/2000/svg" viewBox="0 0 10 10"><title>m-icon_refresh</title><path d="M9.9,5a.3193.3193,0,0,0-.3-.3c-.2,0-.4.1-.4.3A4.2253,4.2253,0,0,1,5,9.2,4.0674,4.0674,0,0,1,1.5,7.3H3.1A.2652.2652,0,0,0,3.4,7c0-.2-.1-.4-.3-.4H.9a.2652.2652,0,0,0-.3.3V9.1a.2652.2652,0,0,0,.3.3.2652.2652,0,0,0,.3-.3v-1A5.1044,5.1044,0,0,0,5,9.9,4.908,4.908,0,0,0,9.9,5Z"/><path d="M.8,5A4.2253,4.2253,0,0,1,5,.8,4.0674,4.0674,0,0,1,8.5,2.7H7a.2652.2652,0,0,0-.3.3c0,.2.1.4.3.4H9.2a.2652.2652,0,0,0,.3-.3V.9A.2652.2652,0,0,0,9.2.6c-.2,0-.4.1-.4.3v1A5.1044,5.1044,0,0,0,5,.1,4.908,4.908,0,0,0,.1,5a.2652.2652,0,0,0,.3.3C.7,5.3.8,5.2.8,5Z"/></svg>