<svg id="Layer_1" data-name="Layer 1" xmlns="http://www.w3.org/2000/svg" viewBox="0 0 10 10"><title>m-icon_move-alt</title><path d="M1.7,3.5c-.1,0-.1,0-.2.1L.2,4.8A.3491.3491,0,0,0,.1,5c0,.1,0,.1.1.2L1.5,6.5a.3491.3491,0,0,0,.2.1.2151.2151,0,0,0,.2-.2V3.7A.2151.2151,0,0,0,1.7,3.5Z"/><path d="M5.2.2A.3491.3491,0,0,0,5,.1c-.1,0-.1,0-.2.1L3.5,1.6a.3491.3491,0,0,0-.1.2.2151.2151,0,0,0,.2.2H6.2a.2151.2151,0,0,0,.2-.2c0-.1,0-.1-.1-.2Z"/><path d="M6.3,8.1H3.7a.2151.2151,0,0,0-.2.2c0,.1,0,.1.1.2L4.9,9.8a.3491.3491,0,0,0,.2.1c.1,0,.1,0,.2-.1L6.6,8.5a.3491.3491,0,0,0,.1-.2C6.5,8.2,6.4,8.1,6.3,8.1Z"/><path d="M9.8,4.8,8.4,3.5a.3491.3491,0,0,0-.2-.1.2151.2151,0,0,0-.2.2V6.2a.2151.2151,0,0,0,.2.2c.1,0,.1,0,.2-.1L9.7,5a.3491.3491,0,0,0,.1-.2Z"/></svg>