<svg id="Layer_1" data-name="Layer 1" xmlns="http://www.w3.org/2000/svg" viewBox="0 0 10 10"><title>m-icon_list</title><path d="M.6,2H9.5a.43.43,0,0,0,.4-.4.4575.4575,0,0,0-.5-.4H.6a.43.43,0,0,0-.4.4A.3663.3663,0,0,0,.6,2Z"/><path d="M9.4,8H.6a.3663.3663,0,0,0-.4.4.43.43,0,0,0,.4.4H9.5a.43.43,0,0,0,.4-.4A.4575.4575,0,0,0,9.4,8Z"/><path d="M9.4,5.8H.6a.3663.3663,0,0,0-.4.4.43.43,0,0,0,.4.4H9.5a.43.43,0,0,0,.4-.4C9.8,6,9.7,5.8,9.4,5.8Z"/><path d="M9.4,3.6H.6A.3663.3663,0,0,0,.2,4a.43.43,0,0,0,.4.4H9.5A.43.43,0,0,0,9.9,4C9.8,3.8,9.7,3.6,9.4,3.6Z"/></svg>