<svg id="Layer_1" data-name="Layer 1" xmlns="http://www.w3.org/2000/svg" viewBox="0 0 10 10"><title>m-icon_export</title><path d="M2.098,5a.43.43,0,0,1,.4-.4h4.2V2a.43.43,0,0,0-.4-.4H.698a.3663.3663,0,0,0-.4.4V8a.43.43,0,0,0,.4.4h5.6a.43.43,0,0,0,.4-.4V5.4h-4.2A.43.43,0,0,1,2.098,5Z"/><path d="M9.7033,4.7035l-1.39-1.39a.4078.4078,0,0,0-.5767.5767l.7225.7225L6.698,4.6a2.538,2.538,0,0,1,0,.4c0,.213.04.4187-.0357.4059l1.7968-.0187L7.7366,6.11a.4078.4078,0,0,0,.5767.5767l1.39-1.39a.4331.4331,0,0,0,0-.593Z"/></svg>