<svg id="Layer_1" data-name="Layer 1" xmlns="http://www.w3.org/2000/svg" viewBox="0 0 10 10"><title>m-icon_help</title><path d="M5,.3A4.7,4.7,0,1,0,9.7,5,4.7,4.7,0,0,0,5,.3Zm.2891,7.5223a.5283.5283,0,1,1-.7471-.7471.5283.5283,0,0,1,.7471.7471ZM6.3457,4.3584a3.0169,3.0169,0,0,1-.6118.708,1.1752,1.1752,0,0,0-.4566.8125v.333H4.55V5.8486a1.2183,1.2183,0,0,1,.1274-.5654,2.3178,2.3178,0,0,1,.4878-.58,3.3106,3.3106,0,0,0,.4878-.5263.7871.7871,0,0,0,.128-.4414.7452.7452,0,0,0-.2325-.5772.893.893,0,0,0-.6269-.2129.92.92,0,0,0-.9136.7432L3.3423,3.41a1.7739,1.7739,0,0,1,.6035-.8282,1.5668,1.5668,0,0,1,.9756-.3174,1.6063,1.6063,0,0,1,1.1411.4141,1.3777,1.3777,0,0,1,.4453,1.0567A1.284,1.284,0,0,1,6.3457,4.3584Z"/></svg>