<svg id="Layer_1" data-name="Layer 1" xmlns="http://www.w3.org/2000/svg" viewBox="0 0 10 10"><title>m-icon_box-x-o</title><path d="M7.7.1H2.3A2.22,2.22,0,0,0,.1,2.3V7.6A2.22,2.22,0,0,0,2.3,9.8H7.6A2.22,2.22,0,0,0,9.8,7.6V2.3A2.0747,2.0747,0,0,0,7.7.1ZM9.2,2.3V7.6A1.58,1.58,0,0,1,7.6,9.2H2.3A1.58,1.58,0,0,1,.7,7.6V2.3A1.58,1.58,0,0,1,2.3.7H7.6A1.7181,1.7181,0,0,1,9.2,2.3Z"/><path d="M6.9,2.9a.4833.4833,0,0,0-.7,0L5,4.1,3.8,2.9a.495.495,0,0,0-.7.7L4.3,4.8,3.1,6a.495.495,0,0,0,.7.7L5,5.5,6.2,6.7A.495.495,0,0,0,6.9,6L5.7,4.8,6.9,3.6C7.1,3.5,7.1,3.1,6.9,2.9Z"/></svg>