<svg id="Layer_1" data-name="Layer 1" xmlns="http://www.w3.org/2000/svg" viewBox="0 0 10 10"><title>m-icon_line-down-o</title><path d="M.1,2.08a.9506.9506,0,0,0,.95.95.9074.9074,0,0,0,.19-.0385L2.9293,5.705a.9246.9246,0,0,0-.18.5252.95.95,0,0,0,1.9,0,.89.89,0,0,0-.0191-.0946l.9646-.482a.9375.9375,0,0,0,.7038.3264.9248.9248,0,0,0,.5162-.1736L8.0927,7.0835A.9342.9342,0,0,0,8,7.48a.95.95,0,1,0,.95-.95.9224.9224,0,0,0-.4557.133L7.1845,5.3538A.932.932,0,0,0,7.25,5.03a.95.95,0,0,0-1.9,0,.8679.8679,0,0,0,.0179.088L4.4,5.6015A.9391.9391,0,0,0,3.6994,5.28a.9281.9281,0,0,0-.3111.063L1.7493,2.71A.9386.9386,0,0,0,2,2.08a.95.95,0,1,0-1.9,0Zm8.38,5.4a.47.47,0,1,1,.47.47A.4706.4706,0,0,1,8.48,7.48ZM5.83,5.03a.47.47,0,1,1,.47.47A.4707.4707,0,0,1,5.83,5.03Zm-2.6,1.2a.47.47,0,1,1,.47.47A.4706.4706,0,0,1,3.23,6.23ZM.58,2.08a.47.47,0,1,1,.47.47A.4707.4707,0,0,1,.58,2.08Z"/></svg>