<svg id="Layer_1" data-name="Layer 1" xmlns="http://www.w3.org/2000/svg" viewBox="0 0 10 10"><title>m-icon_move-alt-o</title><path d="M6.2687,1.8545H3.7813a.2614.2614,0,0,1-.18-.4507L4.8448.2183a.26.26,0,0,1,.36,0l1.2431,1.186a.261.261,0,0,1-.18.45Zm-2.1407-.4H5.9215L5.025.5991Z"/><path d="M1.9544,3.7313V6.2187a.2614.2614,0,0,1-.4507.18L.3181,5.1552a.26.26,0,0,1,0-.36L1.5042,3.5517a.261.261,0,0,1,.45.18Zm-.4,2.1407V4.0785L.699,4.975Z"/><path d="M8.0456,6.2187V3.7313a.2614.2614,0,0,1,.4507-.18L9.6819,4.7948a.26.26,0,0,1,0,.36L8.4958,6.3983a.261.261,0,0,1-.45-.18Zm.4-2.1407V5.8715l.855-.8965Z"/><path d="M3.7813,8.1H6.2687a.2614.2614,0,0,1,.18.4507L5.2052,9.7362a.26.26,0,0,1-.36,0L3.6017,8.55a.261.261,0,0,1,.18-.45Zm2.1407.4H4.1285l.8965.855Z"/></svg>