<svg id="Layer_1" data-name="Layer 1" xmlns="http://www.w3.org/2000/svg" viewBox="0 0 10 10"><defs><style>.cls-1{fill:#010101;}</style></defs><title>m-icon_settings-o</title><g id="_740-gear-toolbar_2x.png" data-name="740-gear-toolbar@2x.png"><path class="cls-1" d="M9.6,4.3,8.6,4a3.5521,3.5521,0,0,0-.4-.9l.5-.9a.1875.1875,0,0,0,0-.3l-.6-.7H7.8l-.9.6A3.5521,3.5521,0,0,0,6,1.4L5.7.4A.2151.2151,0,0,0,5.5.2H4.6a.2151.2151,0,0,0-.2.2l-.3,1a3.5521,3.5521,0,0,0-.9.4l-1-.5c0-.1-.2-.1-.3,0l-.6.6v.3l.5.9L1.5,4l-1,.3a.2151.2151,0,0,0-.2.2v.9a.2151.2151,0,0,0,.2.2l1,.3a3.5521,3.5521,0,0,0,.4.9l-.6.9V8l.7.7a.1875.1875,0,0,0,.3,0l.9-.5c.3.1.6.3.9.4l.3,1a.2151.2151,0,0,0,.2.2h.9a.2151.2151,0,0,0,.2-.2l.3-1a3.5521,3.5521,0,0,0,.9-.4l.9.5a.1875.1875,0,0,0,.3,0L8.8,8a.1875.1875,0,0,0,0-.3l-.6-.9c.1-.3.3-.6.4-.9l1-.3a.2151.2151,0,0,0,.2-.2V4.5A.2151.2151,0,0,0,9.6,4.3Zm-.2,1-1.2.3a2.8426,2.8426,0,0,1-.4,1.2l.6,1-.5.5-1-.6a6.1171,6.1171,0,0,1-1.2.5L5.3,9.3H4.7L4.4,8.1a2.8426,2.8426,0,0,1-1.2-.4l-1,.6-.5-.5.6-1a6.1171,6.1171,0,0,1-.5-1.2L.7,5.3V4.7l1.2-.3a3.08,3.08,0,0,1,.5-1.2L1.7,2.1l.4-.4,1,.6a4.2839,4.2839,0,0,1,1.3-.5L4.8.6h.6l.3,1.1a3.6966,3.6966,0,0,1,1.1.5l1.1-.6.4.4L7.7,3a2.6649,2.6649,0,0,1,.5,1.3l1.2.3v.7ZM5,3.2A1.774,1.774,0,0,0,3.3,5,1.6855,1.6855,0,0,0,5,6.7,1.8445,1.8445,0,0,0,6.8,5,1.8591,1.8591,0,0,0,5,3.2ZM5,6.3A1.3237,1.3237,0,0,1,3.7,5,1.4152,1.4152,0,0,1,5,3.6,1.43,1.43,0,0,1,6.4,5,1.2879,1.2879,0,0,1,5,6.3Z"/></g></svg>