<svg id="Layer_1" data-name="Layer 1" xmlns="http://www.w3.org/2000/svg" viewBox="0 0 10 10"><title>m-icon_flag</title><path d="M8.702.9a3.4432,3.4432,0,0,1-1.8.4,5.8686,5.8686,0,0,1-2-.5C4.7527.7331,4.5939.6942,4.44.64A3.6834,3.6834,0,0,0,2.981.3c-.0216,0-.0365.0032-.0575.0034L2.902.3c-1.6,0-1.7.7-1.7.8V9.7h.7245L1.9227,5.8243c.028-.0823.2723-.2964,1.0583-.2964a3.1813,3.1813,0,0,1,1.3344.3765c.0887.04.1762.0794.257.1142a4.3678,4.3678,0,0,0,2.1113.5984c.1549,0,.3015-.007.4408-.0186a3.4317,3.4317,0,0,0,1.7222-.4943L9.002,6V.7Z"/></svg>