<svg width="10" height="10" viewBox="0 0 10 10" fill="none" xmlns="http://www.w3.org/2000/svg"><path d="M.959.019a.484.484 0 0 0-.272.155C.539.322.503.456.566.623c.03.079.382.54 1.597 2.09l1.558 1.989v2.773l.001 2.772.039.105c.027.072.07.136.134.201.12.12.225.149.385.107.129-.033 2.175-1.124 2.263-1.206a.563.563 0 0 0 .101-.141l.039-.082.004-2.269.005-2.269 1.55-1.963C9.094 1.65 9.805.741 9.822.709c.024-.043.032-.102.032-.224 0-.141-.007-.178-.047-.256-.06-.118-.17-.188-.331-.211C9.33-.004 1.067-.002.959.019m7.383.982c0 .006-.547.703-1.215 1.549a75.089 75.089 0 0 0-1.284 1.652c-.142.235-.132.046-.137 2.453L5.701 8.81l-.478.256c-.264.141-.486.259-.494.262-.009.004-.019-1.073-.022-2.392-.006-2.644.002-2.463-.122-2.695-.032-.059-.607-.809-1.278-1.666L2.078 1.004C2.073.996 3.481.99 5.206.99c1.724 0 3.136.005 3.136.011" fill-rule="evenodd" fill="#000"/></svg>
