<svg id="Layer_1" data-name="Layer 1" xmlns="http://www.w3.org/2000/svg" viewBox="0 0 10 10"><title>m-icon_line-up-o</title><path d="M8.95,1.7029A.9514.9514,0,0,0,8,2.6531a.9386.9386,0,0,0,.251.63L6.6117,5.9159A.8866.8866,0,0,0,5.6,6.1744l-.9672-.4833a.8679.8679,0,0,0,.0179-.088.95.95,0,0,0-1.9005,0,.932.932,0,0,0,.0656.3236L1.5063,7.2359a.9224.9224,0,0,0-.4557-.133.95.95,0,1,0,.95.95.9346.9346,0,0,0-.093-.3967L3.1844,6.3793a.924.924,0,0,0,.5162.1736.9375.9375,0,0,0,.7038-.3264l.9646.482a.89.89,0,0,0-.0191.0946.95.95,0,0,0,1.9,0,.9249.9249,0,0,0-.18-.5252L8.76,3.5644a.9074.9074,0,0,0,.19.0385.95.95,0,0,0,0-1.9Zm-7.9,6.82a.47.47,0,1,1,.47-.47A.4705.4705,0,0,1,1.0506,8.5229Zm2.65-2.45a.47.47,0,1,1,.47-.47A.4705.4705,0,0,1,3.7006,6.0729Zm2.6,1.2a.47.47,0,1,1,.47-.47A.4705.4705,0,0,1,6.3006,7.2729Zm2.65-4.15a.47.47,0,1,1,.47-.47A.47.47,0,0,1,8.95,3.1228Z"/></svg>