<svg id="Layer_1" data-name="Layer 1" xmlns="http://www.w3.org/2000/svg" viewBox="0 0 32 32"><title>m-icon_salesforce-o</title><path id="_Path_" data-name="&lt;Path&gt;" d="M9.8,18.2v.2a.7581.7581,0,0,0,.4.2,3.7191,3.7191,0,0,0,2,.5c1.4,0,2.3-.7,2.3-1.9h0c0-1.1-1-1.5-1.9-1.8h-.1c-.7-.2-1.3-.4-1.3-.9h0c0-.4.3-.7.9-.7a3.7426,3.7426,0,0,1,1.8.5.1385.1385,0,0,0,.2,0c0-.1.3-.7.3-.8s0-.1-.1-.2a3.9386,3.9386,0,0,0-2-.5h-.1A1.9845,1.9845,0,0,0,10,14.7h0c0,1.2,1,1.5,1.9,1.8H12c.7.2,1.2.4,1.2.9h0a.915.915,0,0,1-1,.8,3.397,3.397,0,0,1-1.8-.5.31.31,0,0,0-.2-.1s-.1-.1-.2.1Z"/><path id="_Path_2" data-name="&lt;Path&gt;" d="M19.8,10.8c-.1,0-.2-.1-.4-.1h-.5a2.3522,2.3522,0,0,0-1.7.6,2.9082,2.9082,0,0,0-.74,1.7726L16.4,13.4h-.9a.0979.0979,0,0,0-.1.1l-.1.8c0,.1,0,.1.1.1h.9l-.9,4.9c-.1.4-.1.7-.2,1l-.3.6a1.38,1.38,0,0,1-.4.3,4.3311,4.3311,0,0,1-.5.1h-.3c-.1,0-.1,0-.2-.1a.0979.0979,0,0,0-.1.1c0,.1-.3.7-.3.8s0,.1.1.2c.1,0,.2.1.4.1a1.2683,1.2683,0,0,0,.6.1c.4,0,.7-.1,1-.1a1.7937,1.7937,0,0,0,.7-.5,2.6219,2.6219,0,0,0,.5-.9,4.9613,4.9613,0,0,0,.3-1.3l.9-5h1.3a.0979.0979,0,0,0,.1-.1l.1-.8c0-.1,0-.1-.1-.1H17.7s.1-.5.2-.9a1.38,1.38,0,0,1,.3-.4c.1-.1.2-.2.3-.2s.3-.1.4-.1h.5c.1,0,.1,0,.2-.1l.21-.82a1.7956,1.7956,0,0,0-.01-.38"/><path d="M12.4,27.5a5.71,5.71,0,0,1-5.3-3.4H6.5a5.5177,5.5177,0,0,1-3.2-10,6.4477,6.4477,0,0,1-.3-2A6.2738,6.2738,0,0,1,9.3,5.8a6.1272,6.1272,0,0,1,4.6,2,5.4051,5.4051,0,0,1,3.7-1.3A6.0621,6.0621,0,0,1,22.4,9a5.867,5.867,0,0,1,2.3-.4,7.0007,7.0007,0,0,1,0,14,2.7686,2.7686,0,0,1-.9-.1,5.3593,5.3593,0,0,1-4.3,2.3,4.6712,4.6712,0,0,1-1.7-.3A6.8485,6.8485,0,0,1,12.4,27.5ZM7.8,22.7l.2.5a4.7145,4.7145,0,0,0,8.7.2l.3-.6.6.3a3.2868,3.2868,0,0,0,1.7.4,4.16,4.16,0,0,0,3.5-2l.2-.4.4.1a4.102,4.102,0,0,0,1.1.1,5.7626,5.7626,0,0,0,5.7-5.7,5.6973,5.6973,0,0,0-5.7-5.7,5.932,5.932,0,0,0-2.3.5l-.5.2-.3-.6a4.4744,4.4744,0,0,0-4-2.4A4.7056,4.7056,0,0,0,14.1,9l-.5.5L13.2,9a4.9266,4.9266,0,0,0-4-2,5.1215,5.1215,0,0,0-5.1,5.1,4.4771,4.4771,0,0,0,.4,2l.2.5-.5.3a4.364,4.364,0,0,0-2.1,3.7,4.2682,4.2682,0,0,0,4.3,4.3,2.7686,2.7686,0,0,0,.9-.1Z"/></svg>