<svg id="Layer_1" data-name="Layer 1" xmlns="http://www.w3.org/2000/svg" viewBox="0 0 10 10"><defs><style>.cls-1{fill:#010101;}</style></defs><title>m-icon_list-alt-o</title><g id="_1099-list-1-toolbar_2x.png" data-name="1099-list-1-toolbar@2x.png"><path class="cls-1" d="M1,2.8H9a.8963.8963,0,0,0,.9-.9A.9667.9667,0,0,0,9,1H1a.8816.8816,0,0,0-.8.9A.8816.8816,0,0,0,1,2.8ZM1,1.5H9a.5357.5357,0,0,1,.5.5c0,.3-.3.4-.5.4H1a.5357.5357,0,0,1-.5-.5C.5,1.6.8,1.5,1,1.5ZM9,7.2H1a.8963.8963,0,0,0-.9.9A.9667.9667,0,0,0,1,9H9a.8963.8963,0,0,0,.9-.9A.9667.9667,0,0,0,9,7.2ZM9,8.5H1a.5.5,0,0,1,0-1H9a.5357.5357,0,0,1,.5.5C9.4,8.3,9.2,8.5,9,8.5ZM9,4.1H1A.9063.9063,0,0,0,1,5.9H9A.8963.8963,0,0,0,9.9,5,.9667.9667,0,0,0,9,4.1ZM9,5.5H1C.8,5.5.6,5.2.6,5a.5357.5357,0,0,1,.5-.5H9a.5357.5357,0,0,1,.5.5C9.4,5.2,9.2,5.5,9,5.5Z"/></g></svg>