<svg id="Layer_1" data-name="Layer 1" xmlns="http://www.w3.org/2000/svg" viewBox="0 0 10 10"><title>m-icon_graph-alt-o</title><path d="M5.2.5a.2.2,0,0,0-.4,0v.7h.4Z"/><path d="M9.3,1.6H.7A.3663.3663,0,0,0,.3,2V7.6A.43.43,0,0,0,.7,8h3L2.9,9.4v.1a.2151.2151,0,0,0,.2.2c.1,0,.1,0,.2-.1L4.3,8H5.8l1,1.6c0,.1.1.1.2.1a.2151.2151,0,0,0,.2-.2V9.4L6.2,8h3a.43.43,0,0,0,.4-.4V2C9.7,1.7,9.5,1.6,9.3,1.6Zm0,6H.7V2H9.3Z"/><path d="M1.9052,6.4785,4.4343,4.1321,5.9312,5.629a.1657.1657,0,0,0,.2337,0L6.1936,5.6,8.0394,3.8879v.8127a.2074.2074,0,0,0,.4148,0V3.38a.208.208,0,0,0-.2074-.2074H6.9262a.2074.2074,0,0,0,0,.4147H7.734l-1.68,1.5588-1.497-1.497a.1659.1659,0,0,0-.2337,0l-.033.0331h0L1.614,6.1647a.214.214,0,0,0,.2912.3138Z"/></svg>