<svg id="Layer_1" data-name="Layer 1" xmlns="http://www.w3.org/2000/svg" viewBox="0 0 10 10"><defs><style>.cls-1{fill:#010101;}</style></defs><title>m-icon_lock-closed</title><g id="_744-locked-toolbar-selected_2x.png" data-name="744-locked-toolbar-selected@2x.png"><path class="cls-1" d="M7.9,3.7H7.4V2.6A2.4334,2.4334,0,0,0,5,.2,2.4334,2.4334,0,0,0,2.6,2.6V3.7H2.2a.8963.8963,0,0,0-.9.9V9a.8963.8963,0,0,0,.9.9H7.9A.8963.8963,0,0,0,8.8,9V4.5A1.0629,1.0629,0,0,0,7.9,3.7ZM5.2,6.9v.7a.2.2,0,0,1-.4,0V6.9a.6752.6752,0,0,1-.4-.6A.6452.6452,0,0,1,5,5.7c.3,0,.7.3.7.6A.6338.6338,0,0,1,5.2,6.9ZM7,3.7H3.1V2.6a2,2,0,0,1,4,0h0V3.7Z"/></g></svg>