<svg id="Layer_1" data-name="Layer 1" xmlns="http://www.w3.org/2000/svg" viewBox="0 0 10 10"><defs><style>.cls-1{fill:#010101;}</style></defs><title>m-icon_pencil-o</title><g id="_830-pencil-toolbar_2x.png" data-name="830-pencil-toolbar@2x.png"><path class="cls-1" d="M9.8,2.4h0L7.6.2h0A.3491.3491,0,0,0,7.4.1c-.1,0-.1,0-.2.1L1.1,6.4s.0135-.0138-.1.1H1L.2,9.6h0v.1a.2151.2151,0,0,0,.2.2H.5l3-.9h0s.0453-.0105.1-.1L9.8,2.7s.0011-.0129.11-.122C9.9743,2.5139,9.8915,2.5171,9.8,2.4ZM3.2,8.6.7,9.3l.7-2.5h.7v.9h0a.2151.2151,0,0,0,.2.2h.9Zm.5-.4V7.6h0a.2151.2151,0,0,0-.2-.2H2.6V6.5h0a.2151.2151,0,0,0-.2-.2H1.8L6.1,2,8,3.9ZM8.3,3.6,6.4,1.7l1-1L9.3,2.6Z"/></g></svg>