<svg id="Layer_1" data-name="Layer 1" xmlns="http://www.w3.org/2000/svg" viewBox="0 0 10 10"><title>m-icon_zoom-out-o</title><path d="M9.7705,9.33,6.835,6.3936A4.0429,4.0429,0,0,0,7.6992,4,3.755,3.755,0,0,0,4,.2,3.8,3.8,0,1,0,4,7.8a4.0476,4.0476,0,0,0,2.3936-.8652L9.3291,9.87A.3122.3122,0,0,0,9.56,9.954a.2629.2629,0,0,0,.21-.0839l.0816-.0766A.3369.3369,0,0,0,9.7705,9.33ZM7.1006,4A3.1556,3.1556,0,0,1,3.9,7.1006,3.1038,3.1038,0,0,1,.8,4,3.0668,3.0668,0,0,1,3.9.9,3.1552,3.1552,0,0,1,7.1006,4Z"/><path d="M5.3745,3.4629H2.5255A.5575.5575,0,0,0,1.9513,4a.5575.5575,0,0,0,.5742.5371h2.849A.5575.5575,0,0,0,5.9487,4,.5575.5575,0,0,0,5.3745,3.4629Z"/></svg>