<svg id="Layer_1" data-name="Layer 1" xmlns="http://www.w3.org/2000/svg" viewBox="0 0 10 10"><title>m-icon_alert-o</title><path d="M5,2.7a.6452.6452,0,0,0-.6.6h0l.3,2.8h0a.3193.3193,0,0,0,.3.3H5a.3193.3193,0,0,0,.3-.3h0l.3-2.8C5.7,3,5.4,2.7,5,2.7Z"/><path d="M5,7.1a.6452.6452,0,0,0-.6.6.6452.6452,0,0,0,.6.6.6452.6452,0,0,0,.6-.6h0C5.7,7.3,5.4,7.1,5,7.1Z"/><path d="M9.7,8.1l-4-7A.8511.8511,0,0,0,4.6.8l-.3.3-4,7a.714.714,0,0,0,.3,1c.1.1.2.1.4.1H9a.86.86,0,0,0,.8-.8A.3674.3674,0,0,0,9.7,8.1Zm-.5.4-.1.1H1c-.1,0-.1,0-.1-.1V8.4l4-7a.1875.1875,0,0,1,.3,0l4,7Z"/></svg>