<svg xmlns="http://www.w3.org/2000/svg" viewBox="0 0 10 10"><defs><style>.a{fill:#010101;}</style></defs><title>m-icon_chat</title><path class="a" d="M9.8,5.3A2.4666,2.4666,0,0,0,7.2,3,2.4666,2.4666,0,0,0,4.6,5.3,2.4666,2.4666,0,0,0,7.2,7.6h.3A3.19,3.19,0,0,1,8.8,8.9a6.2719,6.2719,0,0,0,.1-1.8A2.6156,2.6156,0,0,0,9.8,5.3ZM6.4,2.7A3.1281,3.1281,0,0,0,3.5,1.1,3.059,3.059,0,0,0,.2,3.9a3.0807,3.0807,0,0,0,.9,2,5.1223,5.1223,0,0,0,.2,1.9A2.7185,2.7185,0,0,1,2.5,6.6a3.5949,3.5949,0,0,0,1.1.2c.4,0,.7-.1,1-.1a2.5,2.5,0,0,1-.4-1.4A2.5749,2.5749,0,0,1,6.4,2.7Z"/></svg>