<svg id="Layer_1" data-name="Layer 1" xmlns="http://www.w3.org/2000/svg" viewBox="0 0 10 10"><defs><style>.cls-1{fill:#010101;}</style></defs><title>m-icon_light-on</title><g id="_941-brightness-toolbar-selected_2x.png" data-name="941-brightness-toolbar-selected@2x.png"><path class="cls-1" d="M2.6,2.9a.1875.1875,0,0,0,.3,0,.1875.1875,0,0,0,0-.3l-1-1a.1875.1875,0,0,0-.3,0,.1875.1875,0,0,0,0,.3ZM5,2a.2151.2151,0,0,0,.2-.2V.4a.2.2,0,1,0-.4,0V1.7C4.8,1.9,4.9,2,5,2Zm2.4.9L8.3,2a.1875.1875,0,0,0,0-.3.1875.1875,0,0,0-.3,0l-.9.9a.1875.1875,0,0,0,0,.3C7.2,3,7.4,2.9,7.4,2.9ZM2,5a.2151.2151,0,0,0-.2-.2H.4a.2.2,0,1,0,0,.4H1.7C1.9,5.2,2,5.1,2,5ZM7.4,7.1a.2121.2121,0,0,0-.3.3l.9.9A.2121.2121,0,0,0,8.3,8ZM9.6,4.8H8.2a.2.2,0,1,0,0,.4H9.5A.2151.2151,0,0,0,9.7,5C9.7,4.9,9.7,4.8,9.6,4.8ZM5,2.8A2.2,2.2,0,1,0,7.2,5,2.22,2.22,0,0,0,5,2.8ZM5,8a.2151.2151,0,0,0-.2.2V9.5a.2.2,0,1,0,.4,0V8.2A.2151.2151,0,0,0,5,8ZM2.6,7.1l-1,1a.1875.1875,0,0,0,0,.3.1875.1875,0,0,0,.3,0l.9-.9a.1875.1875,0,0,0,0-.3C2.8,7.1,2.6,7.1,2.6,7.1Z"/></g></svg>