<svg id="Layer_1" data-name="Layer 1" xmlns="http://www.w3.org/2000/svg" viewBox="0 0 13 13"><title>m-icon_share-o</title><path d="M10.6943.9487A1.6259,1.6259,0,0,0,9.07,2.5732a1.4394,1.4394,0,0,0,.0147.2486L3.5229,5.24A1.6246,1.6246,0,0,0,2.24,4.6255a1.4911,1.4911,0,0,0-1.0947.4219A1.6207,1.6207,0,0,0,2.27,7.8389,1.5793,1.5793,0,0,0,3.3535,7.41l3.6543,2.458a1.6468,1.6468,0,0,0-.1152.5586,1.6245,1.6245,0,1,0,1.624-1.6241,1.5811,1.5811,0,0,0-1.084.4287L3.7783,6.7734a1.642,1.642,0,0,0,.1157-.559A1.5,1.5,0,0,0,3.88,5.9658L9.4414,3.5474a1.6356,1.6356,0,0,0,2.9131-1.01A1.6274,1.6274,0,0,0,10.6943.9487Zm.8389,1.5884a.83.83,0,0,1-.8389.8389.8389.8389,0,0,1,0-1.6778A.83.83,0,0,1,11.5332,2.5371ZM3.1084,6.2144A.8389.8389,0,1,1,2.27,5.3755.83.83,0,0,1,3.1084,6.2144Zm4.5693,4.2485a.8389.8389,0,1,1,.8389.8389A.8394.8394,0,0,1,7.6777,10.4629Z"/></svg>