<svg id="Layer_1" data-name="Layer 1" xmlns="http://www.w3.org/2000/svg" viewBox="0 0 10 10"><title>m-icon_line-straight-o</title><path d="M9.1,4a.9605.9605,0,0,0-.9.7H7.3A.9605.9605,0,0,0,6.4,4a.8485.8485,0,0,0-.8.7h-1A.876.876,0,0,0,3.7,4a1.0875,1.0875,0,0,0-1,.7H1.8A.7728.7728,0,0,0,1,4,1.0021,1.0021,0,0,0,0,5a.8963.8963,0,0,0,.9.9.9605.9605,0,0,0,.9-.7h.9a.9605.9605,0,0,0,.9.7.9605.9605,0,0,0,.9-.7h.9a.9286.9286,0,0,0,1.8,0h.9a.9605.9605,0,0,0,.9.7A.8963.8963,0,0,0,9.9,5,.9085.9085,0,0,0,9.1,4ZM.9,5.4A.43.43,0,0,1,.5,5a.43.43,0,0,1,.4-.4c.2,0,.5.1.5.4S1.2,5.4.9,5.4Zm2.8,0A.4575.4575,0,0,1,3.2,5a.43.43,0,0,1,.4-.4c.2,0,.5.1.5.4A.3663.3663,0,0,1,3.7,5.4Zm2.7,0A.43.43,0,0,1,6,5a.43.43,0,0,1,.4-.4.3663.3663,0,0,1,.4.4A.3663.3663,0,0,1,6.4,5.4Zm2.7,0A.43.43,0,0,1,8.7,5a.4.4,0,0,1,.8,0A.3663.3663,0,0,1,9.1,5.4Z"/></svg>