<svg id="Layer_1" data-name="Layer 1" xmlns="http://www.w3.org/2000/svg" viewBox="0 0 10 10"><defs><style>.cls-1{fill:#010101;}</style></defs><title>m-icon_trash</title><g id="_711-trash-toolbar-selected_2x.png" data-name="711-trash-toolbar-selected@2x.png"><path class="cls-1" d="M8.7,1.5H6.9V1.1A.8963.8963,0,0,0,6,.2H3.9a.8963.8963,0,0,0-.9.9v.4H1.3c-.2,0-.3.1-.3.2a.2151.2151,0,0,0,.2.2h.2l.4,7a.8963.8963,0,0,0,.9.9H7a.9234.9234,0,0,0,1-.9l.4-7h.2a.2151.2151,0,0,0,.2-.2C8.9,1.6,8.8,1.5,8.7,1.5ZM3.4,1.1A.43.43,0,0,1,3.8.7H6a.43.43,0,0,1,.4.4v.4h-3Zm.3,7.4a.2151.2151,0,0,1-.2-.2L3.2,3.1a.2.2,0,0,1,.4,0l.2,5.2C3.9,8.4,3.8,8.5,3.7,8.5Zm1.5-.2a.2.2,0,1,1-.4,0V3.1a.2.2,0,1,1,.4,0Zm1.3,0a.2151.2151,0,0,1-.2.2c-.1,0-.3-.1-.3-.2l.2-5.2a.2151.2151,0,0,1,.2-.2c.1,0,.3.1.3.2Z"/></g></svg>