<svg id="Layer_1" data-name="Layer 1" xmlns="http://www.w3.org/2000/svg" viewBox="0 0 10 10"><defs><style>.cls-1{fill:#010101;}</style></defs><title>m-icon_more</title><g id="_727-more-toolbar-selected_2x.png" data-name="727-more-toolbar-selected@2x.png"><path class="cls-1" d="M8.6,3.6A1.43,1.43,0,0,0,7.2,5,1.4,1.4,0,0,0,10,5,1.43,1.43,0,0,0,8.6,3.6Zm-7.2,0A1.4152,1.4152,0,0,0,.1,5,1.43,1.43,0,0,0,1.5,6.4,1.3441,1.3441,0,0,0,2.8,5,1.43,1.43,0,0,0,1.4,3.6ZM5,3.6A1.5055,1.5055,0,0,0,3.6,5,1.5055,1.5055,0,0,0,5,6.4,1.5055,1.5055,0,0,0,6.4,5,1.5055,1.5055,0,0,0,5,3.6Z"/></g></svg>