<svg id="Layer_1" data-name="Layer 1" xmlns="http://www.w3.org/2000/svg" viewBox="0 0 10 10"><defs><style>.cls-1{fill:#010101;}</style></defs><title>m-icon_phone</title><g id="_735-phone-toolbar-selected_2x.png" data-name="735-phone-toolbar-selected@2x.png"><path class="cls-1" d="M9.8,8.1A2.8883,2.8883,0,0,0,8.4,6.5,1.9127,1.9127,0,0,0,7.2,6a.7549.7549,0,0,0-.7.4l-.1.1h0c-.1,0-.2.2-.4.2H6a.0979.0979,0,0,0-.1-.1A12.0507,12.0507,0,0,0,4.6,5.4h0s-.8-.9-1.1-1.2c-.1-.1-.1-.1-.1-.2s.1-.2.2-.3h0l.1-.1c.4-.4.7-.7-.1-1.9C2.9.7,2.5.3,2.1.2H2a1.3293,1.3293,0,0,0-.7.3A2.4005,2.4005,0,0,0,.2,2C.1,3.1,1,4.6,3.1,6.9h0c2,2,3.5,2.9,4.6,2.9h.1a2.6018,2.6018,0,0,0,1.7-1A.7447.7447,0,0,0,9.8,8.1Z"/></g></svg>