<svg id="Layer_1" data-name="Layer 1" xmlns="http://www.w3.org/2000/svg" viewBox="0 0 10 10"><defs><style>.cls-1{fill:#010101;}</style></defs><title>m-icon_settings-alt</title><g id="_1059-sliders-toolbar-selected_2x.png" data-name="1059-sliders-toolbar-selected@2x.png"><path class="cls-1" d="M.6,1.6H6.8V2a.43.43,0,0,0,.4.4h.4A.43.43,0,0,0,8,2V1.6H9.5a.2151.2151,0,0,0,.2-.2.2151.2151,0,0,0-.2-.2H8V.8A.43.43,0,0,0,7.6.4H7.1a.43.43,0,0,0-.4.4v.4H.6a.2151.2151,0,0,0-.2.2C.4,1.5.4,1.6.6,1.6ZM9.5,4.8H3.7V4.4A.43.43,0,0,0,3.3,4H2.9a.43.43,0,0,0-.4.4v.4H.6c-.2,0-.2.1-.2.2a.2151.2151,0,0,0,.2.2H2.5v.4a.43.43,0,0,0,.4.4h.4a.43.43,0,0,0,.4-.4V5.2H9.4A.2151.2151,0,0,0,9.6,5C9.7,4.9,9.6,4.8,9.5,4.8Zm0,3.6H6.7V8a.43.43,0,0,0-.4-.4H5.9a.4575.4575,0,0,0-.5.4v.4H.6a.2.2,0,1,0,0,.4H5.5v.4a.43.43,0,0,0,.4.4h.4a.43.43,0,0,0,.4-.4V8.9H9.5a.2151.2151,0,0,0,.2-.2C9.7,8.5,9.6,8.4,9.5,8.4Z"/></g></svg>