<svg xmlns="http://www.w3.org/2000/svg" viewBox="0 0 10 10"><title>m-icon_bell-o</title><path d="M8.4,6.2C8,6,7.5,5.7,7.5,3.5A2.35,2.35,0,0,0,6.1,1.3V1.2a.9866.9866,0,0,0-1-.9,1.0021,1.0021,0,0,0-1,1v.1A2.0766,2.0766,0,0,0,2.6,3.5c0,2.2-.6,2.5-1,2.8-.3.1-.5.2-.5.8,0,.7,1.3,1.1,2.5,1.3A1.3671,1.3671,0,0,0,5,9.8,1.3671,1.3671,0,0,0,6.4,8.4c1.2-.2,2.5-.6,2.5-1.3A.846.846,0,0,0,8.4,6.2ZM5.1147.7433a.3922.3922,0,0,1,.4044.343c.0119.109-.1613.0059-.3846.0059S4.71,1.1636,4.71,1.0863A.3776.3776,0,0,1,5.1147.7433ZM5,9a.73.73,0,0,1-.7-.6,6.5334,6.5334,0,0,0,1.4,0A.6611.6611,0,0,1,5,9ZM5,7.8c-2,0-3.2-.5-3.2-.7s.1-.2.3-.4c.4-.3,1.1-.7,1.1-3.2A1.7925,1.7925,0,0,1,5,1.7,1.6855,1.6855,0,0,1,6.7,3.4c0,2.5.7,3,1.2,3.2.3.2.3.3.3.5S7,7.8,5,7.8Z"/></svg>