<svg id="Layer_1" data-name="Layer 1" xmlns="http://www.w3.org/2000/svg" viewBox="0 0 10 10"><title>m-icon_like-o</title><path d="M8.2125,4.1859c-.4609-.0288-1.2668-.0288-1.7568-.0576A.45.45,0,0,1,6.11,3.9555a.4232.4232,0,0,1,0-.3744,2.8128,2.8128,0,0,0,.1729-1.5552A1.2506,1.2506,0,0,0,5.3037,1.018a.3791.3791,0,0,0-.4608.2592,2.661,2.661,0,0,0-.144.7487,6.1679,6.1679,0,0,1-.3168,1.3824c-.3744.9216-.8064,1.5552-1.7855,1.5552h-.23v3.34H4.3537a26.9973,26.9973,0,0,0,2.9375.49,1.451,1.451,0,0,0,.5472-.0864c.864-.4032,1.3824-2.1312,1.6128-3.0239A1.581,1.581,0,0,0,8.2125,4.1859ZM7.6656,8.3042a.7022.7022,0,0,1-.3744.0576,11.8823,11.8823,0,0,1-1.8719-.2879c-.432-.0865-.8068-.1729-1.0368-.2017H2.77V5.3666c1.152-.0863,1.6416-.95,1.9584-1.8143a6.04,6.04,0,0,0,.3452-1.4975,2.7861,2.7861,0,0,1,.1152-.6336s.0576-.0289.1728.0288a.9665.9665,0,0,1,.49.6336,2.21,2.21,0,0,1-.1728,1.3247.8361.8361,0,0,0,.0576.7488.8055.8055,0,0,0,.6624.3456c.3167.0288.72.0288,1.1519.0288a3.3214,3.3214,0,0,1,.576.0288,1.1783,1.1783,0,0,1,.8928,1.0079C8.472,7.7282,7.8956,8.2178,7.6656,8.3042Z"/><path d="M.2351,8.3042h1.584V4.9635H.2351Zm.432-2.9376h.72V7.8435h-.72Z"/></svg>