<svg id="Layer_1" data-name="Layer 1" xmlns="http://www.w3.org/2000/svg" viewBox="0 0 10 10"><defs><style>.cls-1{fill:#010101;}</style></defs><title>m-icon_info-o</title><path class="cls-1" d="M5,.3A4.7,4.7,0,1,0,9.7,5,4.6946,4.6946,0,0,0,5,.3Zm0,9A4.2682,4.2682,0,0,1,.7,5,4.2682,4.2682,0,0,1,5,.7,4.2682,4.2682,0,0,1,9.3,5,4.2682,4.2682,0,0,1,5,9.3Zm.6-2.2c-.0974-.0172-.1-.1-.1-.2V4.5l-1.4.1v.2h.2a.4508.4508,0,0,1,.1944.0536L4.5,5V6.9c0,.1,0,.1-.1.2H4.2v.2H5.9V7.1H5.6Z"/><circle cx="4.9" cy="3" r="0.7"/></svg>