<svg id="Layer_1" data-name="Layer 1" xmlns="http://www.w3.org/2000/svg" viewBox="0 0 10 10"><defs><style>.cls-1{fill:#010101;}</style></defs><title>m-icon_light-on-o</title><g id="_941-brightness-toolbar_2x.png" data-name="941-brightness-toolbar@2x.png"><path class="cls-1" d="M2.6,2.9a.1875.1875,0,0,0,.3,0,.1875.1875,0,0,0,0-.3l-1-1a.1875.1875,0,0,0-.3,0,.1875.1875,0,0,0,0,.3Zm4.8,0L8.3,2a.1875.1875,0,0,0,0-.3.1875.1875,0,0,0-.3,0l-.9.9a.1875.1875,0,0,0,0,.3A.1875.1875,0,0,0,7.4,2.9ZM2,5a.2151.2151,0,0,0-.2-.2H.5c-.2,0-.3.1-.3.2a.2151.2151,0,0,0,.2.2H1.7C1.9,5.2,2,5.1,2,5ZM5,2a.2151.2151,0,0,0,.2-.2V.5A.2151.2151,0,0,0,5,.3c-.1,0-.2,0-.2.2V1.8A.2151.2151,0,0,0,5,2ZM5,8a.2151.2151,0,0,0-.2.2V9.5a.2.2,0,1,0,.4,0V8.2A.2151.2151,0,0,0,5,8Zm2.4-.9a.2121.2121,0,0,0-.3.3l.9.9A.2121.2121,0,0,0,8.3,8ZM5,2.8A2.2,2.2,0,1,0,7.2,5,2.22,2.22,0,0,0,5,2.8ZM5,6.7A1.7524,1.7524,0,0,1,3.3,5,1.6855,1.6855,0,0,1,5,3.3,1.6275,1.6275,0,0,1,6.7,5,1.6275,1.6275,0,0,1,5,6.7ZM9.5,4.8H8.2a.2.2,0,1,0,0,.4H9.5A.2151.2151,0,0,0,9.7,5C9.7,4.9,9.7,4.8,9.5,4.8ZM2.6,7.1l-1,1a.1875.1875,0,0,0,0,.3.1875.1875,0,0,0,.3,0l.9-.9c.2-.2.2-.3.1-.4A.1875.1875,0,0,0,2.6,7.1Z"/></g></svg>