<svg id="Layer_1" data-name="Layer 1" xmlns="http://www.w3.org/2000/svg" viewBox="0 0 10 10"><defs><style>.cls-1{fill:#010101;}</style></defs><title>m-icon_user</title><g id="_769-male-toolbar-selected_2x.png" data-name="769-male-toolbar-selected@2x.png"><path class="cls-1" d="M5,.3A4.7,4.7,0,1,0,9.7,5,4.6946,4.6946,0,0,0,5,.3ZM5,9.2A4.07,4.07,0,0,1,2,8a7.5787,7.5787,0,0,1,1.6-.9L3.8,7c.6-.6-.1-1.7-.2-1.8-.1,0-.3-.4-.2-.8a2.5479,2.5479,0,0,1,.1-1.9,1.5571,1.5571,0,0,1,1.4-.6,1.1674,1.1674,0,0,1,1.4.3,3.1247,3.1247,0,0,1,.4,2,1.48,1.48,0,0,1-.2,1c-.1.1-.1.2-.2.3-.3.6-.5,1.1,0,1.5A3.9277,3.9277,0,0,1,8,8,4.07,4.07,0,0,1,5,9.2Z"/></g></svg>