<svg id="Layer_1" data-name="Layer 1" xmlns="http://www.w3.org/2000/svg" viewBox="0 0 10 10"><title>m-icon_upload-o</title><path d="M9.5,5.9H7.4A1.6837,1.6837,0,0,0,6,6.7q-.15.3-.3.3H4.3c-.1,0-.1221-.1035-.3567-.3331A1.5671,1.5671,0,0,0,2.6,5.9H.5c-.2,0-.4.1-.4.3V9.4a.43.43,0,0,0,.4.4h9a.43.43,0,0,0,.4-.4V6.2C9.9,6,9.7,5.9,9.5,5.9ZM9.2,9.1H.8V6.5H2.6c.4,0,.6.3.8.5a1.1744,1.1744,0,0,0,1,.6H5.7c.5,0,.7-.3,1-.6a.7873.7873,0,0,1,.7-.5H9.2Z"/><path d="M4.216,2.4322l.3671-.4134V6.1761a.4459.4459,0,0,0,.8918,0V1.933l.4465.3964a.4459.4459,0,1,0,.5921-.6669L5.2827.57a.4638.4638,0,0,0-.6407.04L3.5491,1.84a.4459.4459,0,0,0,.6669.5922Z"/></svg>