<svg id="Layer_1" data-name="Layer 1" xmlns="http://www.w3.org/2000/svg" viewBox="0 0 10 10"><title>m-icon_import-o</title><path d="M5.2909,7.7008l1.39-1.39a.4078.4078,0,0,0-.5768-.5767l-.7224.7225V.5258a.3873.3873,0,0,0-.7745,0V6.4567l-.7225-.7226a.4078.4078,0,0,0-.5768.5767h0l1.39,1.39A.4332.4332,0,0,0,5.2909,7.7008Z"/><path d="M6.7373,3.4243a.3149.3149,0,0,0,.314.3141H8.2966V9.0822H1.8936V3.7384H3.1389a.3141.3141,0,0,0,0-.6281H1.58a.3149.3149,0,0,0-.314.314c0,.0064.0064.01.0068.0165s-.0068.01-.0068.0164V9.3963a.3149.3149,0,0,0,.314.314H8.6107a.3148.3148,0,0,0,.3141-.314V3.4572c0-.0064-.0065-.01-.0069-.0164s.0069-.01.0069-.0165a.3149.3149,0,0,0-.3141-.314H7.0517A.315.315,0,0,0,6.7373,3.4243Z"/></svg>