<svg id="Layer_1" data-name="Layer 1" xmlns="http://www.w3.org/2000/svg" viewBox="0 0 10 10"><title>m-icon_flag-o</title><path d="M8.3308.981a3.4036,3.4036,0,0,1-1.6471.3358A3.9654,3.9654,0,0,1,5.0181.8882L4.7065.7531A4.1685,4.1685,0,0,0,2.981.3c-1.6507,0-1.779.75-1.779.98V9.6666h.726L1.9227,5.8243c.028-.0823.2723-.2964,1.0583-.2964a3.1817,3.1817,0,0,1,1.3344.3765c.0887.04.1762.0794.2571.1141a4.366,4.366,0,0,0,2.1112.5985,4.0946,4.0946,0,0,0,2.0895-.4893l.1248-.1262V.5538Zm-5.35.0451a2.6355,2.6355,0,0,1,1.5166.49,4.3713,4.3713,0,0,0,2.1137.6,4.2725,4.2725,0,0,0,1.4451-.21c.03.6265.0425,2.4615.0432,3.7017a2.9747,2.9747,0,0,1-1.4159.2843,3.4561,3.4561,0,0,1-1.8064-.4892l-.145-.0731A3.6644,3.6644,0,0,0,2.981,4.8018a2.7813,2.7813,0,0,0-1.0533.1726l-.005-3.6516C1.9507,1.24,2.1946,1.0261,2.981,1.0261Z"/></svg>