<svg id="Layer_1" data-name="Layer 1" xmlns="http://www.w3.org/2000/svg" viewBox="0 0 10 10"><defs><style>.cls-1{fill:#010101;}</style></defs><title>m-icon_print</title><g id="_743-printer-toolbar-selected_2x.png" data-name="743-printer-toolbar-selected@2x.png"><path class="cls-1" d="M8.1.6A.5357.5357,0,0,0,7.6.1H2.4a.5357.5357,0,0,0-.5.5V2.4H8.1ZM7.7,5.5H2.4a.5357.5357,0,0,0-.5.5V9.5a.5357.5357,0,0,0,.5.5H7.7a.5357.5357,0,0,0,.5-.5V5.9A.6644.6644,0,0,0,7.7,5.5Zm-2,3.1H3.5a.2.2,0,1,1,0-.4H5.7a.2.2,0,0,1,0,.4Zm.9-1.3H3.5c-.1,0-.2-.1-.2-.3s.1-.2.2-.2H6.6a.2151.2151,0,0,1,.2.2C6.8,7.1,6.7,7.3,6.6,7.3ZM9,2.8H1a.8963.8963,0,0,0-.9.9v4a.8963.8963,0,0,0,.9.9h.5V5.9A.8963.8963,0,0,1,2.4,5H7.7a.8963.8963,0,0,1,.9.9V8.5h.5a.8963.8963,0,0,0,.9-.9v-4A1.0767,1.0767,0,0,0,9,2.8ZM8.1,4.6a.5357.5357,0,0,1-.5-.5.4724.4724,0,0,1,.5-.5.5357.5357,0,0,1,.5.5A.4724.4724,0,0,1,8.1,4.6Z"/></g></svg>