<svg id="Layer_1" data-name="Layer 1" xmlns="http://www.w3.org/2000/svg" viewBox="0 0 10 10"><title>m-icon_check-alt-o</title><path d="M8.8184.7592a.662.662,0,0,0-.6012.2872L3.371,6.2812,1.7293,4.64a.6775.6775,0,0,0-.5223-.2239.8281.8281,0,0,0-.8209.8209,1.0625,1.0625,0,0,0,.1492.4477L2.8486,8.9677a.6908.6908,0,0,0,.6717.3731.8651.8651,0,0,0,.6715-.2985l5.3728-6.94A.7552.7552,0,0,0,9.7139,1.58.8469.8469,0,0,0,8.8184.7592Zm.3624,1.0223-.0115.0148L3.7919,8.7423a.3744.3744,0,0,1-.27.1093.2721.2721,0,0,1-.209-.07l-.03-.0492L3.2469,8.68.9659,5.4272a.9289.9289,0,0,1-.08-.1906.3292.3292,0,0,1,.3209-.3209.1878.1878,0,0,1,.1687.0774L3.0175,6.6348l.3668.3669.3531-.38,4.85-5.2236L8.62,1.3557l.0314-.0446c.0066-.0087.0457-.0519.1667-.0519a.3519.3519,0,0,1,.3955.3209A.487.487,0,0,1,9.1808,1.7815Z"/></svg>