<svg id="Layer_1" data-name="Layer 1" xmlns="http://www.w3.org/2000/svg" viewBox="0 0 10 10"><defs><style>.cls-1{fill:#010101;}</style></defs><title>m-icon_copy</title><polygon class="cls-1" points="7.1 0.3 7.1 2 8.8 2 7.1 0.3"/><path class="cls-1" d="M4.6,4.4v-2h-3a.43.43,0,0,0-.4.4V9.2a.43.43,0,0,0,.4.4H6.3a.43.43,0,0,0,.4-.4V4.6H4.8A.2151.2151,0,0,1,4.6,4.4Zm.6,3.7H2.6a.2.2,0,0,1,0-.4H5.2a.2.2,0,1,1,0,.4ZM2.4,6.8a.2151.2151,0,0,1,.2-.2H4.3a.2151.2151,0,0,1,.2.2c0,.1,0,.2-.2.2H2.6C2.5,7.1,2.4,6.9,2.4,6.8Zm3-1a.2151.2151,0,0,1-.2.2H2.6a.2.2,0,0,1,0-.4H5.2A.2151.2151,0,0,1,5.4,5.8Z"/><path class="cls-1" d="M6.7,2.2V.3h-3a.43.43,0,0,0-.4.4v1H5.2L7.4,3.9V7.5h1a.43.43,0,0,0,.4-.4V2.4H6.9A.2151.2151,0,0,1,6.7,2.2Z"/><polygon class="cls-1" points="5 4.1 6.7 4.1 5 2.4 5 4.1"/></svg>