<svg id="Layer_1" data-name="Layer 1" xmlns="http://www.w3.org/2000/svg" viewBox="0 0 10 10"><defs><style>.cls-1{fill:#010101;}</style></defs><title>m-icon_key</title><g id="_899-key-toolbar-selected_2x.png" data-name="899-key-toolbar-selected@2x.png"><path class="cls-1" d="M9.7,7.8c0-.1,0-.1-.1-.1L6.2,4.2a2.7686,2.7686,0,0,0,.1-.9,2.9465,2.9465,0,0,0-3-3,3.0085,3.0085,0,0,0-3,3,3.0759,3.0759,0,0,0,3,3,2.7686,2.7686,0,0,0,.9-.1L5.9,8c0,.1.1.1.2.1h.7v.7h0A.2151.2151,0,0,0,7,9h.7v.6h0a.2151.2151,0,0,0,.2.2H9.6a.2151.2151,0,0,0,.2-.2L9.7,7.8ZM2.6,3.5a.9.9,0,1,1,.9-.9A.8963.8963,0,0,1,2.6,3.5ZM5.2,4ZM2.6,2.3a.43.43,0,0,0-.4.4.43.43,0,0,0,.4.4A.3663.3663,0,0,0,3,2.7C3,2.4,2.9,2.3,2.6,2.3Z"/></g></svg>