<svg id="Layer_1" data-name="Layer 1" xmlns="http://www.w3.org/2000/svg" viewBox="0 0 10 10"><defs><style>.cls-1{fill:#010101;}</style></defs><title>m-icon_more-o</title><g id="_727-more-toolbar_2x.png" data-name="727-more-toolbar@2x.png"><path class="cls-1" d="M1.4,3.6A1.4152,1.4152,0,0,0,.1,5,1.43,1.43,0,0,0,1.5,6.4,1.3441,1.3441,0,0,0,2.8,5,1.43,1.43,0,0,0,1.4,3.6Zm0,2.3A.9.9,0,1,1,2.3,5,.8963.8963,0,0,1,1.4,5.9ZM5,3.6A1.5055,1.5055,0,0,0,3.6,5,1.5055,1.5055,0,0,0,5,6.4,1.5055,1.5055,0,0,0,6.4,5,1.5055,1.5055,0,0,0,5,3.6ZM5,5.9A.9.9,0,1,1,5.9,5,.8963.8963,0,0,1,5,5.9ZM8.6,3.6A1.43,1.43,0,0,0,7.2,5,1.4,1.4,0,0,0,10,5,1.43,1.43,0,0,0,8.6,3.6Zm0,2.3A.9.9,0,1,1,9.5,5,.8963.8963,0,0,1,8.6,5.9Z"/></g></svg>