<svg id="Layer_1" data-name="Layer 1" xmlns="http://www.w3.org/2000/svg" viewBox="0 0 10 10"><defs><style>.cls-1{fill:#010101;}</style></defs><title>m-icon_circle-angle-up-o</title><g id="_746-plus-circle-toolbar_2x.png" data-name="746-plus-circle-toolbar@2x.png"><path class="cls-1" d="M5,.4A4.6529,4.6529,0,0,0,.4,5,4.6529,4.6529,0,0,0,5,9.6,4.6529,4.6529,0,0,0,9.6,5,4.6529,4.6529,0,0,0,5,.4ZM5,9.2A4.2253,4.2253,0,0,1,.8,5,4.2253,4.2253,0,0,1,5,.8,4.2253,4.2253,0,0,1,9.2,5,4.2253,4.2253,0,0,1,5,9.2Z"/></g><path d="M5.1.2A4.7,4.7,0,1,0,9.8,4.9,4.6946,4.6946,0,0,0,5.1.2ZM5.1,9a4,4,0,1,1,4-4A4.0118,4.0118,0,0,1,5.1,9Z"/><path d="M2.8,6.2,5.1,4,7.4,6.2a.3042.3042,0,0,0,.4,0c.2-.2.2-.4.1-.5L5.3,3.3a.3042.3042,0,0,0-.4,0h0L2.4,5.7a.3042.3042,0,0,0,0,.4A.2474.2474,0,0,0,2.8,6.2Z"/></svg>