<svg id="Layer_1" data-name="Layer 1" xmlns="http://www.w3.org/2000/svg" viewBox="0 0 10 10"><title>m-icon_bulb-o</title><path d="M5.5,9.1H4.7a.3.3,0,1,0,0,.6h.8a.3.3,0,1,0,0-.6Z"/><path d="M5.9,8.2H4.2a.3.3,0,0,0,0,.6H5.9a.2652.2652,0,0,0,.3-.3A.3193.3193,0,0,0,5.9,8.2Z"/><path d="M7.5,1.3A3.1017,3.1017,0,0,0,5.1.3,3.5282,3.5282,0,0,0,1.6,4,3.6274,3.6274,0,0,0,3.5,7.3v.5a.2652.2652,0,0,0,.3.3H6.3a.2652.2652,0,0,0,.3-.3V7.2A3.4749,3.4749,0,0,0,8.5,4,3.62,3.62,0,0,0,7.5,1.3ZM6,6.8v.6H5.4v-3a.5784.5784,0,0,0-.0127-.1h.03c.1,0,.2521-.0647.2272-.3V3.9735c0-.2-.1273-.2735-.3273-.2735h-.5a.2652.2652,0,0,0-.3.3.3179.3179,0,0,0,.2953.299A.5709.5709,0,0,0,4.8,4.4v3H4.1V6.8A3.1727,3.1727,0,0,1,2.2,4,2.9079,2.9079,0,0,1,5,1,2.9741,2.9741,0,0,1,7.8,4,2.8776,2.8776,0,0,1,6,6.8Z"/></svg>