<svg xmlns="http://www.w3.org/2000/svg" viewBox="0 0 10 10"><title>m-icon_archive</title><path d="M9.4,5.5l-1-4.1c0-.1-.2-.2-.3-.2H6.7a.3193.3193,0,0,0-.3.3.4508.4508,0,0,0,.3.3h1l1,3.8H7.3a1.5018,1.5018,0,0,0-1.3088.8794c-.1971.2353-.3147.4177-.3912.4206H4.4c-.1,0-.2-.2-.3-.4-.3882-.5647-.6-.8-1.3-.8H1.2l1-3.8h1a.3193.3193,0,0,0,.3-.3c0-.1.0373-.351-.2-.4H2c-.2,0-.2578.0578-.3031.2953L.4,5.9V9.2c0,.2.1.4.3.4H9.2a.3193.3193,0,0,0,.3-.3V6.1A2.18,2.18,0,0,0,9.4,5.5Z"/><path d="M3.3,4.5a.3674.3674,0,0,0,.1.3L4.7,6.1a.3674.3674,0,0,0,.3.1.3674.3674,0,0,0,.3-.1L6.6,4.8a.3674.3674,0,0,0,.1-.3h0a.43.43,0,0,0-.4-.4.3674.3674,0,0,0-.3.1l-.6.6V.8A.43.43,0,0,0,5,.4c-.2,0-.4.1-.4.3v4L4,4.2c-.1858-.1435-.1968-.1075-.2968-.1075A.44.44,0,0,0,3.3,4.5Z"/></svg>