<svg id="Layer_1" data-name="Layer 1" xmlns="http://www.w3.org/2000/svg" viewBox="0 0 10 10"><title>m-icon_dislike-o</title><path d="M8.0833,1.2154a1.4516,1.4516,0,0,0-.5472-.0864,27.0129,27.0129,0,0,0-2.9375.49H2.6115V4.9593h.23c.9791,0,1.4111.6336,1.7855,1.5552a6.1658,6.1658,0,0,1,.3168,1.3824,2.6583,2.6583,0,0,0,.144.7487.3791.3791,0,0,0,.4608.2592,1.2505,1.2505,0,0,0,.9792-1.0079,2.8122,2.8122,0,0,0-.1729-1.5552.423.423,0,0,1,0-.3744.45.45,0,0,1,.3457-.1728c.49-.0288,1.2959-.0288,1.7568-.0576A1.5809,1.5809,0,0,0,9.6961,4.2393C9.4657,3.3466,8.9473,1.6186,8.0833,1.2154Zm.288,4.1471a3.316,3.316,0,0,1-.576.0288c-.432,0-.8352,0-1.1519.0288a.8058.8058,0,0,0-.6624.3456.8365.8365,0,0,0-.0576.7488,2.21,2.21,0,0,1,.1728,1.3247.9666.9666,0,0,1-.49.6336c-.1152.0577-.1728.0288-.1728.0288a2.787,2.787,0,0,1-.1152-.6336A6.0415,6.0415,0,0,0,4.973,6.3705c-.3168-.864-.8064-1.728-1.9584-1.8143V2.0506H4.6274c.23-.0288.6048-.1152,1.0368-.2016a11.8718,11.8718,0,0,1,1.8719-.288.7032.7032,0,0,1,.3744.0576c.23.0864.8064.576,1.3536,2.736A1.1782,1.1782,0,0,1,8.3713,5.3625Z"/><path d="M.48,4.9593h1.584V1.6186H.48Zm.432-2.88h.72V4.5562h-.72Z"/></svg>