<svg id="Layer_1" data-name="Layer 1" xmlns="http://www.w3.org/2000/svg" viewBox="0 0 10 10"><defs><style>.cls-1{fill:#010101;}</style></defs><title>m-icon_tag-o</title><g id="_747-tag-toolbar_2x.png" data-name="747-tag-toolbar@2x.png"><path class="cls-1" d="M8.9.3H5.6a.52.52,0,0,0-.4.2L.5,5.1c-.1.2-.2.3-.2.5A.52.52,0,0,0,.5,6L3.9,9.4a.5.5,0,0,0,.8,0L9.3,4.8a.7581.7581,0,0,0,.2-.4V1A.5627.5627,0,0,0,8.9.3Zm.2,4c-.0117.0045.0159.0446-.1.1L4.4,9.1l-.1.1c-.0521-.0475,0,0-.1-.1L.8,5.7.7,5.6a.0979.0979,0,0,1,.1-.1L5.4.9,5.5.8H8.9a.2151.2151,0,0,1,.2.2ZM7.7,1.4a.7887.7887,0,0,0-.8.8.86.86,0,0,0,.8.8.7887.7887,0,0,0,.8-.8A.7887.7887,0,0,0,7.7,1.4Zm0,1.2a.43.43,0,0,1-.4-.4.4.4,0,1,1,.8,0A.43.43,0,0,1,7.7,2.6Z"/></g></svg>