<svg id="Layer_1" data-name="Layer 1" xmlns="http://www.w3.org/2000/svg" viewBox="0 0 10 10"><defs><style>.cls-1{fill:#010101;}</style></defs><title>m-icon_trash-o</title><path class="cls-1" d="M3.7,8.5a.2151.2151,0,0,0,.2-.2L3.7,3a.2.2,0,0,0-.4,0l.2,5.2C3.4,8.4,3.6,8.5,3.7,8.5Z"/><path class="cls-1" d="M5,8.5a.2151.2151,0,0,0,.2-.2V3.1A.2151.2151,0,0,0,5,2.9c-.1,0-.2,0-.2.2V8.3A.2151.2151,0,0,0,5,8.5Z"/><path class="cls-1" d="M6.3,8.5a.2151.2151,0,0,0,.2-.2l.2-5.2a.2151.2151,0,0,0-.2-.2c-.1-.1-.2,0-.2.1L6.1,8.2C6.1,8.4,6.1,8.5,6.3,8.5Z"/><path class="cls-1" d="M8.7,1.5H7V1.1A.8963.8963,0,0,0,6.1.2H3.9a.8963.8963,0,0,0-.9.9v.4H1.3c-.2,0-.3.1-.3.2a.2151.2151,0,0,0,.2.2h.2l.4,7a.8963.8963,0,0,0,.9.9H7a.9234.9234,0,0,0,1-.9l.4-7h.2a.2151.2151,0,0,0,.2-.2C8.9,1.6,8.8,1.5,8.7,1.5ZM3.525,1.0375a.43.43,0,0,1,.4-.4h2.2a.43.43,0,0,1,.4.4v.4h-3ZM7.5062,8.9523a.43.43,0,0,1-.4.4h-4.4a.43.43,0,0,1-.4-.4l-.4-7h6Z"/></svg>