<svg id="Layer_1" data-name="Layer 1" xmlns="http://www.w3.org/2000/svg" viewBox="0 0 10 10"><title>m-icon_lock-open</title><path d="M7.8,3.6H7.4V2.5h0A2.4334,2.4334,0,0,0,5,.1,2.342,2.342,0,0,0,3.3.8a.1875.1875,0,0,0,0,.3.1875.1875,0,0,0,.3,0A1.8157,1.8157,0,0,1,5,.5a2.0059,2.0059,0,0,1,2,2H7V3.6H2.1a.8816.8816,0,0,0-.9.8V8.8a.8963.8963,0,0,0,.9.9H7.8a.8963.8963,0,0,0,.9-.9V4.5A.8963.8963,0,0,0,7.8,3.6ZM5.2,6.9v.7a.2151.2151,0,0,1-.2.2c-.1,0-.2-.1-.2-.3V6.9a.7385.7385,0,0,1-.5-.6.7.7,0,1,1,1.4,0C5.661,6.5272,5.661,6.731,5.2,6.9Z"/></svg>