<svg id="Layer_1" data-name="Layer 1" xmlns="http://www.w3.org/2000/svg" viewBox="0 0 10 10"><defs><style>.cls-1{fill:#010101;}</style></defs><title>m-icon_power</title><path class="cls-1" d="M5.1.3A4.7,4.7,0,1,0,9.8,5,4.6946,4.6946,0,0,0,5.1.3ZM4.9,2a.2.2,0,0,1,.4,0V4.8a.2151.2151,0,0,1-.2.2c-.2,0-.2-.1-.2-.2ZM7.2,7.1A2.9,2.9,0,0,1,3,7.1,2.9,2.9,0,0,1,3,2.9a.1875.1875,0,0,1,.3,0,.1875.1875,0,0,1,0,.3,3.1571,3.1571,0,0,0-.7,1.9,2.875,2.875,0,0,0,.7,1.8,2.41,2.41,0,0,0,1.8.7,2.875,2.875,0,0,0,1.8-.7,2.41,2.41,0,0,0,.7-1.8,2.2682,2.2682,0,0,0-.7-1.8.3042.3042,0,0,1,0-.4.1875.1875,0,0,1,.3,0A2.8781,2.8781,0,0,1,8.1,5,2.7235,2.7235,0,0,1,7.2,7.1Z"/></svg>