<svg id="Layer_1" data-name="Layer 1" xmlns="http://www.w3.org/2000/svg" viewBox="0 0 10 10"><title>m-icon_phone-o</title><g id="_735-phone-toolbar-selected_2x.png" data-name="735-phone-toolbar-selected@2x.png"><path d="M7.5207,9.8885c-1.166,0-2.6619-.9276-4.571-2.8377C.8555,4.7576.0094,3.3.1124,2.1685A2.5462,2.5462,0,0,1,1.2627.5469,1.5446,1.5446,0,0,1,2.106.2h.095c.5274.1225.943.5251,1.6582,1.5464.8294,1.244.5492,1.6837.0631,2.1694l-.0951.095c-.0236.0237-.057.0571-.0821.0849.3048.3136.8475.9189,1.0019,1.0919A9.7786,9.7786,0,0,1,5.9558,6.3059c.0092.0037.0369.0306.0462.0353.0389-.0325.0843-.0745.1337-.1244l.0436-.0436a.9447.9447,0,0,1,.8665-.4638,2.1308,2.1308,0,0,1,1.3182.5371,2.9363,2.9363,0,0,1,1.43,1.6865L9.8,7.9887a.9989.9989,0,0,1-.37.8729A2.75,2.75,0,0,1,7.6506,9.8867ZM2.1319.7612,2.106.77a1.0681,1.0681,0,0,0-.507.237A1.992,1.992,0,0,0,.6783,2.2348c-.084.9291.743,2.2974,2.6832,4.4227C5.1246,8.42,6.5272,9.3189,7.5207,9.3189h.0947a2.1782,2.1782,0,0,0,1.3868-.8358l.07-.0659c.14-.0936.1568-.2152.1586-.3988A2.5219,2.5219,0,0,0,8.0347,6.71a1.6419,1.6419,0,0,0-.9889-.4313.4372.4372,0,0,0-.4277.2532l-.2143.2217-.0508.03a.6814.6814,0,0,1-.4473.16l-.16-.05-.1366-.1287C4.8736,6.03,4.6014,5.7864,4.5007,5.7089l-.0321-.0344-.08-.0686s-.7771-.8381-1.0587-1.12a.4521.4521,0,0,1-.1785-.3915.7117.7117,0,0,1,.2741-.4865L3.52,3.5132c.3326-.3331.5-.5-.1308-1.4453C2.7836,1.2033,2.43.8354,2.1319.7612Z"/></g></svg>