<svg id="Layer_1" data-name="Layer 1" xmlns="http://www.w3.org/2000/svg" viewBox="0 0 10 10"><title>m-icon_like</title><path d="M8.6606,4.228c-.4575-.0286-1.5728-.0286-2.0589-.0572a.4472.4472,0,0,1-.3432-.1715.4194.4194,0,0,1,0-.3718A2.7928,2.7928,0,0,0,6.43,2.0833a1.2418,1.2418,0,0,0-.9723-1.0009A.3765.3765,0,0,0,5,1.34a2.6406,2.6406,0,0,0-.143.7435,6.12,6.12,0,0,1-.3146,1.3726C4.171,4.371,3.7421,5,2.77,5H2.541V8.3173h.286c.0858,0,.3145,0,.7149.0286.2573.0286.6577.143,1.0008.2.7435.1429,2.0876.3431,2.86.4289.6291-.143.8579-.4861,1.344-1.1438a4.9846,4.9846,0,0,0,.8579-2.1448A1.4528,1.4528,0,0,0,8.6606,4.228Z"/><path d="M.4249,8.3173H1.9977V5H.4249Z"/></svg>