<svg id="Layer_1" data-name="Layer 1" xmlns="http://www.w3.org/2000/svg" viewBox="0 0 10 10"><defs><style>.cls-1{fill:#010101;}</style></defs><title>m-icon_globe</title><g id="_881-globe-toolbar-selected_2x.png" data-name="881-globe-toolbar-selected@2x.png"><path class="cls-1" d="M5,.3A4.7,4.7,0,1,0,9.7,5,4.6946,4.6946,0,0,0,5,.3ZM3.7,4.4c-.7.2-.1.7-.1.7.7.3.3.5.3.5a2.7987,2.7987,0,0,1-1-.5s-.7-.5-.5-.8c.1-.3.5-.8,0-1.3a1.7556,1.7556,0,0,0-.5-.4,2.3609,2.3609,0,0,1,.9-.8,2.3761,2.3761,0,0,0,.9.9c.3-.8.8-.3.8-.3.1-.3.8-.2.5.1-.4.4-1,.2-.5.7.5.4.1-.4.8-.4s.7.6.3.6c-.3,0-.1.1-.8.5s-.3.8-.6.8C3.8,4.8,4.2,4.3,3.7,4.4ZM6,7c-.5.5-.6,1.5-.7,1.5-.1.1-.2-.1-.4-.3-.1-.1-.3-.4-.1-1.2,0,0-.6-.1-.6-1.1,0-.4.5-.8,1.2-.4.5.2.4.3.6.4A.7825.7825,0,0,1,6,7ZM7.2,4.3c0-1.1,1.3-.9.7-1.5-.4-.5-.8.4-1.3.4s-.2-1-.2-1c-.7,0-.3-.5-.1-.6.1-.1.1-.1.1-.2A3.7921,3.7921,0,0,1,8.9,5c0,.4-.1.7-.1,1C8.2,5.7,7.2,5.1,7.2,4.3Z"/></g></svg>