<svg id="Layer_1" data-name="Layer 1" xmlns="http://www.w3.org/2000/svg" viewBox="0 0 10 10"><title>m-icon_share-alt-o</title><path d="M8.1,6.9A.3674.3674,0,0,0,8,6.6H7.7a.2652.2652,0,0,0-.3.3V8.3H.9V3.4H2.7A.2652.2652,0,0,0,3,3.1a.2652.2652,0,0,0-.3-.3H.4c-.1.1-.2.2-.2.3V8.6a.2652.2652,0,0,0,.3.3H7.7A.2652.2652,0,0,0,8,8.6Z"/><path d="M9.6,4l-3-2.8a.3491.3491,0,0,0-.2-.1.2652.2652,0,0,0-.3.3V2.8C3.5,3.1,2,4.4,2,6.5v.8l.1-.2a4.8517,4.8517,0,0,1,4.1-2V6.5a.2652.2652,0,0,0,.3.3c.1,0,.1,0,.2-.1L9.6,4.4c.1814-.1389.2132-.1455.2-.2C9.7,4.1,9.712,4.1009,9.6,4Zm-3.1.5A5.7848,5.7848,0,0,0,2.7,5.7,2.6366,2.6366,0,0,1,4.5,3.8a6.0482,6.0482,0,0,1,2-.4.2652.2652,0,0,0,.3-.3v-1L9,4.1,6.8,5.9V4.8A.3193.3193,0,0,0,6.5,4.5Z"/></svg>