<svg id="Layer_1" data-name="Layer 1" xmlns="http://www.w3.org/2000/svg" viewBox="0 0 10 10"><defs><style>.cls-1{fill:#010101;}</style></defs><title>m-icon_pencil</title><g id="_830-pencil-toolbar-selected_2x.png" data-name="830-pencil-toolbar-selected@2x.png"><path class="cls-1" d="M1.1,6.4c-.1,0-.1.1,0,0h0L.1,9.6h0v.1a.2151.2151,0,0,0,.2.2H.4L3.5,9h0a.0979.0979,0,0,0,.1-.1L8.3,4.2,5.8,1.7ZM3.2,8.6.7,9.3l.7-2.6h.7v.9h0a.2151.2151,0,0,0,.2.2h.9ZM9.8,2.4h0L7.6.2h0A.3491.3491,0,0,0,7.4.1c-.1,0-.1,0-.2.1L6.1,1.3,8.6,3.8,9.8,2.6s.0009.0012.0765-.0932C9.8953,2.4833,9.8,2.4,9.8,2.4Z"/></g></svg>