<svg id="Layer_1" data-name="Layer 1" xmlns="http://www.w3.org/2000/svg" viewBox="0 0 10 10"><title>m-icon_compare-alt-o</title><path d="M7.7.7A.9748.9748,0,0,0,6.8.3,1.216,1.216,0,0,0,5.6,1.5a1.0838,1.0838,0,0,0,.8,1.1V3.8A1.11,1.11,0,0,1,5.3,4.9h-2V2.6a1.0718,1.0718,0,0,0,.9-1.1A1.216,1.216,0,0,0,3,.3,1.0784,1.0784,0,0,0,1.9,1.5a1.0838,1.0838,0,0,0,.8,1.1V7.4a1.1817,1.1817,0,0,0,.4,2.3A1.1554,1.1554,0,0,0,4.3,8.5a1.0838,1.0838,0,0,0-.8-1.1V5.6h2A1.7925,1.7925,0,0,0,7.3,3.8V2.6A1.2882,1.2882,0,0,0,8,1.5,1.1355,1.1355,0,0,0,7.7.7Zm-.4.8a.5357.5357,0,0,1-.5.5.6423.6423,0,0,1-.5-.5A.6423.6423,0,0,1,6.8,1,.4724.4724,0,0,1,7.3,1.5Zm-3.7,7a.5357.5357,0,0,1-.5.5.5.5,0,1,1,0-1A.5357.5357,0,0,1,3.6,8.5Zm0-7.1a.56.56,0,0,1-.5.6.5357.5357,0,0,1-.5-.5A.5357.5357,0,0,1,3.1,1,.4575.4575,0,0,1,3.6,1.4Z"/></svg>