<svg id="Layer_1" data-name="Layer 1" xmlns="http://www.w3.org/2000/svg" viewBox="0 0 10 10"><title>m-icon_chat-alt-o</title><path d="M9.772,2.5743A1.9363,1.9363,0,0,0,7.8561.7439H2.0711A1.8244,1.8244,0,0,0,.2273,2.5881V5.9145A1.8243,1.8243,0,0,0,2.0711,7.7583h.2532V9.593L4.8771,7.7583h3.051A1.8244,1.8244,0,0,0,9.7727,5.9145ZM3.12,7.9511V6.9632H2.0711A1.09,1.09,0,0,1,1.0225,5.9145V2.5881A1.09,1.09,0,0,1,2.0711,1.5394h5.857A1.09,1.09,0,0,1,8.9768,2.5842l-.072,3.2534v.0042A1.09,1.09,0,0,1,7.8561,6.8905H4.6169Z"/></svg>