<svg id="Layer_1" data-name="Layer 1" xmlns="http://www.w3.org/2000/svg" viewBox="0 0 10 10"><defs><style>.cls-1{fill:#010101;}</style></defs><title>m-icon_print-o</title><path class="cls-1" d="M7.945,3.7589a.55.55,0,1,0,.55.55A.55.55,0,0,0,7.945,3.7589Z"/><path class="cls-1" d="M9,2.8H8.1V.6A.5357.5357,0,0,0,7.6.1H2.4a.5357.5357,0,0,0-.5.5V2.8H1.1a.8816.8816,0,0,0-.9.8v4a.8963.8963,0,0,0,.9.9H2v.9a.5357.5357,0,0,0,.5.5H7.8a.5357.5357,0,0,0,.5-.5V8.5H9a.8963.8963,0,0,0,.9-.9v-4A.8816.8816,0,0,0,9,2.8ZM2.4.6H7.7V2.8H2.4ZM7.7,9.4H2.4V5.9H7.7ZM9.4,7.6a.5357.5357,0,0,1-.5.5H8.1V5.9a.5357.5357,0,0,0-.5-.5H2.4a.5357.5357,0,0,0-.5.5V8.1H1.1a.5357.5357,0,0,1-.5-.5v-4a.5357.5357,0,0,1,.5-.5l7.806.0484a.5357.5357,0,0,1,.5.5Z"/><path class="cls-1" d="M3.5,7.2H6.6a.2.2,0,0,0,0-.4H3.5a.2.2,0,0,0,0,.4Z"/><path class="cls-1" d="M3.5,8.5H5.7a.2.2,0,0,0,0-.4H3.5a.2.2,0,0,0,0,.4Z"/></svg>