<svg id="Layer_1" data-name="Layer 1" xmlns="http://www.w3.org/2000/svg" viewBox="0 0 10 10"><title>m-icon_eye-o</title><path d="M5,2.3C2.8,2.3.2,4.3.2,5S2.8,7.7,5,7.7,9.8,5.8,9.8,5,7.2,2.3,5,2.3ZM6.8,6.7A2.8367,2.8367,0,0,0,7.5,5a2.6092,2.6092,0,0,0-.7-1.7C8.2,3.8,9.2,4.7,9.2,5S8.1,6.2,6.8,6.7ZM5,3.1A1.9669,1.9669,0,0,1,6.9,5,1.9669,1.9669,0,0,1,5,6.9,1.9669,1.9669,0,0,1,3.1,5,1.9669,1.9669,0,0,1,5,3.1Zm-1.8.2A2.5232,2.5232,0,0,0,2.6,5a2.6092,2.6092,0,0,0,.7,1.7C1.9,6.2.8,5.3.8,5S1.9,3.8,3.2,3.3Z"/><circle cx="5" cy="5" r="0.9"/></svg>