<svg xmlns="http://www.w3.org/2000/svg" viewBox="0 0 10 10"><title>m-icon_box-check-o</title><path d="M7.5.4h-5A2.1123,2.1123,0,0,0,.4,2.5v5A2.1123,2.1123,0,0,0,2.5,9.6h5A2.1123,2.1123,0,0,0,9.6,7.5v-5A2.0506,2.0506,0,0,0,7.5.4ZM9,7.5A1.538,1.538,0,0,1,7.5,9h-5A1.538,1.538,0,0,1,1,7.5v-5A1.538,1.538,0,0,1,2.5,1h5A1.538,1.538,0,0,1,9,2.5Z"/><path d="M6.5,3.4,4.4,5.6l-.9-.9a.495.495,0,0,0-.7.7L4,6.6a.4711.4711,0,0,0,.6.1c.1,0,.1-.1.2-.1L7.3,4.1a.4833.4833,0,0,0,0-.7A.6048.6048,0,0,0,6.5,3.4Z"/></svg>