<svg id="Layer_1" data-name="Layer 1" xmlns="http://www.w3.org/2000/svg" viewBox="0 0 10 10"><title>m-icon_share</title><path d="M8.6.4A1.3237,1.3237,0,0,0,7.3,1.7v.2L2.4,4a1.2308,1.2308,0,0,0-1-.5A1.1554,1.1554,0,0,0,.2,4.7,1.3237,1.3237,0,0,0,1.5,6a1.33,1.33,0,0,0,.8-.3L5.6,7.9c0,.1-.1.3-.1.4A1.3237,1.3237,0,0,0,6.8,9.6,1.24,1.24,0,0,0,8,8.3,1.216,1.216,0,0,0,6.8,7.1a1.1355,1.1355,0,0,0-.8.3L2.6,5.2c0-.1.1-.3.1-.4V4.6L7.6,2.5a1.2308,1.2308,0,0,0,1,.5A1.3237,1.3237,0,0,0,9.9,1.7,1.3237,1.3237,0,0,0,8.6.4Z"/></svg>