<svg id="Layer_1" data-name="Layer 1" xmlns="http://www.w3.org/2000/svg" viewBox="0 0 41.6 10"><title>m-icon_logo</title><path d="M8,3.2C8,1.9,8.7.9,9.5.9S11,1.9,11,3.2s-.7,2.3-1.5,2.3S8,4.5,8,3.2"/><path d="M30.7,3.2c0-1.3.7-2.3,1.5-2.3s1.5,1,1.5,2.3S33,5.5,32.2,5.5s-1.5-1-1.5-2.3"/><path d="M19.3,2.8c0-1.4.7-2.5,1.6-2.5s1.6,1.1,1.6,2.5-.7,2.5-1.6,2.5-1.6-1.2-1.6-2.5"/><path d="M20.9,6.7c-1.8,0-3.6-5.2-5.7-5.2S11.4,6.7,9.5,6.7,6.1,1.4,3.7,1.4C2,1.5.3,3.6.3,3.6V5.2S1.6,2.6,3.7,2.6,7.5,9.7,9.5,9.7,13.3,3.1,15.2,3s3.5,6.7,5.7,6.7S24.7,3,26.5,3c1.9.1,3.7,6.7,5.7,6.7S35.9,2.6,38,2.6s3.4,2.6,3.4,2.6V3.6S39.8,1.4,38,1.4c-2.4,0-3.9,5.2-5.8,5.2s-3.7-5.2-5.7-5.2c-2,.1-3.8,5.3-5.6,5.3"/></svg>