<svg id="Layer_1" data-name="Layer 1" xmlns="http://www.w3.org/2000/svg" viewBox="0 0 10 10"><title>m-icon_lock-open-o</title><path d="M5,5.6a.6835.6835,0,0,0-.7.7.6752.6752,0,0,0,.4.6v.7a.2.2,0,1,0,.4,0V6.8848c.2148-.0727.3863-.0749.455-.5375A.6315.6315,0,0,0,5,5.6Z"/><path d="M7.8,3.6H7.4V2.5h0A2.369,2.369,0,0,0,5,.1,2.342,2.342,0,0,0,3.3.8a.1875.1875,0,0,0,0,.3.1875.1875,0,0,0,.3,0A2.1678,2.1678,0,0,1,5,.6,1.8987,1.8987,0,0,1,6.9,2.5h0V3.6H2.1a.8168.8168,0,0,0-.8.9V8.8a.8963.8963,0,0,0,.9.9H7.9a.8963.8963,0,0,0,.9-.9V4.5A1.0634,1.0634,0,0,0,7.8,3.6Zm.4,5.3a.43.43,0,0,1-.4.4H2.1a.43.43,0,0,1-.4-.4V4.5A.4575.4575,0,0,1,2.1,4H7.8a.4575.4575,0,0,1,.4.5Z"/></svg>