<svg id="Layer_1" data-name="Layer 1" xmlns="http://www.w3.org/2000/svg" viewBox="0 0 10 10"><title>m-icon_export-o</title><path d="M9.6482,4.7762l-1.39-1.39a.4078.4078,0,1,0-.5767.5768l.7225.7224H2.4732a.3873.3873,0,0,0,0,.7745H8.4041l-.7226.7225a.4078.4078,0,1,0,.5767.5768l1.39-1.39a.4331.4331,0,0,0,0-.593Z"/><path d="M6.486,6.8156a.3149.3149,0,0,0-.3141.314V8.3749H.8281V1.9719H6.1719V3.2172a.3141.3141,0,0,0,.6281,0V1.6578a.3149.3149,0,0,0-.314-.314c-.0064,0-.01.0064-.0165.0068s-.01-.0068-.0164-.0068H.514a.3149.3149,0,0,0-.314.314V8.689a.3149.3149,0,0,0,.314.3141H6.4531c.0064,0,.01-.0065.0164-.0069s.01.0069.0165.0069A.315.315,0,0,0,6.8,8.689V7.13A.3149.3149,0,0,0,6.486,6.8156Z"/></svg>