<svg id="Layer_1" data-name="Layer 1" xmlns="http://www.w3.org/2000/svg" viewBox="0 0 10 10"><defs><style>.cls-1{fill:#010101;}</style></defs><title>m-icon_save-o</title><g id="_785-floppy-disk-toolbar_2x.png" data-name="785-floppy-disk-toolbar@2x.png"><path class="cls-1" d="M2.6,4.1a.4724.4724,0,0,0,.5.5H6.9a.4724.4724,0,0,0,.5-.5V1.7H2.6Zm.5-1.9H6.9V4.1H3.1ZM7.8.3H1.2a.8963.8963,0,0,0-.9.9V8.7a.8963.8963,0,0,0,.9.9H8.7a.8963.8963,0,0,0,.9-.9V2.2Zm0,8.9H2.2V5.9H7.8Zm1.4-.4a.43.43,0,0,1-.4.4H8.3V5.9a.4724.4724,0,0,0-.5-.5H2.2a.4724.4724,0,0,0-.5.5V9.2H1.2a.43.43,0,0,1-.4-.4V1.2A.43.43,0,0,1,1.2.8H7.5L9.1,2.4C9.2,2.4,9.2,8.8,9.2,8.8Z"/></g></svg>