<svg id="Layer_1" data-name="Layer 1" xmlns="http://www.w3.org/2000/svg" viewBox="0 0 10 10"><title>m-icon_power-o</title><path d="M8.4,1.9a.4542.4542,0,0,0-.5,0,.4542.4542,0,0,0,0,.5A3.784,3.784,0,0,1,9.1,5.2,3.6313,3.6313,0,0,1,7.9,8,3.6313,3.6313,0,0,1,5.1,9.2,3.6313,3.6313,0,0,1,2.3,8,3.6313,3.6313,0,0,1,1.1,5.2,3.6313,3.6313,0,0,1,2.3,2.4a.4542.4542,0,0,0,0-.5.4542.4542,0,0,0-.5,0A4.5343,4.5343,0,0,0,.4,5.2,4.7056,4.7056,0,0,0,1.8,8.5,4.5343,4.5343,0,0,0,5.1,9.9,4.3738,4.3738,0,0,0,8.4,8.5a4.5893,4.5893,0,0,0,0-6.6Z"/><path d="M5.1,5.2a.43.43,0,0,0,.4-.4V.4A.3663.3663,0,0,0,5.1,0a.43.43,0,0,0-.4.4V4.8A.3663.3663,0,0,0,5.1,5.2Z"/></svg>