<svg id="Layer_1" data-name="Layer 1" xmlns="http://www.w3.org/2000/svg" viewBox="0 0 10 10"><title>m-icon_copy-o</title><path d="M8.1,1.5H6.8V1.1A.4724.4724,0,0,0,6.3.6h-1V.5C5.3.3,5.1986.1763,5,.2c-.095.0114-.2.1-.2.3V.6h-1a.4724.4724,0,0,0-.5.5v.4H2a.4724.4724,0,0,0-.5.5V9.3a.4724.4724,0,0,0,.5.5H8a.4724.4724,0,0,0,.5-.5L8.6,2A.4724.4724,0,0,0,8.1,1.5ZM3.8,1.2H6.2V2.4H3.8ZM8,9.2H7.3L8,8.5ZM8,7.7,6.4,9.2H2.1V2.1H3.3v.4c.0039.3373.2.4.5.4H6.4a.4724.4724,0,0,0,.5-.5V2.1H8Z"/><path d="M2.832,4.3584a.284.284,0,0,0,.2832.2831H7.113a.2831.2831,0,0,0,0-.5662H3.1152A.284.284,0,0,0,2.832,4.3584Z"/><path d="M3.0832,5.9747H5.7356a.2832.2832,0,1,0,0-.5663H3.0832a.2832.2832,0,1,0,0,.5663Z"/><path d="M7.0489,6.6584H3.1152a.2832.2832,0,1,0,0,.5663H7.0489a.2832.2832,0,0,0,0-.5663Z"/></svg>