<svg xmlns="http://www.w3.org/2000/svg" viewBox="0 0 10 10"><title>m-icon_bloomberg</title><path d="M8,2.4,6,.4,5.9.3H.3V9.7H9.7V4.1ZM4.5,8.7a2.7686,2.7686,0,0,1-.9.1H1.2c0-2.2,0-4.4.1-6.5H3.8a3.194,3.194,0,0,1,1.4.3,1.5714,1.5714,0,0,1-.4,2.6c-.1,0-.1.1-.2.1.2.1.2.1.3.1A1.5563,1.5563,0,0,1,6,7.1,1.7082,1.7082,0,0,1,4.5,8.7Z"/><path d="M4.3,6a12.7506,12.7506,0,0,0-1.9-.1V7.8a7.5687,7.5687,0,0,0,1.5-.1h.5a.8745.8745,0,0,0,.5-.9A.76.76,0,0,0,4.3,6Z"/><path d="M3.7,4.9a.91.91,0,0,0,.8-.4.8023.8023,0,0,0-.4-1.2,4.879,4.879,0,0,0-1.7-.1V4.9H3.7Z"/></svg>