<svg id="Layer_1" data-name="Layer 1" xmlns="http://www.w3.org/2000/svg" viewBox="0 0 10 10"><title>m-icon_key-o</title><path d="M9.7,7.6,6.2,4.2a1.95,1.95,0,0,0,.1-.8,2.9207,2.9207,0,0,0-.8606-2.1318A2.675,2.675,0,0,0,3.3.3a3.0085,3.0085,0,0,0-3,3,3.0759,3.0759,0,0,0,3,3,1.95,1.95,0,0,0,.8-.1L5.8,8c0,.1.1.1.2.1h.6v.6a.4508.4508,0,0,0,.3.3h.6v.6a.2652.2652,0,0,0,.3.3H9.5a.2652.2652,0,0,0,.3-.3V7.8A.31.31,0,0,1,9.7,7.6Zm-2,.7H7.2V7.8a.2652.2652,0,0,0-.3-.3H6.2L4.4,5.7c-.1,0-.1-.1-.2-.1h0a5.0725,5.0725,0,0,1-.9.2A2.4757,2.4757,0,0,1,.8,3.3a2.4505,2.4505,0,1,1,4.9,0,2.2018,2.2018,0,0,1-.1.8h0v.1c0,.1,0,.2.1.2L9.1,7.9V9.2H8V8.6A.3193.3193,0,0,0,7.7,8.3Z"/><path d="M2.7,1.8a.9.9,0,1,0,.9.9A.8963.8963,0,0,0,2.7,1.8Zm0,1.2583c-.2,0-.3-.1583-.3-.3583a.2652.2652,0,0,1,.3-.3.2652.2652,0,0,1,.3.3C3,2.9,2.9,3.0583,2.7,3.0583Z"/></svg>