<svg id="Layer_1" data-name="Layer 1" xmlns="http://www.w3.org/2000/svg" viewBox="0 0 10 10"><defs><style>.cls-1{fill:#010101;}</style></defs><title>m-icon_light-off-o</title><g id="_941-brightness-toolbar_2x.png" data-name="941-brightness-toolbar@2x.png"><path class="cls-1" d="M5,2.7A2.263,2.263,0,0,0,2.7,5,2.263,2.263,0,0,0,5,7.3,2.263,2.263,0,0,0,7.3,5,2.263,2.263,0,0,0,5,2.7ZM5,6.9A1.9669,1.9669,0,0,1,3.1,5,1.9669,1.9669,0,0,1,5,3.1,1.9669,1.9669,0,0,1,6.9,5,1.9669,1.9669,0,0,1,5,6.9Z"/></g></svg>