<svg id="Layer_1" data-name="Layer 1" xmlns="http://www.w3.org/2000/svg" viewBox="0 0 10 10"><title>m-icon_compare</title><path d="M4.0463,5.4654A.3518.3518,0,1,0,4.56,4.9842l-1.6033-1.71H8.1435a.3518.3518,0,1,0,0-.7036H3.0566L4.8819.8593A.3518.3518,0,1,0,4.4008.346l-2.4749,2.32a.3441.3441,0,0,0-.1058.258.3449.3449,0,0,0,.09.2624Z"/><path d="M6.2662,4.5346a.3518.3518,0,1,0-.5133.4812l1.6033,1.71H2.169a.3518.3518,0,0,0,0,.7036H7.2559L5.4306,9.1407a.3518.3518,0,1,0,.4811.5133l2.4749-2.32a.395.395,0,0,0,.016-.52Z"/></svg>