<svg id="Layer_1" data-name="Layer 1" xmlns="http://www.w3.org/2000/svg" viewBox="0 0 10 10"><defs><style>.cls-1{fill:#010101;}</style></defs><title>m-icon_mail</title><g id="_730-envelope-toolbar-selected_2x.png" data-name="730-envelope-toolbar-selected@2x.png"><path class="cls-1" d="M5.3,6,9.4,1.5H.6L4.7,6A.375.375,0,0,0,5.3,6ZM.1,1.6a.3491.3491,0,0,1-.1.2V8.1c0,.1,0,.2.1.2L3.2,5ZM5.6,6.3a1.0489,1.0489,0,0,1-1.3,0l-.8-.9L.6,8.6H9.4l-3-3.2ZM9.8,1.6l-3,3.5L9.9,8.4a.31.31,0,0,0,.1-.2V1.9C9.9,1.8,9.9,1.7,9.8,1.6Z"/></g></svg>