<svg id="Layer_1" data-name="Layer 1" xmlns="http://www.w3.org/2000/svg" viewBox="0 0 10 10"><title>m-icon_resize-grow</title><path d="M3.7035,9.8234a.3959.3959,0,0,0,.2932-.3225.3956.3956,0,0,0-.3225-.2932L1.698,9.1784,4.7473,5.8241a.3487.3487,0,1,0-.516-.4691l-2.9906,3.29L1.2,6.4868a.2652.2652,0,0,0-.258-.2346.3959.3959,0,0,0-.2932.3225L.666,9.5361a.3043.3043,0,0,0,.07.1817.32.32,0,0,0,.2521.1115Z"/><path d="M6.3493.2069a.3959.3959,0,0,0-.2908.3247.3961.3961,0,0,0,.3247.2908L8.36.8371,5.3351,4.2137a.3487.3487,0,1,0,.5195.4653L8.8209,1.3673l.057,2.1576a.265.265,0,0,0,.26.2326.3958.3958,0,0,0,.2908-.3246L9.3889.4717A.3043.3043,0,0,0,9.3172.2905a.32.32,0,0,0-.253-.11Z"/></svg>