<svg id="Layer_1" data-name="Layer 1" xmlns="http://www.w3.org/2000/svg" viewBox="0 0 10 10"><defs><style>.cls-1{fill:#010101;}</style></defs><title>m-icon_zoom-in-o</title><path class="cls-1" d="M9.6505,9.0847l-2.882-2.882A3.6331,3.6331,0,0,0,7.578,3.932a3.67,3.67,0,1,0-3.67,3.67,3.6345,3.6345,0,0,0,2.323-.8527L9.1085,9.6267a.3833.3833,0,0,0,.542-.542ZM3.9081,6.9027A2.9705,2.9705,0,1,1,6.8788,3.932,2.9741,2.9741,0,0,1,3.9081,6.9027Z"/><path class="cls-1" d="M5.3874,3.49H4.33V2.387a.402.402,0,0,0-.8039,0V3.49H2.4679a.402.402,0,0,0,0,.8039H3.5257V5.3065a.402.402,0,1,0,.8039,0V4.2943H5.3874a.402.402,0,1,0,0-.8039Z"/></svg>