<svg xmlns="http://www.w3.org/2000/svg" viewBox="0 0 10 10"><title>m-icon_archive-o</title><path d="M9.5,5.9,8.3,1.5c0-.1-.2-.2-.3-.2H6.7a.2652.2652,0,0,0-.3.3.2652.2652,0,0,0,.3.3h1L8.8,5.7H7.2c-.7,0-1,.5-1.3.9a.4508.4508,0,0,1-.3.3H4.4c-.1,0-.2-.2-.3-.4a1.5748,1.5748,0,0,0-1.3-.8H1.2L2.3,1.9h1a.2652.2652,0,0,0,.3-.3c0-.2-.1-.4-.3-.4H2c-.1,0-.275.0687-.3.2L.5,5.9V9.2c0,.2.1.4.3.4H9.2a.2652.2652,0,0,0,.3-.3V6A.8518.8518,0,0,0,9.5,5.9ZM8.9,8.8H1.1V6.3H2.8c.3,0,.5.3.7.5.2.3.4.7.9.7H5.6c.5,0,.7-.3.9-.7.2-.3.4-.5.7-.5H8.9Z"/><path d="M3.3,4.5a.3674.3674,0,0,0,.1.3L4.7,6.1a.3674.3674,0,0,0,.3.1.3674.3674,0,0,0,.3-.1L6.6,4.8a.3674.3674,0,0,0,.1-.3.43.43,0,0,0-.4-.4.3674.3674,0,0,0-.3.1l-.6.6V.8A.43.43,0,0,0,5,.4c-.2,0-.4.1-.4.3v4L4,4.2c-.1859-.1435-.1968-.1075-.2968-.1075A.44.44,0,0,0,3.3,4.5Z"/></svg>