<svg width="28" height="28" viewBox="0 0 28 28" fill="none" xmlns="http://www.w3.org/2000/svg">
<path fill-rule="evenodd" clip-rule="evenodd" d="M9.39826 2.39771C9.99994 1.79603 10.816 1.45801 11.6669 1.45801H16.3336C17.1845 1.45801 18.0005 1.79603 18.6022 2.39771C19.2039 2.99939 19.5419 3.81544 19.5419 4.66634V6.12467H22.1669C23.0178 6.12467 23.8339 6.46269 24.4355 7.06437C25.0372 7.66605 25.3752 8.4821 25.3752 9.33301V15.4435C25.3755 15.4569 25.3755 15.4703 25.3752 15.4836V20.9997C25.3752 21.8506 25.0372 22.6666 24.4355 23.2683C23.8339 23.87 23.0178 24.208 22.1669 24.208H5.83356C4.98266 24.208 4.16661 23.87 3.56493 23.2683C2.96325 22.6666 2.62523 21.8506 2.62523 20.9997V15.4836C2.62492 15.4703 2.62492 15.4569 2.62523 15.4435V9.33301C2.62523 8.4821 2.96325 7.66605 3.56493 7.06437C4.16661 6.46269 4.98266 6.12467 5.83356 6.12467H8.45856V4.66634C8.45856 3.81544 8.79659 2.99939 9.39826 2.39771ZM10.2086 6.12467H17.7919V4.66634C17.7919 4.27957 17.6383 3.90863 17.3648 3.63514C17.0913 3.36165 16.7203 3.20801 16.3336 3.20801H11.6669C11.2801 3.20801 10.9092 3.36165 10.6357 3.63514C10.3622 3.90863 10.2086 4.27957 10.2086 4.66634V6.12467ZM5.83356 7.87467C5.44679 7.87467 5.07586 8.02832 4.80237 8.30181C4.52888 8.5753 4.37523 8.94623 4.37523 9.33301V14.8671C7.36616 16.0024 10.609 16.6247 14.0002 16.6247C17.29 16.6287 20.5523 16.0325 23.6252 14.8669V9.33301C23.6252 8.94623 23.4716 8.5753 23.1981 8.30181C22.9246 8.02832 22.5537 7.87467 22.1669 7.87467H5.83356ZM14.0002 18.3747C17.2819 18.3786 20.5369 17.8214 23.6252 16.7305L14.0002 18.3747ZM23.6252 16.7305V20.9997C23.6252 21.3864 23.4716 21.7574 23.1981 22.0309C22.9246 22.3044 22.5537 22.458 22.1669 22.458H5.83356C5.44679 22.458 5.07586 22.3044 4.80237 22.0309C4.52888 21.7574 4.37523 21.3864 4.37523 20.9997V16.7308C7.38684 17.7952 10.6264 18.3746 14.0002 18.3747M13.1252 13.9997C13.1252 13.5164 13.517 13.1247 14.0002 13.1247H14.0119C14.4951 13.1247 14.8869 13.5164 14.8869 13.9997C14.8869 14.4829 14.4951 14.8747 14.0119 14.8747H14.0002C13.517 14.8747 13.1252 14.4829 13.1252 13.9997Z" fill="#467FD8"/>
</svg>
