<svg width="28" height="28" viewBox="0 0 28 28" fill="none" xmlns="http://www.w3.org/2000/svg">
<g clip-path="url(#clip0_213_3125)">
<path fill-rule="evenodd" clip-rule="evenodd" d="M20.1055 23.6247C20.1052 23.5934 20.0956 23.5629 20.078 23.5371C20.0604 23.5112 20.0355 23.4911 20.0065 23.4793C19.9775 23.4676 19.9457 23.4647 19.915 23.471C19.8844 23.4773 19.8562 23.4925 19.8342 23.5147C19.8122 23.537 19.7973 23.5652 19.7913 23.596C19.7853 23.6267 19.7885 23.6585 19.8006 23.6874C19.8126 23.7163 19.8329 23.7409 19.859 23.7583C19.885 23.7756 19.9156 23.7849 19.9469 23.7849C19.9679 23.7849 19.9886 23.7808 20.008 23.7727C20.0273 23.7646 20.0449 23.7528 20.0596 23.7379C20.0744 23.723 20.086 23.7053 20.0939 23.6859C20.1018 23.6665 20.1057 23.6457 20.1055 23.6247ZM20.9805 23.6247C20.981 23.8293 20.9208 24.0295 20.8075 24.1999C20.6941 24.3702 20.5328 24.5031 20.3439 24.5818C20.155 24.6604 19.947 24.6812 19.7463 24.6416C19.5456 24.602 19.3611 24.5036 19.2163 24.3591C19.0714 24.2146 18.9727 24.0303 18.9327 23.8297C18.8926 23.629 18.913 23.421 18.9912 23.2319C19.0695 23.0429 19.202 22.8813 19.3722 22.7676C19.5423 22.6539 19.7423 22.5933 19.9469 22.5933C20.2205 22.594 20.4827 22.7028 20.6763 22.896C20.8699 23.0892 20.9793 23.3512 20.9805 23.6247ZM19.9762 16.4638H19.9176C19.8605 16.4634 19.804 16.4751 19.7518 16.4982C19.6996 16.5212 19.6529 16.5551 19.6148 16.5976C19.5766 16.6401 19.548 16.6902 19.5307 16.7446C19.5134 16.799 19.5078 16.8564 19.5144 16.9131L19.9469 20.941L20.3789 16.9131C20.3855 16.8564 20.38 16.799 20.3627 16.7446C20.3455 16.6903 20.3168 16.6402 20.2787 16.5977C20.2407 16.5552 20.194 16.5213 20.1418 16.4982C20.0896 16.4751 20.0332 16.4634 19.9761 16.4638H19.9762ZM19.9762 15.5887C20.1559 15.589 20.3335 15.627 20.4976 15.7003C20.6616 15.7736 20.8084 15.8806 20.9284 16.0143C21.0485 16.1481 21.139 16.3055 21.1943 16.4765C21.2495 16.6475 21.2681 16.8282 21.249 17.0069L20.7462 21.695C20.7251 21.8923 20.6318 22.0748 20.4842 22.2074C20.3367 22.34 20.1453 22.4134 19.9469 22.4134C19.7485 22.4134 19.5571 22.34 19.4095 22.2074C19.262 22.0748 19.1687 21.8923 19.1476 21.695L18.6444 17.0069C18.6253 16.8282 18.644 16.6475 18.6992 16.4764C18.7545 16.3054 18.8451 16.1479 18.9651 16.0142C19.0852 15.8805 19.2321 15.7735 19.3962 15.7002C19.5603 15.6269 19.7379 15.5889 19.9177 15.5887H19.9762ZM12.667 23.0973L13.7488 21.226H0.891168V23.0973H12.667ZM2.95163 20.351H4.82489V15.3933H2.95163V20.351ZM7.81832 20.351H9.69071V9.89653H7.81822V20.351H7.81832ZM12.6846 20.351H14.2536L14.5575 19.8236V12.6469H12.6846V20.351ZM17.5505 14.6396L18.8466 12.3971C18.9793 12.1654 19.181 11.981 19.4236 11.8697V7.15013H17.5505V14.6396ZM20.2887 12.8346L27.085 24.6016C27.1216 24.6616 27.1409 24.7306 27.1409 24.8009C27.1409 24.8712 27.1216 24.9401 27.085 25.0001C27.0516 25.0613 27.0019 25.1119 26.9414 25.1464C26.8808 25.1809 26.8119 25.1979 26.7423 25.1955H13.1511C13.0815 25.1978 13.0126 25.1808 12.9521 25.1463C12.8916 25.1118 12.8419 25.0612 12.8084 25.0001C12.7719 24.9401 12.7525 24.8712 12.7525 24.8009C12.7525 24.7306 12.7719 24.6616 12.8084 24.6016L19.6047 12.8344C19.639 12.7739 19.6887 12.7236 19.7488 12.6886C19.8089 12.6536 19.8772 12.6352 19.9467 12.6352C20.0162 12.6352 20.0845 12.6536 20.1446 12.6886C20.2047 12.7236 20.2544 12.7739 20.2887 12.8344V12.8346ZM12.0509 24.168L12.1619 23.9727H0.453613C0.337581 23.9727 0.226301 23.9266 0.144254 23.8445C0.0622069 23.7625 0.0161133 23.6512 0.0161133 23.5352V20.7886C0.0161133 20.6726 0.0622069 20.5613 0.144254 20.4792C0.226301 20.3972 0.337581 20.3511 0.453613 20.3511H2.0769V14.9558C2.0769 14.8398 2.12295 14.7286 2.20493 14.6465C2.2869 14.5645 2.3981 14.5184 2.51407 14.5183H5.26245C5.31989 14.5183 5.37678 14.5296 5.42985 14.5515C5.48292 14.5735 5.53114 14.6058 5.57174 14.6464C5.61234 14.687 5.64454 14.7353 5.66648 14.7884C5.68842 14.8414 5.69969 14.8983 5.69962 14.9558V20.351H6.9436V9.45892C6.94354 9.40145 6.95482 9.34454 6.97678 9.29143C6.99875 9.23832 7.03097 9.19007 7.07161 9.14943C7.11225 9.1088 7.1605 9.07657 7.21361 9.05461C7.26671 9.03264 7.32363 9.02136 7.3811 9.02142H10.1282C10.1857 9.02136 10.2426 9.03264 10.2957 9.05461C10.3488 9.07657 10.3971 9.1088 10.4377 9.14943C10.4783 9.19007 10.5106 9.23832 10.5325 9.29143C10.5545 9.34454 10.5658 9.40145 10.5657 9.45892V20.351H11.8093V12.2093C11.8092 12.1519 11.8205 12.0949 11.8424 12.0418C11.8644 11.9887 11.8966 11.9405 11.9373 11.8998C11.9779 11.8592 12.0262 11.827 12.0793 11.805C12.1324 11.783 12.1893 11.7718 12.2468 11.7718H14.9947C15.0522 11.7718 15.1091 11.7831 15.1622 11.805C15.2153 11.827 15.2636 11.8592 15.3042 11.8998C15.3449 11.9405 15.3771 11.9887 15.399 12.0418C15.421 12.0949 15.4323 12.1519 15.4322 12.2093V18.3078L16.6753 16.1552V6.71246C16.6753 6.65502 16.6865 6.59812 16.7085 6.54504C16.7304 6.49195 16.7626 6.44371 16.8032 6.40307C16.8438 6.36244 16.892 6.33021 16.9451 6.30823C16.9982 6.28624 17.0551 6.27494 17.1125 6.27496H19.8606C19.918 6.2749 19.975 6.28618 20.0281 6.30815C20.0812 6.33011 20.1294 6.36234 20.1701 6.40297C20.2107 6.44361 20.2429 6.49186 20.2649 6.54497C20.2868 6.59807 20.2981 6.65499 20.2981 6.71246V11.8108C20.6153 11.8995 20.8844 12.1102 21.0466 12.3968L27.8429 24.168C27.9545 24.3609 28.0133 24.5799 28.0133 24.8028C28.0133 25.0257 27.9545 25.2447 27.8429 25.4376C27.7313 25.6306 27.5708 25.7907 27.3775 25.9018C27.1843 26.0129 26.9652 26.0712 26.7423 26.0706H13.1511C12.9282 26.0711 12.7091 26.0128 12.516 25.9016C12.3228 25.7905 12.1624 25.6304 12.0508 25.4374C11.9392 25.2445 11.8805 25.0256 11.8805 24.8027C11.8806 24.5798 11.9393 24.3609 12.0509 24.168ZM3.56107 10.3458L8.427 4.85287C8.49282 4.77716 8.58275 4.72649 8.68161 4.7094C8.78046 4.69231 8.88219 4.70986 8.96961 4.75908L13.5347 7.33754L17.7111 2.8291H16.6515C16.5355 2.8291 16.4242 2.78301 16.3421 2.70096C16.2601 2.61891 16.214 2.50763 16.214 2.3916C16.214 2.27557 16.2601 2.16429 16.3421 2.08224C16.4242 2.0002 16.5355 1.9541 16.6515 1.9541H18.7127C18.8286 1.95479 18.9394 2.00111 19.0213 2.083C19.1032 2.1649 19.1495 2.27578 19.1502 2.3916V4.45441C19.1502 4.57045 19.1041 4.68173 19.0221 4.76377C18.94 4.84582 18.8288 4.89191 18.7127 4.89191C18.5967 4.89191 18.4854 4.84582 18.4034 4.76377C18.3213 4.68173 18.2752 4.57045 18.2752 4.45441V3.50892L13.9418 8.18536C13.8748 8.25738 13.7857 8.30495 13.6886 8.32052C13.5915 8.33609 13.492 8.31875 13.4059 8.27127L8.84782 5.6967L4.2165 10.9279C4.13901 11.0137 4.03077 11.0653 3.91535 11.0717C3.79993 11.078 3.68668 11.0385 3.60027 10.9617C3.51385 10.8849 3.46128 10.7771 3.45398 10.6618C3.44669 10.5464 3.48528 10.4328 3.56134 10.3458H3.56107Z" fill="#467FD8"/>
</g>
<defs>
<clipPath id="clip0_213_3125">
<rect width="28" height="28" fill="white"/>
</clipPath>
</defs>
</svg>
