<svg width="28" height="28" viewBox="0 0 28 28" fill="none" xmlns="http://www.w3.org/2000/svg">
<g clip-path="url(#clip0_213_3131)">
<path d="M26.6875 24.0625C26.5715 24.0625 26.4602 24.1086 26.3781 24.1906C26.2961 24.2727 26.25 24.384 26.25 24.5V26.25H25.375V24.0625C25.375 23.9465 25.3289 23.8352 25.2469 23.7531C25.1648 23.6711 25.0535 23.625 24.9375 23.625C24.8215 23.625 24.7102 23.6711 24.6281 23.7531C24.5461 23.8352 24.5 23.9465 24.5 24.0625V26.25H23.625V22.75C23.625 22.634 23.5789 22.5227 23.4969 22.4406C23.4148 22.3586 23.3035 22.3125 23.1875 22.3125C23.0715 22.3125 22.9602 22.3586 22.8781 22.4406C22.7961 22.5227 22.75 22.634 22.75 22.75V26.25H21.875V25.375C21.875 25.259 21.8289 25.1477 21.7469 25.0656C21.6648 24.9836 21.5535 24.9375 21.4375 24.9375C21.3215 24.9375 21.2102 24.9836 21.1281 25.0656C21.0461 25.1477 21 25.259 21 25.375V26.25H19.6875V24.5C19.6875 24.384 19.6414 24.2727 19.5594 24.1906C19.4773 24.1086 19.366 24.0625 19.25 24.0625C19.134 24.0625 19.0227 24.1086 18.9406 24.1906C18.8586 24.2727 18.8125 24.384 18.8125 24.5V26.25H17.9375V24.5C17.9375 24.384 17.8914 24.2727 17.8094 24.1906C17.7273 24.1086 17.616 24.0625 17.5 24.0625C17.384 24.0625 17.2727 24.1086 17.1906 24.1906C17.1086 24.2727 17.0625 24.384 17.0625 24.5V26.25H16.1875V24.0625C16.1875 23.9465 16.1414 23.8352 16.0594 23.7531C15.9773 23.6711 15.866 23.625 15.75 23.625C15.634 23.625 15.5227 23.6711 15.4406 23.7531C15.3586 23.8352 15.3125 23.9465 15.3125 24.0625V26.25H14.4375V22.75C14.4375 22.634 14.3914 22.5227 14.3094 22.4406C14.2273 22.3586 14.116 22.3125 14 22.3125C13.884 22.3125 13.7727 22.3586 13.6906 22.4406C13.6086 22.5227 13.5625 22.634 13.5625 22.75V26.25H12.6875V25.375C12.6875 25.259 12.6414 25.1477 12.5594 25.0656C12.4773 24.9836 12.366 24.9375 12.25 24.9375C12.134 24.9375 12.0227 24.9836 11.9406 25.0656C11.8586 25.1477 11.8125 25.259 11.8125 25.375V26.25H10.5V25.375C10.5 25.259 10.4539 25.1477 10.3719 25.0656C10.2898 24.9836 10.1785 24.9375 10.0625 24.9375C9.94647 24.9375 9.83519 24.9836 9.75314 25.0656C9.67109 25.1477 9.625 25.259 9.625 25.375V26.25H8.75V24.0625C8.75 23.9465 8.70391 23.8352 8.62186 23.7531C8.53981 23.6711 8.42853 23.625 8.3125 23.625C8.19647 23.625 8.08519 23.6711 8.00314 23.7531C7.92109 23.8352 7.875 23.9465 7.875 24.0625V26.25H7V22.3125C7 22.1965 6.95391 22.0852 6.87186 22.0031C6.78981 21.9211 6.67853 21.875 6.5625 21.875C6.44647 21.875 6.33519 21.9211 6.25314 22.0031C6.17109 22.0852 6.125 22.1965 6.125 22.3125V26.25H5.25V23.1875C5.25 23.0715 5.20391 22.9602 5.12186 22.8781C5.03981 22.7961 4.92853 22.75 4.8125 22.75C4.69647 22.75 4.58519 22.7961 4.50314 22.8781C4.42109 22.9602 4.375 23.0715 4.375 23.1875V26.25H3.5V24.5C3.5 24.384 3.45391 24.2727 3.37186 24.1906C3.28981 24.1086 3.17853 24.0625 3.0625 24.0625C2.94647 24.0625 2.83519 24.1086 2.75314 24.1906C2.67109 24.2727 2.625 24.384 2.625 24.5V26.25H1.75V18.966L4.63313 15.362L5.70593 18.9383C5.72768 19.0108 5.76787 19.0764 5.82258 19.1287C5.87728 19.1811 5.94463 19.2183 6.01804 19.2368C6.09144 19.2553 6.16839 19.2545 6.24137 19.2343C6.31434 19.2142 6.38084 19.1755 6.43437 19.1219L7.72734 17.8288L10.0978 23.3598C10.1312 23.4378 10.1866 23.5044 10.2571 23.5514C10.3277 23.5985 10.4104 23.6241 10.4952 23.625H10.5C10.584 23.625 10.6662 23.6008 10.7369 23.5554C10.8075 23.5099 10.8635 23.445 10.8983 23.3686L14.8413 14.6938L16.654 19.4071C16.683 19.4823 16.7322 19.5482 16.7962 19.5972C16.8602 19.6463 16.9365 19.6767 17.0167 19.6852C17.0969 19.6936 17.1779 19.6797 17.2507 19.6449C17.3235 19.6102 17.3853 19.5561 17.4292 19.4884L21.6573 12.9836L22.8033 15.0845C22.8436 15.1584 22.9044 15.2191 22.9784 15.2593C23.0524 15.2996 23.1364 15.3176 23.2204 15.3112C23.3043 15.3049 23.3847 15.2744 23.4518 15.2235C23.5189 15.1727 23.5698 15.1035 23.5986 15.0244L24.5744 12.3407L25.5582 13.0435C25.6162 13.085 25.6835 13.1116 25.7542 13.1211C25.8248 13.1306 25.8968 13.1227 25.9637 13.0981C26.0306 13.0734 26.0904 13.0328 26.1381 12.9797C26.1857 12.9267 26.2196 12.8628 26.2369 12.7936L27.1119 9.29359C27.1263 9.2377 27.1295 9.17951 27.1213 9.12238C27.1131 9.06525 27.0937 9.0103 27.0642 8.9607C27.0347 8.91111 26.9956 8.86784 26.9493 8.8334C26.903 8.79896 26.8504 8.77402 26.7944 8.76002C26.7384 8.74602 26.6802 8.74325 26.6231 8.75184C26.566 8.76044 26.5112 8.78025 26.4618 8.81012C26.4124 8.84 26.3694 8.87935 26.3353 8.92591C26.3012 8.97247 26.2767 9.02531 26.2631 9.08141L25.5439 11.958L24.8849 11.4873L25.3487 10.212C25.3883 10.103 25.3831 9.98262 25.334 9.87747C25.2849 9.77231 25.1961 9.69096 25.087 9.65131C24.978 9.61165 24.8576 9.61694 24.7525 9.66602C24.6473 9.71509 24.566 9.80393 24.5263 9.91298L24.1458 10.9594L23.0043 10.144C22.9562 10.1096 22.9017 10.0854 22.844 10.0727C22.7863 10.06 22.7267 10.0591 22.6686 10.0701C22.6106 10.0811 22.5554 10.1037 22.5063 10.1366C22.4572 10.1695 22.4153 10.212 22.3832 10.2616L21.7232 11.2768L20.9467 9.85299C20.9102 9.78619 20.857 9.73005 20.7922 9.69012C20.7275 9.65018 20.6534 9.62783 20.5773 9.62526C20.5013 9.6227 20.4259 9.64002 20.3586 9.67551C20.2913 9.71099 20.2344 9.76342 20.1935 9.82762L17.3141 14.352L15.402 13.7146L15.2831 13.4054C15.2522 13.325 15.1982 13.2554 15.1278 13.2056C15.0575 13.1557 14.974 13.1277 14.8878 13.1252C14.8016 13.1226 14.7166 13.1455 14.6434 13.1911C14.5702 13.2367 14.5122 13.3029 14.4765 13.3814L14.1856 14.0219L11.6775 16.2164L10.9315 11.7406C10.9183 11.6613 10.8835 11.5872 10.8309 11.5264C10.7784 11.4656 10.7101 11.4204 10.6335 11.3959C10.557 11.3713 10.4751 11.3684 10.397 11.3873C10.3189 11.4062 10.2475 11.4463 10.1906 11.5031L6.96752 14.7262L5.08594 13.2209C5.02677 13.1735 4.95631 13.1423 4.88146 13.1304C4.80661 13.1185 4.72994 13.1262 4.65899 13.1529L1.75 14.2437V1.3125C1.75 1.19647 1.70391 1.08519 1.62186 1.00314C1.53981 0.921094 1.42853 0.875 1.3125 0.875C1.19647 0.875 1.08519 0.921094 1.00314 1.00314C0.921094 1.08519 0.875 1.19647 0.875 1.3125V26.6875C0.875 26.8035 0.921094 26.9148 1.00314 26.9969C1.08519 27.0789 1.19647 27.125 1.3125 27.125H26.6875C26.8035 27.125 26.9148 27.0789 26.9969 26.9969C27.0789 26.9148 27.125 26.8035 27.125 26.6875V24.5C27.125 24.384 27.0789 24.2727 26.9969 24.1906C26.9148 24.1086 26.8035 24.0625 26.6875 24.0625ZM22.8677 11.1217L23.8357 11.8129L23.1077 13.8145L22.1999 12.1496L22.8677 11.1217ZM17.3616 15.2901C17.4542 15.3209 17.5544 15.3199 17.6463 15.2872C17.7383 15.2546 17.8167 15.1922 17.8691 15.1099L20.5335 10.923L21.1813 12.1106L17.163 18.2926L15.8092 14.7726L17.3616 15.2901ZM6.72656 15.6541C6.81064 15.7214 6.91657 15.7553 7.02408 15.7494C7.13159 15.7434 7.23312 15.698 7.30926 15.6219L10.2081 12.723L10.9434 17.1344C10.9562 17.2113 10.9893 17.2833 11.0392 17.3431C11.0892 17.4029 11.1542 17.4482 11.2276 17.4745C11.3009 17.5007 11.38 17.5069 11.4565 17.4923C11.5331 17.4778 11.6043 17.4431 11.663 17.3918L13.3081 15.9523L10.5118 22.1043L8.27712 16.8902C8.24896 16.8245 8.20512 16.7666 8.14944 16.7218C8.09376 16.6769 8.02794 16.6464 7.95773 16.6329C7.88753 16.6194 7.81508 16.6233 7.74672 16.6442C7.67837 16.6652 7.61619 16.7026 7.56563 16.7531L6.33358 17.9852L5.28905 14.5042L6.72656 15.6541ZM1.75 15.1784L4.47978 14.1547C4.47694 14.158 4.47366 14.1609 4.47087 14.1644L1.75 17.5653V15.1784Z" fill="#467FD8"/>
<path d="M8.75 6.125C8.75 7.16335 9.05791 8.17839 9.63478 9.04174C10.2117 9.9051 11.0316 10.578 11.9909 10.9754C12.9502 11.3727 14.0058 11.4767 15.0242 11.2741C16.0426 11.0716 16.9781 10.5715 17.7123 9.83731C18.4465 9.10308 18.9466 8.16762 19.1491 7.14922C19.3517 6.13082 19.2477 5.07522 18.8504 4.11591C18.453 3.1566 17.7801 2.33666 16.9167 1.75978C16.0534 1.18291 15.0384 0.875 14 0.875C12.6081 0.876563 11.2736 1.43019 10.2894 2.41442C9.30519 3.39864 8.75156 4.73309 8.75 6.125ZM18.375 6.125C18.375 6.99029 18.1184 7.83615 17.6377 8.55562C17.1569 9.27508 16.4737 9.83584 15.6742 10.167C14.8748 10.4981 13.9951 10.5847 13.1465 10.4159C12.2978 10.2471 11.5183 9.83045 10.9064 9.21859C10.2946 8.60674 9.87787 7.82719 9.70906 6.97852C9.54025 6.12985 9.62689 5.25019 9.95803 4.45076C10.2892 3.65133 10.8499 2.96805 11.5694 2.48732C12.2888 2.00659 13.1347 1.75 14 1.75C15.1599 1.75132 16.272 2.21268 17.0921 3.03286C17.9123 3.85305 18.3737 4.96508 18.375 6.125Z" fill="#467FD8"/>
<path d="M13.5625 3.5V4.01275C13.2707 4.11605 13.0248 4.31914 12.8683 4.58615C12.7117 4.85316 12.6546 5.1669 12.7069 5.47196C12.7593 5.77702 12.9177 6.05377 13.1544 6.25332C13.391 6.45287 13.6905 6.56238 14 6.5625C14.116 6.5625 14.2273 6.60859 14.3094 6.69064C14.3914 6.77269 14.4375 6.88397 14.4375 7C14.4375 7.11603 14.3914 7.22731 14.3094 7.30936C14.2273 7.39141 14.116 7.4375 14 7.4375H13.125C13.009 7.4375 12.8977 7.48359 12.8156 7.56564C12.7336 7.64769 12.6875 7.75897 12.6875 7.875C12.6875 7.99103 12.7336 8.10231 12.8156 8.18436C12.8977 8.26641 13.009 8.3125 13.125 8.3125H13.5625V8.75C13.5625 8.86603 13.6086 8.97731 13.6906 9.05936C13.7727 9.14141 13.884 9.1875 14 9.1875C14.116 9.1875 14.2273 9.14141 14.3094 9.05936C14.3914 8.97731 14.4375 8.86603 14.4375 8.75V8.23725C14.7293 8.13395 14.9752 7.93086 15.1317 7.66385C15.2883 7.39684 15.3454 7.0831 15.2931 6.77804C15.2407 6.47298 15.0823 6.19623 14.8456 5.99668C14.609 5.79713 14.3095 5.68762 14 5.6875C13.884 5.6875 13.7727 5.64141 13.6906 5.55936C13.6086 5.47731 13.5625 5.36603 13.5625 5.25C13.5625 5.13397 13.6086 5.02269 13.6906 4.94064C13.7727 4.85859 13.884 4.8125 14 4.8125H14.875C14.991 4.8125 15.1023 4.76641 15.1844 4.68436C15.2664 4.60231 15.3125 4.49103 15.3125 4.375C15.3125 4.25897 15.2664 4.14769 15.1844 4.06564C15.1023 3.98359 14.991 3.9375 14.875 3.9375H14.4375V3.5C14.4375 3.38397 14.3914 3.27269 14.3094 3.19064C14.2273 3.10859 14.116 3.0625 14 3.0625C13.884 3.0625 13.7727 3.10859 13.6906 3.19064C13.6086 3.27269 13.5625 3.38397 13.5625 3.5Z" fill="#467FD8"/>
</g>
<defs>
<clipPath id="clip0_213_3131">
<rect width="28" height="28" fill="white"/>
</clipPath>
</defs>
</svg>
