<svg width="28" height="28" viewBox="0 0 28 28" fill="none" xmlns="http://www.w3.org/2000/svg">
<g clip-path="url(#clip0_213_3143)">
<path d="M24.2357 3.76412C20.1566 -0.315108 15.264 0.0330311 15.0981 0C14.7962 0 14.5513 0.244835 14.5513 0.546872V13.5635C14.5513 13.8654 14.7962 14.1103 15.0981 14.1103H27.453C27.7549 14.1103 27.9998 13.8654 27.9998 13.5635V12.8515C27.9998 9.41872 26.6631 6.19141 24.2357 3.76412ZM26.9061 13.0166H15.645V1.10413C21.8991 1.36499 26.9061 6.53441 26.9061 12.8515V13.0166Z" fill="#467FD8"/>
<path d="M13.4486 14.3212V1.67871C13.4486 1.37673 13.2037 1.13184 12.9017 1.13184C5.67183 1.13184 0 7.18532 0 14.4123C0 21.6476 5.67981 27.6928 12.9017 27.6928C14.3786 27.6928 15.8271 27.4379 17.2072 26.9352C17.4872 26.8332 17.634 26.5258 17.5373 26.2439L13.4486 14.3212ZM12.3548 2.23854V14.0893L2.24644 19.6614C1.50789 18.0709 1.09374 16.2907 1.09374 14.4124C1.09374 7.8816 6.09664 2.53423 12.3548 2.23854ZM2.75131 20.632L12.5956 15.2055L16.3246 26.0793C11.1848 27.6837 5.56661 25.5075 2.75131 20.632Z" fill="#467FD8"/>
<path d="M27.4531 15.2803H15.7167C15.3417 15.2803 15.0778 15.6499 15.1994 16.0046C15.6289 17.257 18.788 26.4691 19.1862 27.6303C19.2873 27.9249 19.6143 28.0764 19.9048 27.9614C24.6167 26.0958 28 21.3895 28 15.8271C28 15.5252 27.7552 15.2803 27.4531 15.2803ZM20.0301 26.7195L19.3546 24.7495L22.2434 23.0168C22.5024 22.8614 22.5864 22.5256 22.4311 22.2665C22.2759 22.0075 21.9399 21.9233 21.6809 22.0788L18.9918 23.6917L18.4906 22.23L20.688 20.9114C20.9469 20.756 21.0309 20.4201 20.8755 20.161C20.7201 19.9021 20.3843 19.8182 20.1252 19.9735L18.1278 21.172L17.6264 19.7099L19.1318 18.8066C19.3907 18.6512 19.4747 18.3153 19.3193 18.0563C19.1639 17.7973 18.8281 17.7133 18.569 17.8688L17.2637 18.6521L16.4824 16.374H26.894C26.6909 20.8575 24.0047 24.9039 20.0301 26.7195Z" fill="#467FD8"/>
</g>
<defs>
<clipPath id="clip0_213_3143">
<rect width="28" height="28" fill="white"/>
</clipPath>
</defs>
</svg>
