<svg width="28" height="28" viewBox="0 0 28 28" fill="none" xmlns="http://www.w3.org/2000/svg">
<g clip-path="url(#clip0_213_3148)">
<path d="M23.5737 17.7472V7.71528C23.5737 7.40373 23.3188 7.18848 23.0073 7.18848H20.8151C20.5035 7.18848 20.2316 7.40373 20.2316 7.71528V16.7673C19.8691 16.7786 19.5065 16.8239 19.1553 16.9089V10.6722C19.1553 10.3606 18.8891 10.1341 18.5776 10.1341H16.3854C16.0738 10.1341 15.8132 10.355 15.8132 10.6722V19.1294C15.1392 20.0754 14.7766 21.214 14.7823 22.3809C14.7823 25.4851 17.2974 28.0001 20.3959 28.0001C23.5001 28.0001 26.0151 25.4851 26.0151 22.3865C26.0151 20.5286 25.1031 18.7952 23.5737 17.7472ZM21.3645 8.32139H22.4408V17.1468C22.0953 17.0109 21.7327 16.9089 21.3645 16.8522V8.32139ZM16.9462 11.267H18.0224V17.2997C17.6429 17.4753 17.2804 17.6906 16.9462 17.9455V11.267ZM24.2591 24.6637C23.4491 26.0289 21.982 26.8616 20.4016 26.8616C17.9261 26.8616 15.9209 24.8506 15.9209 22.3809C15.9209 20.5682 17.0141 18.9311 18.6908 18.2401C18.7588 18.2287 18.8211 18.2004 18.8778 18.1664C19.3649 17.9852 19.8861 17.8945 20.4072 17.8945C20.5262 17.8945 20.6395 17.9002 20.7584 17.9115H20.7641C21.4438 17.9625 22.1066 18.1721 22.69 18.5233C24.8199 19.7865 25.5223 22.5338 24.2591 24.6637Z" fill="#467FD8"/>
<path d="M20.4075 21.9224C20.011 21.9224 19.6938 21.6052 19.6938 21.2086C19.6938 20.8121 20.0053 20.4949 20.4018 20.4892C20.7983 20.4892 21.1156 20.8121 21.1156 21.203C21.1156 21.5145 21.3705 21.7694 21.682 21.7694C21.9992 21.7694 22.2541 21.5202 22.2598 21.203C22.2598 20.4439 21.7953 19.7585 21.0872 19.481V19.0108C21.0872 18.6992 20.8323 18.4443 20.5208 18.4443C20.2092 18.4443 19.9543 18.6992 19.9543 19.0108V19.4186C18.9687 19.6735 18.3739 20.6818 18.6288 21.6675C18.8327 22.4832 19.5635 23.0496 20.4018 23.0496C20.7927 23.0496 21.1099 23.3725 21.1099 23.7634C21.1099 24.1542 20.787 24.4714 20.3962 24.4714C20.0053 24.4714 19.6881 24.1486 19.6881 23.7577C19.6881 23.4462 19.4332 23.1913 19.1216 23.1913C18.8101 23.1913 18.5608 23.4405 18.5665 23.752V23.7577C18.5722 24.5961 19.1386 25.3325 19.9487 25.542V25.797C19.9487 26.1085 20.2036 26.3634 20.5151 26.3634C20.8267 26.3634 21.0816 26.1085 21.0816 25.797V25.4854C22.0332 25.1115 22.4977 24.0409 22.1295 23.095C21.852 22.3869 21.1665 21.9224 20.4075 21.9224Z" fill="#467FD8"/>
<path d="M9.69556 14.666H7.48638C7.17483 14.666 6.91992 14.9209 6.91992 15.2325V24.1259C6.91992 24.4374 7.17483 24.6923 7.48638 24.6923H9.69556C10.0071 24.6923 10.262 24.4374 10.262 24.1259V15.2325C10.262 14.9209 10.0071 14.666 9.69556 14.666ZM9.12911 23.616H8.05284V15.7989H9.12911V23.616Z" fill="#467FD8"/>
<path d="M14.1707 13.3623H11.9615C11.6499 13.3623 11.395 13.6172 11.395 13.9288V24.1816C11.395 24.4932 11.6499 24.7481 11.9615 24.7481H14.1707C14.4822 24.7481 14.7371 24.4932 14.7371 24.1816V13.9288C14.7371 13.6172 14.4822 13.3623 14.1707 13.3623ZM13.6042 23.6152H12.5279V14.4952H13.6042V23.6152Z" fill="#467FD8"/>
<path d="M5.22047 19.5371H3.01128C2.69973 19.5371 2.44482 19.792 2.44482 20.1036V24.1254C2.44482 24.437 2.69973 24.6919 3.01128 24.6919H5.22047C5.53202 24.6919 5.78692 24.437 5.78692 24.1254V20.1036C5.78692 19.792 5.53202 19.5371 5.22047 19.5371ZM4.65401 23.6156H3.57774V20.67H4.65401V23.6156Z" fill="#467FD8"/>
<path d="M23.489 0L19.6144 0.00566458C19.3029 0 19.048 0.254906 19.0423 0.566458C19.0367 0.878009 19.2916 1.13292 19.6031 1.13858C19.6088 1.13858 19.6088 1.13858 19.6144 1.13858L22.1238 1.13292L15.9778 7.25632L13.8309 5.12644C13.7233 5.02448 13.576 4.9735 13.4287 4.97916C13.2814 4.9735 13.1342 5.02448 13.0265 5.12644L2.15055 16.0024C1.92963 16.2233 1.92963 16.5802 2.15055 16.7955C2.25818 16.9031 2.39979 16.9597 2.55274 16.9597C2.70568 16.9597 2.84729 16.9031 2.95492 16.7955L13.4344 6.316L15.5813 8.47987C15.6832 8.59316 15.8305 8.65547 15.9834 8.66114C16.1364 8.65547 16.278 8.5875 16.3856 8.47987L22.9226 1.93729L22.9169 4.45802C22.9169 4.77524 23.1661 5.03014 23.4833 5.04147C23.8006 5.03581 24.0498 4.77524 24.0498 4.45802L24.0555 0.572122C24.0555 0.260571 23.8006 0 23.489 0Z" fill="#467FD8"/>
</g>
<defs>
<clipPath id="clip0_213_3148">
<rect width="28" height="28" fill="white"/>
</clipPath>
</defs>
</svg>
