<svg width="40" height="40" viewBox="0 0 40 40" fill="none" xmlns="http://www.w3.org/2000/svg">
<g clip-path="url(#clip0_197_768)">
<path d="M28.5983 1.38774C30.6577 1.39769 32.3242 3.06415 32.3192 5.1037C32.3192 7.15319 30.6527 8.81468 28.5983 8.81965C26.4841 8.8296 24.8475 7.17309 24.8624 5.05395C24.8773 2.96963 26.504 1.37779 28.5983 1.38774Z" fill="#405270"/>
<path d="M11.3466 38.6126C9.23744 38.6275 7.55108 36.9561 7.57596 34.8718C7.59585 32.8273 9.28221 31.1708 11.3267 31.1807C13.3862 31.1907 15.0526 32.8571 15.0477 34.8967C15.0427 36.9909 13.4409 38.5977 11.3516 38.6126H11.3466Z" fill="#405270"/>
<path d="M21.1766 40.0004C19.6046 40.0004 18.3511 38.7617 18.3511 37.2097C18.3511 35.6676 19.6096 34.424 21.1865 34.419C22.7535 34.4091 24.0121 35.6626 24.0021 37.2147C23.9922 38.7717 22.7436 40.0054 21.1766 40.0054V40.0004Z" fill="#405270"/>
<path d="M18.8035 5.58643C17.2316 5.58643 15.978 4.34778 15.978 2.79573C15.978 1.24866 17.2366 0.0100078 18.8135 5.8813e-05C20.3805 -0.0098902 21.639 1.24369 21.6291 2.79573C21.6191 4.35275 20.3705 5.58643 18.8035 5.58643Z" fill="#405270"/>
<path d="M38.234 12.372C38.2489 13.929 37.0202 15.1975 35.4732 15.2224C33.9311 15.2423 32.6427 13.9937 32.6128 12.4466C32.583 10.9344 33.8763 9.61117 35.3985 9.5863C36.9357 9.56143 38.2141 10.82 38.229 12.372H38.234Z" fill="#405270"/>
<path d="M4.54172 25.1064C6.12361 25.1214 7.34734 26.37 7.31252 27.932C7.27272 29.494 6.0291 30.6729 4.43726 30.653C2.87029 30.6331 1.62666 29.3696 1.66646 27.8275C1.70128 26.2755 2.95485 25.0915 4.5467 25.1114L4.54172 25.1064Z" fill="#405270"/>
<path d="M12.312 5.70038C12.3269 6.90421 11.4414 7.83941 10.2426 7.87921C9.04372 7.92398 8.01897 6.92908 8.02394 5.73022C8.02892 4.57614 9.02382 3.57626 10.163 3.57129C11.332 3.57129 12.2921 4.52142 12.307 5.6954L12.312 5.70038Z" fill="#405270"/>
<path d="M37.2438 22.8331C36.0499 22.843 35.0998 21.9277 35.0799 20.7438C35.06 19.5599 35.9753 18.5998 37.1642 18.5749C38.4029 18.5451 39.3779 19.4803 39.3729 20.704C39.3729 21.8979 38.4476 22.8231 37.2488 22.8331H37.2438Z" fill="#405270"/>
<path d="M2.79558 21.0772C1.60169 21.0872 0.656539 20.1719 0.631666 18.9879C0.611768 17.804 1.52708 16.8439 2.71598 16.8191C3.95464 16.7892 4.92964 17.7244 4.92466 18.9481C4.92466 20.142 3.99941 21.0673 2.80055 21.0772H2.79558Z" fill="#405270"/>
<path d="M27.1706 34.3786C27.1855 33.1748 28.1108 32.2744 29.3146 32.2943C30.5085 32.3092 31.4338 33.2394 31.4338 34.4283C31.4338 35.6521 30.4538 36.5972 29.2201 36.5574C28.0113 36.5176 27.1557 35.6123 27.1706 34.3786Z" fill="#405270"/>
<path d="M36.4283 28.549C36.4333 29.4096 35.7965 30.0662 34.9409 30.0911C34.0356 30.111 33.374 29.4544 33.3839 28.544C33.3938 27.6735 34.0256 27.0517 34.9061 27.0567C35.7816 27.0567 36.4233 27.6884 36.4283 28.554V28.549Z" fill="#415270"/>
<path d="M5.04419 12.9187C4.19852 12.9187 3.51702 12.2521 3.50707 11.4164C3.49214 10.5508 4.2035 9.86431 5.09891 9.88421C5.94955 9.89913 6.60618 10.5806 6.59623 11.4213C6.58131 12.2421 5.88488 12.9236 5.04916 12.9187H5.04419Z" fill="#415370"/>
</g>
<defs>
<clipPath id="clip0_197_768">
<rect width="38.7365" height="40" fill="white" transform="translate(0.631836)"/>
</clipPath>
</defs>
</svg>
