<svg width="28" height="28" viewBox="0 0 28 28" fill="none" xmlns="http://www.w3.org/2000/svg">
<path d="M16.8026 11.212C16.2177 10.1989 15.1701 9.59405 14.0002 9.59405C12.8303 9.59405 11.7827 10.1989 11.1977 11.212L5.06952 21.8264C4.48458 22.8396 4.48458 24.0493 5.06952 25.0625C5.6544 26.0755 6.70211 26.6804 7.87193 26.6804H20.1284C21.2983 26.6804 22.346 26.0755 22.9309 25.0625C23.5158 24.0493 23.5158 22.8396 22.9309 21.8264L16.8026 11.212ZM22.1731 24.625C21.7463 25.3642 20.982 25.8054 20.1284 25.8054H7.87193C7.01842 25.8054 6.25405 25.3642 5.82727 24.625C5.40043 23.8857 5.40043 23.0031 5.82722 22.2639L11.9554 11.6495C12.3823 10.9103 13.1466 10.469 14.0002 10.469C14.8538 10.469 15.6181 10.9103 16.0449 11.6495L22.1732 22.2639C22.5999 23.0031 22.5999 23.8858 22.1731 24.625ZM14.0002 21.8988C13.2415 21.8988 12.6242 22.5162 12.6242 23.2749C12.6242 24.0336 13.2415 24.6509 14.0002 24.6509C14.7589 24.6509 15.3763 24.0336 15.3763 23.2749C15.3763 22.5162 14.7589 21.8988 14.0002 21.8988ZM14.0002 23.776C13.7239 23.776 13.4992 23.5512 13.4992 23.2749C13.4992 22.9987 13.7239 22.7739 14.0002 22.7739C14.2765 22.7739 14.5013 22.9987 14.5013 23.2749C14.5013 23.5512 14.2765 23.776 14.0002 23.776ZM14.0001 21.0984H14.0003C14.6331 21.0984 15.1468 20.603 15.1696 19.9706L15.3548 14.8422C15.3665 14.5172 15.2534 14.2217 15.0277 13.9877C14.8019 13.7536 14.5107 13.6299 14.1855 13.6299H13.8151C13.4899 13.6299 13.1987 13.7536 12.973 13.9876C12.7471 14.2218 12.634 14.5173 12.6458 14.8423L12.831 19.9706C12.8536 20.603 13.3673 21.0984 14.0001 21.0984ZM13.6026 14.5951C13.6636 14.5318 13.727 14.5049 13.815 14.5049H14.1854C14.2733 14.5049 14.3368 14.5318 14.3977 14.5951C14.4588 14.6583 14.4835 14.7228 14.4803 14.8106L14.2951 19.939C14.2894 20.0985 14.1598 20.2234 14.0002 20.2234C13.8406 20.2234 13.711 20.0985 13.7052 19.939L13.52 14.8105C13.5169 14.7228 13.5415 14.6583 13.6026 14.5951ZM27.5059 15.6343C27.4049 15.4161 27.1926 15.2805 26.9518 15.2805H26.2417V9.00227C26.2417 8.76066 26.0458 8.56477 25.8042 8.56477H23.3392C23.0976 8.56477 22.9017 8.76066 22.9017 9.00227V15.2805H22.1916C21.9508 15.2805 21.7385 15.4161 21.6374 15.6344C21.5364 15.8528 21.5704 16.1024 21.7262 16.2859L24.1064 19.0892C24.2226 19.226 24.3921 19.3045 24.5716 19.3046H24.5717C24.7511 19.3046 24.9207 19.2261 25.0369 19.0893C25.037 19.0893 25.037 19.0893 25.037 19.0892L27.4172 16.2858C27.573 16.1022 27.607 15.8526 27.5059 15.6343ZM24.5717 18.2853L22.7634 16.1555H23.3392C23.5808 16.1555 23.7767 15.9596 23.7767 15.718V9.43977H25.3667V15.718C25.3667 15.9596 25.5626 16.1555 25.8042 16.1555H26.38L24.5717 18.2853ZM6.3631 16.5907C6.26204 16.3723 6.04974 16.2366 5.8089 16.2366H5.09872V9.95848C5.09872 9.71687 4.90283 9.52098 4.66122 9.52098H2.19624C1.95463 9.52098 1.75874 9.71687 1.75874 9.95848V16.2366H1.04857C0.807779 16.2366 0.595427 16.3722 0.494419 16.5907C0.393357 16.809 0.427427 17.0587 0.583232 17.242L2.9634 20.0454C3.07961 20.1823 3.24919 20.2607 3.42873 20.2607H3.42884C3.60838 20.2607 3.77797 20.1821 3.89412 20.0453L6.27412 17.2422C6.42998 17.0587 6.46405 16.809 6.3631 16.5907ZM3.42873 19.2415L1.62038 17.1116H2.19624C2.43785 17.1116 2.63374 16.9157 2.63374 16.6741V10.396H4.22372V16.6741C4.22372 16.9157 4.41961 17.1116 4.66122 17.1116H5.23708L3.42873 19.2415ZM9.10021 10.4887C9.21642 10.6256 9.38606 10.7041 9.56565 10.7041C9.74519 10.7041 9.91483 10.6255 10.031 10.4886L12.411 7.68545C12.5668 7.50198 12.6009 7.25233 12.4999 7.03401C12.3988 6.81565 12.1865 6.68002 11.9457 6.68002H11.2356V1.75684C11.2356 1.51523 11.0397 1.31934 10.7981 1.31934H8.33311C8.0915 1.31934 7.89561 1.51523 7.89561 1.75684V6.68002H7.18543C6.94465 6.68002 6.73229 6.8157 6.63129 7.03413C6.53022 7.25249 6.56435 7.50214 6.72015 7.68545L9.10021 10.4887ZM8.33311 7.55502C8.57472 7.55502 8.77061 7.35913 8.77061 7.11752V2.19434H10.3606V7.11752C10.3606 7.35913 10.5565 7.55502 10.7981 7.55502H11.3739L9.5656 9.68483L7.7573 7.55502H8.33311ZM19.2056 11.3378C19.3218 11.4747 19.4914 11.5532 19.671 11.5532C19.8505 11.5532 20.0201 11.4747 20.1363 11.3379L22.5164 8.53464C22.6723 8.35116 22.7063 8.10152 22.6053 7.88315C22.5042 7.66478 22.292 7.52916 22.0511 7.52916H21.341V2.60597C21.341 2.36436 21.1451 2.16847 20.9035 2.16847H18.4385C18.1969 2.16847 18.001 2.36436 18.001 2.60597V7.52916H17.2909C17.0501 7.52916 16.8378 7.66478 16.7367 7.8832C16.6357 8.10151 16.6697 8.35116 16.8255 8.53459L19.2056 11.3378ZM18.4384 8.40416C18.68 8.40416 18.8759 8.20826 18.8759 7.96666V3.04347H20.466V7.96666C20.466 8.20826 20.6619 8.40416 20.9035 8.40416H21.4793L19.6709 10.534L17.8626 8.40416H18.4384Z" fill="#467FD8"/>
</svg>
