<svg width="28" height="28" viewBox="0 0 28 28" fill="none" xmlns="http://www.w3.org/2000/svg">
<path d="M26.0312 1.75H1.96875C1.56277 1.75045 1.17356 1.91192 0.886488 2.19899C0.599421 2.48606 0.437949 2.87527 0.4375 3.28125V20.7812C0.437949 21.1872 0.599421 21.5764 0.886488 21.8635C1.17356 22.1506 1.56277 22.3121 1.96875 22.3125H10.768L10.1845 24.0625H9.1875C9.07147 24.0625 8.96019 24.1086 8.87814 24.1906C8.79609 24.2727 8.75 24.384 8.75 24.5V25.375H5.6875C5.57147 25.375 5.46019 25.4211 5.37814 25.5031C5.29609 25.5852 5.25 25.6965 5.25 25.8125C5.25 25.9285 5.29609 26.0398 5.37814 26.1219C5.46019 26.2039 5.57147 26.25 5.6875 26.25H20.5625C20.6785 26.25 20.7898 26.2039 20.8719 26.1219C20.9539 26.0398 21 25.9285 21 25.8125C21 25.6965 20.9539 25.5852 20.8719 25.5031C20.7898 25.4211 20.6785 25.375 20.5625 25.375H19.25V24.5C19.25 24.384 19.2039 24.2727 19.1219 24.1906C19.0398 24.1086 18.9285 24.0625 18.8125 24.0625H17.8155L17.232 22.3125H26.0312C26.4372 22.3121 26.8264 22.1506 27.1135 21.8635C27.4006 21.5764 27.5621 21.1872 27.5625 20.7812V3.28125C27.5621 2.87527 27.4006 2.48606 27.1135 2.19899C26.8264 1.91192 26.4372 1.75045 26.0312 1.75ZM18.375 24.9375V25.375H9.625V24.9375H18.375ZM11.107 24.0625L11.6905 22.3125H16.3095L16.893 24.0625H11.107ZM26.6875 20.7812C26.6874 20.9553 26.6182 21.1221 26.4951 21.2451C26.3721 21.3682 26.2053 21.4374 26.0312 21.4375H1.96875C1.79475 21.4374 1.62791 21.3682 1.50487 21.2451C1.38183 21.1221 1.31264 20.9553 1.3125 20.7812V20.125H26.6875V20.7812ZM26.6875 19.25H1.3125V3.28125C1.31264 3.10725 1.38183 2.94041 1.50487 2.81737C1.62791 2.69433 1.79475 2.62514 1.96875 2.625H26.0312C26.2053 2.62514 26.3721 2.69433 26.4951 2.81737C26.6182 2.94041 26.6874 3.10725 26.6875 3.28125V19.25Z" fill="#467FD8"/>
<path d="M22.3125 25.375H21.875C21.759 25.375 21.6477 25.4211 21.5656 25.5031C21.4836 25.5852 21.4375 25.6965 21.4375 25.8125C21.4375 25.9285 21.4836 26.0398 21.5656 26.1219C21.6477 26.2039 21.759 26.25 21.875 26.25H22.3125C22.4285 26.25 22.5398 26.2039 22.6219 26.1219C22.7039 26.0398 22.75 25.9285 22.75 25.8125C22.75 25.6965 22.7039 25.5852 22.6219 25.5031C22.5398 25.4211 22.4285 25.375 22.3125 25.375Z" fill="#467FD8"/>
<path d="M3.50008 13.125C3.80461 13.1245 4.09955 13.0184 4.33452 12.8247C4.56948 12.6309 4.72989 12.3616 4.78835 12.0628L9.38259 8.99994C9.50617 9.2011 9.68174 9.36518 9.89079 9.47487C10.0998 9.58457 10.3346 9.63582 10.5704 9.62322C10.8061 9.61062 11.0341 9.53464 11.2303 9.40329C11.4264 9.27193 11.5835 9.09008 11.6849 8.8769L16.2295 10.3917C16.3046 10.6811 16.4762 10.9362 16.716 11.1148C16.9559 11.2934 17.2495 11.3847 17.5482 11.3737C17.847 11.3627 18.1331 11.25 18.3591 11.0542C18.5851 10.8585 18.7376 10.5914 18.7911 10.2973L23.6295 6.6685C23.8606 6.87304 24.1565 6.98944 24.4651 6.99717C24.7736 7.0049 25.075 6.90347 25.316 6.71076C25.5571 6.51805 25.7224 6.24643 25.7828 5.94377C25.8433 5.64111 25.7949 5.32684 25.6463 5.05634C25.4977 4.78584 25.2584 4.57648 24.9705 4.46516C24.6827 4.35384 24.3647 4.3477 24.0728 4.44782C23.7809 4.54795 23.5336 4.74791 23.3747 5.01247C23.2158 5.27702 23.1553 5.5892 23.204 5.89397L18.5997 9.34715C18.4726 9.15155 18.2957 8.99336 18.0872 8.88889C17.8786 8.78442 17.646 8.73745 17.4133 8.75282C17.1805 8.76819 16.9561 8.84535 16.7631 8.97634C16.5701 9.10733 16.4155 9.28742 16.3153 9.49804L11.7708 7.98319C11.6961 7.69503 11.5256 7.44082 11.2874 7.2623C11.0492 7.08377 10.7574 6.99153 10.4598 7.00071C10.1623 7.00989 9.87668 7.11995 9.64992 7.31283C9.42316 7.50571 9.26871 7.76994 9.21191 8.06216L4.61756 11.125C4.49768 10.93 4.32889 10.7698 4.12796 10.6602C3.92703 10.5506 3.70093 10.4955 3.47211 10.5003C3.24328 10.505 3.01969 10.5696 2.8235 10.6874C2.62732 10.8053 2.46538 10.9725 2.35374 11.1723C2.2421 11.3721 2.18465 11.5976 2.18709 11.8265C2.18952 12.0553 2.25177 12.2796 2.36764 12.4769C2.48351 12.6743 2.64898 12.838 2.84763 12.9516C3.04628 13.0653 3.2712 13.1251 3.50008 13.125ZM24.5001 5.24997C24.5866 5.24997 24.6712 5.27562 24.7431 5.3237C24.8151 5.37177 24.8712 5.4401 24.9043 5.52004C24.9374 5.59998 24.9461 5.68795 24.9292 5.77282C24.9123 5.85768 24.8706 5.93564 24.8094 5.99682C24.7482 6.05801 24.6703 6.09968 24.5854 6.11656C24.5006 6.13344 24.4126 6.12478 24.3327 6.09166C24.2527 6.05855 24.1844 6.00247 24.1363 5.93053C24.0882 5.85858 24.0626 5.77399 24.0626 5.68747C24.0627 5.57147 24.1088 5.46027 24.1909 5.37825C24.2729 5.29623 24.3841 5.2501 24.5001 5.24997ZM17.5001 9.62497C17.5866 9.62497 17.6712 9.65062 17.7431 9.6987C17.8151 9.74677 17.8712 9.8151 17.9043 9.89504C17.9374 9.97498 17.9461 10.063 17.9292 10.1478C17.9123 10.2327 17.8706 10.3106 17.8094 10.3718C17.7482 10.433 17.6703 10.4747 17.5854 10.4916C17.5006 10.5084 17.4126 10.4998 17.3327 10.4667C17.2527 10.4335 17.1844 10.3775 17.1363 10.3055C17.0882 10.2336 17.0626 10.149 17.0626 10.0625C17.0627 9.94647 17.1088 9.83527 17.1909 9.75325C17.2729 9.67123 17.3841 9.6251 17.5001 9.62497ZM10.5001 7.87497C10.5866 7.87497 10.6712 7.90062 10.7431 7.9487C10.8151 7.99677 10.8712 8.0651 10.9043 8.14504C10.9374 8.22498 10.9461 8.31295 10.9292 8.39782C10.9123 8.48268 10.8706 8.56064 10.8094 8.62182C10.7482 8.68301 10.6703 8.72468 10.5854 8.74156C10.5006 8.75844 10.4126 8.74978 10.3327 8.71666C10.2527 8.68355 10.1844 8.62747 10.1363 8.55553C10.0882 8.48358 10.0626 8.39899 10.0626 8.31247C10.0627 8.19647 10.1088 8.08527 10.1909 8.00325C10.2729 7.92123 10.3841 7.8751 10.5001 7.87497ZM3.50008 11.375C3.5866 11.375 3.67119 11.4006 3.74314 11.4487C3.81508 11.4968 3.87116 11.5651 3.90427 11.645C3.93739 11.725 3.94605 11.813 3.92917 11.8978C3.91229 11.9827 3.87062 12.0606 3.80943 12.1218C3.74825 12.183 3.67029 12.2247 3.58543 12.2416C3.50056 12.2584 3.41259 12.2498 3.33265 12.2167C3.25271 12.1835 3.18438 12.1275 3.13631 12.0555C3.08823 11.9836 3.06258 11.899 3.06258 11.8125C3.06271 11.6965 3.10884 11.5853 3.19086 11.5033C3.27288 11.4212 3.38408 11.3751 3.50008 11.375Z" fill="#467FD8"/>
<path d="M2.625 17.9375H25.375C25.491 17.9375 25.6023 17.8914 25.6844 17.8094C25.7664 17.7273 25.8125 17.616 25.8125 17.5C25.8125 17.384 25.7664 17.2727 25.6844 17.1906C25.6023 17.1086 25.491 17.0625 25.375 17.0625H24.9375V7.875C24.9375 7.75897 24.8914 7.64769 24.8094 7.56564C24.7273 7.48359 24.616 7.4375 24.5 7.4375C24.384 7.4375 24.2727 7.48359 24.1906 7.56564C24.1086 7.64769 24.0625 7.75897 24.0625 7.875V17.0625H21.4375V14.4375C21.4375 14.3215 21.3914 14.2102 21.3094 14.1281C21.2273 14.0461 21.116 14 21 14C20.884 14 20.7727 14.0461 20.6906 14.1281C20.6086 14.2102 20.5625 14.3215 20.5625 14.4375V17.0625H17.9375V12.6875C17.9375 12.5715 17.8914 12.4602 17.8094 12.3781C17.7273 12.2961 17.616 12.25 17.5 12.25C17.384 12.25 17.2727 12.2961 17.1906 12.3781C17.1086 12.4602 17.0625 12.5715 17.0625 12.6875V17.0625H14.4375V14.4375C14.4375 14.3215 14.3914 14.2102 14.3094 14.1281C14.2273 14.0461 14.116 14 14 14C13.884 14 13.7727 14.0461 13.6906 14.1281C13.6086 14.2102 13.5625 14.3215 13.5625 14.4375V17.0625H10.9375V10.9375C10.9375 10.8215 10.8914 10.7102 10.8094 10.6281C10.7273 10.5461 10.616 10.5 10.5 10.5C10.384 10.5 10.2727 10.5461 10.1906 10.6281C10.1086 10.7102 10.0625 10.8215 10.0625 10.9375V17.0625H7.4375V14.4375C7.4375 14.3215 7.39141 14.2102 7.30936 14.1281C7.22731 14.0461 7.11603 14 7 14C6.88397 14 6.77269 14.0461 6.69064 14.1281C6.60859 14.2102 6.5625 14.3215 6.5625 14.4375V17.0625H3.9375V14.4375C3.9375 14.3215 3.89141 14.2102 3.80936 14.1281C3.72731 14.0461 3.61603 14 3.5 14C3.38397 14 3.27269 14.0461 3.19064 14.1281C3.10859 14.2102 3.0625 14.3215 3.0625 14.4375V17.0625H2.625C2.50897 17.0625 2.39769 17.1086 2.31564 17.1906C2.23359 17.2727 2.1875 17.384 2.1875 17.5C2.1875 17.616 2.23359 17.7273 2.31564 17.8094C2.39769 17.8914 2.50897 17.9375 2.625 17.9375Z" fill="#467FD8"/>
</svg>
